<svg width="306" height="206" viewBox="0 0 306 206" fill="none" xmlns="http://www.w3.org/2000/svg">
<path d="M51.8506 68.0469L55.1045 76.168L58.3584 68.0469H60.0605V78H58.748V74.124L58.8711 69.9404L55.6035 78H54.5986L51.3379 69.9609L51.4678 74.124V78H50.1553V68.0469H51.8506ZM63.5605 73.1533H65.4814C66.32 73.1624 66.9831 73.3812 67.4707 73.8096C67.9583 74.238 68.2021 74.819 68.2021 75.5527C68.2021 76.291 67.9515 76.8835 67.4502 77.3301C66.9489 77.7767 66.2744 78 65.4268 78H62.2959V70.6035H63.5605V73.1533ZM70.8408 78H69.5693V70.6035H70.8408V78ZM63.5605 74.1855V76.9678H65.4404C65.9144 76.9678 66.2812 76.847 66.541 76.6055C66.8008 76.3594 66.9307 76.0244 66.9307 75.6006C66.9307 75.1904 66.8031 74.8555 66.5479 74.5957C66.2972 74.3314 65.944 74.1947 65.4883 74.1855H63.5605ZM79.4883 77.1045C79.9395 77.1045 80.3337 76.9678 80.6709 76.6943C81.0081 76.4209 81.195 76.0791 81.2314 75.6689H82.4277C82.4049 76.0928 82.2591 76.4961 81.9902 76.8789C81.7214 77.2617 81.3613 77.5671 80.9102 77.7949C80.4635 78.0228 79.9896 78.1367 79.4883 78.1367C78.4811 78.1367 77.679 77.8018 77.082 77.1318C76.4896 76.4574 76.1934 75.5368 76.1934 74.3701V74.1582C76.1934 73.4382 76.3255 72.7979 76.5898 72.2373C76.8542 71.6768 77.2324 71.2415 77.7246 70.9316C78.2214 70.6217 78.807 70.4668 79.4814 70.4668C80.3109 70.4668 80.999 70.7152 81.5459 71.2119C82.0973 71.7087 82.3913 72.3535 82.4277 73.1465H81.2314C81.195 72.668 81.0127 72.276 80.6846 71.9707C80.361 71.6608 79.96 71.5059 79.4814 71.5059C78.8389 71.5059 78.3398 71.7383 77.9844 72.2031C77.6335 72.6634 77.458 73.3311 77.458 74.2061V74.4453C77.458 75.2975 77.6335 75.9538 77.9844 76.4141C78.3353 76.8743 78.8366 77.1045 79.4883 77.1045ZM89.3457 71.6289H86.8643V78H85.5996V71.6289H83.166V70.6035H89.3457V71.6289ZM96.8242 74.3838C96.8242 75.5094 96.5667 76.4163 96.0518 77.1045C95.5368 77.7926 94.8395 78.1367 93.96 78.1367C93.0622 78.1367 92.3558 77.8519 91.8408 77.2822V80.8438H90.5762V70.6035H91.7314L91.793 71.4238C92.3079 70.7858 93.0234 70.4668 93.9395 70.4668C94.8281 70.4668 95.5299 70.8018 96.0449 71.4717C96.5645 72.1416 96.8242 73.0736 96.8242 74.2676V74.3838ZM95.5596 74.2402C95.5596 73.4062 95.3818 72.7477 95.0264 72.2646C94.6709 71.7816 94.1833 71.54 93.5635 71.54C92.7979 71.54 92.2236 71.8796 91.8408 72.5586V76.0928C92.2191 76.7673 92.7979 77.1045 93.5771 77.1045C94.1833 77.1045 94.6641 76.8652 95.0195 76.3867C95.3796 75.9036 95.5596 75.1882 95.5596 74.2402ZM103.004 78C102.931 77.8542 102.872 77.5944 102.826 77.2207C102.238 77.8314 101.536 78.1367 100.721 78.1367C99.9915 78.1367 99.3923 77.9316 98.9229 77.5215C98.458 77.1068 98.2256 76.5827 98.2256 75.9492C98.2256 75.179 98.5173 74.582 99.1006 74.1582C99.6885 73.7298 100.513 73.5156 101.575 73.5156H102.806V72.9346C102.806 72.4925 102.674 72.1416 102.409 71.8818C102.145 71.6175 101.755 71.4854 101.24 71.4854C100.789 71.4854 100.411 71.5993 100.105 71.8271C99.8001 72.055 99.6475 72.3307 99.6475 72.6543H98.376C98.376 72.2852 98.5059 71.9297 98.7656 71.5879C99.0299 71.2415 99.3854 70.9681 99.832 70.7676C100.283 70.5671 100.778 70.4668 101.315 70.4668C102.168 70.4668 102.835 70.681 103.318 71.1094C103.801 71.5332 104.052 72.1188 104.07 72.8662V76.2705C104.07 76.9495 104.157 77.4896 104.33 77.8906V78H103.004ZM100.905 77.0361C101.302 77.0361 101.678 76.9336 102.033 76.7285C102.389 76.5234 102.646 76.2568 102.806 75.9287V74.4111H101.814C100.265 74.4111 99.4902 74.8646 99.4902 75.7715C99.4902 76.168 99.6224 76.4779 99.8867 76.7012C100.151 76.9245 100.491 77.0361 100.905 77.0361ZM108.534 73.3037L110.175 70.6035H111.651L109.231 74.2607L111.727 78H110.264L108.555 75.2314L106.846 78H105.376L107.871 74.2607L105.451 70.6035H106.914L108.534 73.3037ZM115.418 76.1475L117.141 70.6035H118.494L115.521 79.1416C115.06 80.3721 114.329 80.9873 113.326 80.9873L113.087 80.9668L112.615 80.8779V79.8525L112.957 79.8799C113.385 79.8799 113.718 79.7933 113.955 79.6201C114.197 79.4469 114.395 79.1302 114.55 78.6699L114.83 77.918L112.191 70.6035H113.572L115.418 76.1475ZM122.603 78.1367C121.6 78.1367 120.784 77.8086 120.155 77.1523C119.526 76.4915 119.212 75.6097 119.212 74.5068V74.2744C119.212 73.5407 119.351 72.8867 119.629 72.3125C119.911 71.7337 120.303 71.2826 120.805 70.959C121.311 70.6309 121.857 70.4668 122.445 70.4668C123.407 70.4668 124.154 70.7835 124.688 71.417C125.221 72.0505 125.487 72.9574 125.487 74.1377V74.6641H120.477C120.495 75.3932 120.707 75.9834 121.112 76.4346C121.522 76.8812 122.042 77.1045 122.671 77.1045C123.118 77.1045 123.496 77.0133 123.806 76.8311C124.116 76.6488 124.387 76.4072 124.619 76.1064L125.392 76.708C124.772 77.6605 123.842 78.1367 122.603 78.1367ZM122.445 71.5059C121.935 71.5059 121.507 71.6927 121.16 72.0664C120.814 72.4355 120.6 72.9551 120.518 73.625H124.223V73.5293C124.186 72.8867 124.013 72.39 123.703 72.0391C123.393 71.6836 122.974 71.5059 122.445 71.5059ZM131.216 76.3252L133.731 70.6035H135.311V78H134.046V72.6201L131.653 78H130.778L128.338 72.5039V78H127.073V70.6035H128.714L131.216 76.3252ZM145.387 78C145.314 77.8542 145.255 77.5944 145.209 77.2207C144.621 77.8314 143.919 78.1367 143.104 78.1367C142.374 78.1367 141.775 77.9316 141.306 77.5215C140.841 77.1068 140.608 76.5827 140.608 75.9492C140.608 75.179 140.9 74.582 141.483 74.1582C142.071 73.7298 142.896 73.5156 143.958 73.5156H145.188V72.9346C145.188 72.4925 145.056 72.1416 144.792 71.8818C144.528 71.6175 144.138 71.4854 143.623 71.4854C143.172 71.4854 142.794 71.5993 142.488 71.8271C142.183 72.055 142.03 72.3307 142.03 72.6543H140.759C140.759 72.2852 140.889 71.9297 141.148 71.5879C141.413 71.2415 141.768 70.9681 142.215 70.7676C142.666 70.5671 143.16 70.4668 143.698 70.4668C144.55 70.4668 145.218 70.681 145.701 71.1094C146.184 71.5332 146.435 72.1188 146.453 72.8662V76.2705C146.453 76.9495 146.54 77.4896 146.713 77.8906V78H145.387ZM143.288 77.0361C143.685 77.0361 144.061 76.9336 144.416 76.7285C144.771 76.5234 145.029 76.2568 145.188 75.9287V74.4111H144.197C142.648 74.4111 141.873 74.8646 141.873 75.7715C141.873 76.168 142.005 76.4779 142.27 76.7012C142.534 76.9245 142.873 77.0361 143.288 77.0361ZM148.552 78V70.6035H151.437C152.421 70.6035 153.175 70.7767 153.699 71.123C154.228 71.4648 154.492 71.9684 154.492 72.6338C154.492 72.9756 154.39 73.2855 154.185 73.5635C153.979 73.8369 153.676 74.0465 153.275 74.1924C153.722 74.2972 154.08 74.5023 154.349 74.8076C154.622 75.113 154.759 75.4775 154.759 75.9014C154.759 76.5804 154.508 77.0999 154.007 77.46C153.51 77.82 152.806 78 151.895 78H148.552ZM149.816 74.7529V76.9814H151.908C152.437 76.9814 152.831 76.8835 153.091 76.6875C153.355 76.4915 153.487 76.2158 153.487 75.8604C153.487 75.1221 152.945 74.7529 151.86 74.7529H149.816ZM149.816 73.7412H151.45C152.635 73.7412 153.228 73.3949 153.228 72.7021C153.228 72.0094 152.667 71.6517 151.546 71.6289H149.816V73.7412ZM161.848 71.6289H159.366V78H158.102V71.6289H155.668V70.6035H161.848V71.6289ZM162.456 74.2334C162.456 73.5088 162.597 72.8571 162.88 72.2783C163.167 71.6995 163.563 71.2529 164.069 70.9385C164.58 70.624 165.161 70.4668 165.812 70.4668C166.82 70.4668 167.633 70.8154 168.253 71.5127C168.877 72.21 169.189 73.1374 169.189 74.2949V74.3838C169.189 75.1038 169.05 75.751 168.772 76.3252C168.499 76.8949 168.105 77.3392 167.59 77.6582C167.079 77.9772 166.492 78.1367 165.826 78.1367C164.824 78.1367 164.01 77.7881 163.386 77.0908C162.766 76.3936 162.456 75.4707 162.456 74.3223V74.2334ZM163.728 74.3838C163.728 75.2041 163.917 75.8626 164.295 76.3594C164.678 76.8561 165.188 77.1045 165.826 77.1045C166.469 77.1045 166.979 76.8538 167.357 76.3525C167.736 75.8467 167.925 75.1403 167.925 74.2334C167.925 73.4222 167.731 72.766 167.344 72.2646C166.961 71.7588 166.451 71.5059 165.812 71.5059C165.188 71.5059 164.685 71.7542 164.302 72.251C163.919 72.7477 163.728 73.4587 163.728 74.3838ZM175.034 76.3252L177.55 70.6035H179.129V78H177.864V72.6201L175.472 78H174.597L172.156 72.5039V78H170.892V70.6035H172.532L175.034 76.3252ZM180.831 74.2334C180.831 73.5088 180.972 72.8571 181.255 72.2783C181.542 71.6995 181.938 71.2529 182.444 70.9385C182.955 70.624 183.536 70.4668 184.188 70.4668C185.195 70.4668 186.008 70.8154 186.628 71.5127C187.252 72.21 187.564 73.1374 187.564 74.2949V74.3838C187.564 75.1038 187.425 75.751 187.147 76.3252C186.874 76.8949 186.48 77.3392 185.965 77.6582C185.454 77.9772 184.867 78.1367 184.201 78.1367C183.199 78.1367 182.385 77.7881 181.761 77.0908C181.141 76.3936 180.831 75.4707 180.831 74.3223V74.2334ZM182.103 74.3838C182.103 75.2041 182.292 75.8626 182.67 76.3594C183.053 76.8561 183.563 77.1045 184.201 77.1045C184.844 77.1045 185.354 76.8538 185.732 76.3525C186.111 75.8467 186.3 75.1403 186.3 74.2334C186.3 73.4222 186.106 72.766 185.719 72.2646C185.336 71.7588 184.826 71.5059 184.188 71.5059C183.563 71.5059 183.06 71.7542 182.677 72.251C182.294 72.7477 182.103 73.4587 182.103 74.3838ZM192.397 71.0273C193.327 71.0273 194.07 71.3395 194.626 71.9639C195.187 72.5837 195.467 73.4017 195.467 74.418V74.5342C195.467 75.2314 195.332 75.8558 195.063 76.4072C194.795 76.9541 194.407 77.3802 193.901 77.6855C193.4 77.9863 192.821 78.1367 192.165 78.1367C191.172 78.1367 190.372 77.8063 189.766 77.1455C189.16 76.4801 188.856 75.5892 188.856 74.4727V73.8574C188.856 72.3034 189.144 71.0684 189.718 70.1523C190.297 69.2363 191.149 68.6781 192.274 68.4775C192.912 68.3636 193.343 68.2246 193.566 68.0605C193.79 67.8965 193.901 67.6709 193.901 67.3838H194.94C194.94 67.9535 194.811 68.3978 194.551 68.7168C194.296 69.0358 193.885 69.2614 193.32 69.3936L192.377 69.6055C191.625 69.7832 191.06 70.084 190.682 70.5078C190.308 70.9271 190.064 71.4876 189.95 72.1895C190.62 71.4147 191.436 71.0273 192.397 71.0273ZM192.151 72.0664C191.532 72.0664 191.039 72.276 190.675 72.6953C190.31 73.11 190.128 73.6865 190.128 74.4248V74.5342C190.128 75.3271 190.31 75.9561 190.675 76.4209C191.044 76.8812 191.541 77.1113 192.165 77.1113C192.794 77.1113 193.291 76.8789 193.655 76.4141C194.02 75.9492 194.202 75.2702 194.202 74.377C194.202 73.6797 194.018 73.1214 193.648 72.7021C193.284 72.2783 192.785 72.0664 192.151 72.0664ZM201.551 70.6035H202.815V78H201.551V72.6064L198.14 78H196.875V70.6035H198.14V76.0039L201.551 70.6035ZM210.909 70.6035V78H209.638V71.6494H207.122L206.972 74.418C206.89 75.6895 206.675 76.5986 206.329 77.1455C205.987 77.6924 205.443 77.9772 204.695 78H204.189V76.8857L204.552 76.8584C204.962 76.8128 205.256 76.5758 205.434 76.1475C205.611 75.7191 205.725 74.9261 205.775 73.7686L205.912 70.6035H210.909ZM217.725 70.6035H218.989V78H217.725V72.6064L214.313 78H213.049V70.6035H214.313V76.0039L217.725 70.6035Z" fill="#1B1B1B"/>
<path d="M50.1553 20V10.0469H53.4092C54.4893 10.0469 55.3005 10.2702 55.8428 10.7168C56.3896 11.1634 56.6631 11.8242 56.6631 12.6992C56.6631 13.1641 56.5309 13.5765 56.2666 13.9365C56.0023 14.292 55.6423 14.5677 55.1865 14.7637C55.7243 14.9141 56.1481 15.2012 56.458 15.625C56.7725 16.0443 56.9297 16.5456 56.9297 17.1289C56.9297 18.0221 56.6403 18.724 56.0615 19.2344C55.4827 19.7448 54.6647 20 53.6074 20H50.1553ZM51.4678 15.3447V18.9268H53.6348C54.2454 18.9268 54.7262 18.7695 55.0771 18.4551C55.4326 18.1361 55.6104 17.6986 55.6104 17.1426C55.6104 15.944 54.9587 15.3447 53.6553 15.3447H51.4678ZM51.4678 14.292H53.4502C54.0244 14.292 54.4824 14.1484 54.8242 13.8613C55.1706 13.5742 55.3438 13.1846 55.3438 12.6924C55.3438 12.1455 55.1842 11.749 54.8652 11.5029C54.5462 11.2523 54.0609 11.127 53.4092 11.127H51.4678V14.292ZM60.0605 15.1533H61.9814C62.82 15.1624 63.4831 15.3812 63.9707 15.8096C64.4583 16.238 64.7021 16.819 64.7021 17.5527C64.7021 18.291 64.4515 18.8835 63.9502 19.3301C63.4489 19.7767 62.7744 20 61.9268 20H58.7959V12.6035H60.0605V15.1533ZM67.3408 20H66.0693V12.6035H67.3408V20ZM60.0605 16.1855V18.9678H61.9404C62.4144 18.9678 62.7812 18.847 63.041 18.6055C63.3008 18.3594 63.4307 18.0244 63.4307 17.6006C63.4307 17.1904 63.3031 16.8555 63.0479 16.5957C62.7972 16.3314 62.444 16.1947 61.9883 16.1855H60.0605ZM75.9883 19.1045C76.4395 19.1045 76.8337 18.9678 77.1709 18.6943C77.5081 18.4209 77.695 18.0791 77.7314 17.6689H78.9277C78.9049 18.0928 78.7591 18.4961 78.4902 18.8789C78.2214 19.2617 77.8613 19.5671 77.4102 19.7949C76.9635 20.0228 76.4896 20.1367 75.9883 20.1367C74.9811 20.1367 74.179 19.8018 73.582 19.1318C72.9896 18.4574 72.6934 17.5368 72.6934 16.3701V16.1582C72.6934 15.4382 72.8255 14.7979 73.0898 14.2373C73.3542 13.6768 73.7324 13.2415 74.2246 12.9316C74.7214 12.6217 75.307 12.4668 75.9814 12.4668C76.8109 12.4668 77.499 12.7152 78.0459 13.2119C78.5973 13.7087 78.8913 14.3535 78.9277 15.1465H77.7314C77.695 14.668 77.5127 14.276 77.1846 13.9707C76.861 13.6608 76.46 13.5059 75.9814 13.5059C75.3389 13.5059 74.8398 13.7383 74.4844 14.2031C74.1335 14.6634 73.958 15.3311 73.958 16.2061V16.4453C73.958 17.2975 74.1335 17.9538 74.4844 18.4141C74.8353 18.8743 75.3366 19.1045 75.9883 19.1045ZM84.916 20C84.8431 19.8542 84.7839 19.5944 84.7383 19.2207C84.1504 19.8314 83.4486 20.1367 82.6328 20.1367C81.9036 20.1367 81.3044 19.9316 80.835 19.5215C80.3701 19.1068 80.1377 18.5827 80.1377 17.9492C80.1377 17.179 80.4294 16.582 81.0127 16.1582C81.6006 15.7298 82.4255 15.5156 83.4873 15.5156H84.7178V14.9346C84.7178 14.4925 84.5856 14.1416 84.3213 13.8818C84.057 13.6175 83.6673 13.4854 83.1523 13.4854C82.7012 13.4854 82.3229 13.5993 82.0176 13.8271C81.7122 14.055 81.5596 14.3307 81.5596 14.6543H80.2881C80.2881 14.2852 80.418 13.9297 80.6777 13.5879C80.9421 13.2415 81.2975 12.9681 81.7441 12.7676C82.1953 12.5671 82.6898 12.4668 83.2275 12.4668C84.0798 12.4668 84.7474 12.681 85.2305 13.1094C85.7135 13.5332 85.9642 14.1188 85.9824 14.8662V18.2705C85.9824 18.9495 86.069 19.4896 86.2422 19.8906V20H84.916ZM82.8174 19.0361C83.2139 19.0361 83.5898 18.9336 83.9453 18.7285C84.3008 18.5234 84.5583 18.2568 84.7178 17.9287V16.4111H83.7266C82.1771 16.4111 81.4023 16.8646 81.4023 17.7715C81.4023 18.168 81.5345 18.4779 81.7988 18.7012C82.0632 18.9245 82.4027 19.0361 82.8174 19.0361ZM92.2236 18.3252L94.7393 12.6035H96.3184V20H95.0537V14.6201L92.6611 20H91.7861L89.3457 14.5039V20H88.0811V12.6035H89.7217L92.2236 18.3252ZM103.141 12.6035H104.405V20H103.141V14.6064L99.7295 20H98.4648V12.6035H99.7295V18.0039L103.141 12.6035ZM112.328 18.1475L114.051 12.6035H115.404L112.431 21.1416C111.97 22.3721 111.239 22.9873 110.236 22.9873L109.997 22.9668L109.525 22.8779V21.8525L109.867 21.8799C110.296 21.8799 110.628 21.7933 110.865 21.6201C111.107 21.4469 111.305 21.1302 111.46 20.6699L111.74 19.918L109.102 12.6035H110.482L112.328 18.1475ZM118.843 16.8486H117.92V20H116.648V12.6035H117.92V15.7344H118.747L121.235 12.6035H122.767L119.841 16.1582L123.013 20H121.406L118.843 16.8486ZM128.666 20C128.593 19.8542 128.534 19.5944 128.488 19.2207C127.9 19.8314 127.199 20.1367 126.383 20.1367C125.654 20.1367 125.054 19.9316 124.585 19.5215C124.12 19.1068 123.888 18.5827 123.888 17.9492C123.888 17.179 124.179 16.582 124.763 16.1582C125.351 15.7298 126.175 15.5156 127.237 15.5156H128.468V14.9346C128.468 14.4925 128.336 14.1416 128.071 13.8818C127.807 13.6175 127.417 13.4854 126.902 13.4854C126.451 13.4854 126.073 13.5993 125.768 13.8271C125.462 14.055 125.31 14.3307 125.31 14.6543H124.038C124.038 14.2852 124.168 13.9297 124.428 13.5879C124.692 13.2415 125.048 12.9681 125.494 12.7676C125.945 12.5671 126.44 12.4668 126.978 12.4668C127.83 12.4668 128.497 12.681 128.98 13.1094C129.464 13.5332 129.714 14.1188 129.732 14.8662V18.2705C129.732 18.9495 129.819 19.4896 129.992 19.8906V20H128.666ZM126.567 19.0361C126.964 19.0361 127.34 18.9336 127.695 18.7285C128.051 18.5234 128.308 18.2568 128.468 17.9287V16.4111H127.477C125.927 16.4111 125.152 16.8646 125.152 17.7715C125.152 18.168 125.285 18.4779 125.549 18.7012C125.813 18.9245 126.153 19.0361 126.567 19.0361ZM135.782 14.627C135.782 14.2806 135.65 14.0072 135.386 13.8066C135.121 13.6016 134.759 13.499 134.299 13.499C133.852 13.499 133.479 13.6152 133.178 13.8477C132.882 14.0801 132.733 14.3535 132.733 14.668H131.476C131.476 14.0254 131.744 13.499 132.282 13.0889C132.82 12.6787 133.492 12.4736 134.299 12.4736C135.165 12.4736 135.839 12.6605 136.322 13.0342C136.805 13.4033 137.047 13.932 137.047 14.6201C137.047 14.9528 136.947 15.2581 136.746 15.5361C136.546 15.8141 136.261 16.0352 135.892 16.1992C136.753 16.4909 137.184 17.0651 137.184 17.9219C137.184 18.6009 136.922 19.1387 136.397 19.5352C135.873 19.9316 135.174 20.1299 134.299 20.1299C133.447 20.1299 132.743 19.9225 132.187 19.5078C131.635 19.0885 131.359 18.5234 131.359 17.8125H132.617C132.617 18.1725 132.777 18.4824 133.096 18.7422C133.419 18.9974 133.82 19.125 134.299 19.125C134.782 19.125 135.172 19.0133 135.468 18.79C135.764 18.5667 135.912 18.2773 135.912 17.9219C135.912 17.5072 135.787 17.2109 135.536 17.0332C135.29 16.8509 134.905 16.7598 134.381 16.7598H133.116V15.6934H134.49C135.352 15.6706 135.782 15.3151 135.782 14.627ZM140.205 15.1533H142.126C142.965 15.1624 143.628 15.3812 144.115 15.8096C144.603 16.238 144.847 16.819 144.847 17.5527C144.847 18.291 144.596 18.8835 144.095 19.3301C143.593 19.7767 142.919 20 142.071 20H138.94V12.6035H140.205V15.1533ZM147.485 20H146.214V12.6035H147.485V20ZM140.205 16.1855V18.9678H142.085C142.559 18.9678 142.926 18.847 143.186 18.6055C143.445 18.3594 143.575 18.0244 143.575 17.6006C143.575 17.1904 143.448 16.8555 143.192 16.5957C142.942 16.3314 142.589 16.1947 142.133 16.1855H140.205ZM149.81 20V12.6035H152.694C153.679 12.6035 154.433 12.7767 154.957 13.123C155.486 13.4648 155.75 13.9684 155.75 14.6338C155.75 14.9756 155.647 15.2855 155.442 15.5635C155.237 15.8369 154.934 16.0465 154.533 16.1924C154.98 16.2972 155.338 16.5023 155.606 16.8076C155.88 17.113 156.017 17.4775 156.017 17.9014C156.017 18.5804 155.766 19.0999 155.265 19.46C154.768 19.82 154.064 20 153.152 20H149.81ZM151.074 16.7529V18.9814H153.166C153.695 18.9814 154.089 18.8835 154.349 18.6875C154.613 18.4915 154.745 18.2158 154.745 17.8604C154.745 17.1221 154.203 16.7529 153.118 16.7529H151.074ZM151.074 15.7412H152.708C153.893 15.7412 154.485 15.3949 154.485 14.7021C154.485 14.0094 153.925 13.6517 152.804 13.6289H151.074V15.7412ZM162.258 20C162.185 19.8542 162.126 19.5944 162.08 19.2207C161.492 19.8314 160.79 20.1367 159.975 20.1367C159.245 20.1367 158.646 19.9316 158.177 19.5215C157.712 19.1068 157.479 18.5827 157.479 17.9492C157.479 17.179 157.771 16.582 158.354 16.1582C158.942 15.7298 159.767 15.5156 160.829 15.5156H162.06V14.9346C162.06 14.4925 161.927 14.1416 161.663 13.8818C161.399 13.6175 161.009 13.4854 160.494 13.4854C160.043 13.4854 159.665 13.5993 159.359 13.8271C159.054 14.055 158.901 14.3307 158.901 14.6543H157.63C157.63 14.2852 157.76 13.9297 158.02 13.5879C158.284 13.2415 158.639 12.9681 159.086 12.7676C159.537 12.5671 160.032 12.4668 160.569 12.4668C161.422 12.4668 162.089 12.681 162.572 13.1094C163.055 13.5332 163.306 14.1188 163.324 14.8662V18.2705C163.324 18.9495 163.411 19.4896 163.584 19.8906V20H162.258ZM160.159 19.0361C160.556 19.0361 160.932 18.9336 161.287 18.7285C161.643 18.5234 161.9 18.2568 162.06 17.9287V16.4111H161.068C159.519 16.4111 158.744 16.8646 158.744 17.7715C158.744 18.168 158.876 18.4779 159.141 18.7012C159.405 18.9245 159.744 19.0361 160.159 19.0361ZM168.376 20.1367C167.373 20.1367 166.558 19.8086 165.929 19.1523C165.3 18.4915 164.985 17.6097 164.985 16.5068V16.2744C164.985 15.5407 165.124 14.8867 165.402 14.3125C165.685 13.7337 166.077 13.2826 166.578 12.959C167.084 12.6309 167.631 12.4668 168.219 12.4668C169.18 12.4668 169.928 12.7835 170.461 13.417C170.994 14.0505 171.261 14.9574 171.261 16.1377V16.6641H166.25C166.268 17.3932 166.48 17.9834 166.886 18.4346C167.296 18.8812 167.815 19.1045 168.444 19.1045C168.891 19.1045 169.269 19.0133 169.579 18.8311C169.889 18.6488 170.16 18.4072 170.393 18.1064L171.165 18.708C170.545 19.6605 169.616 20.1367 168.376 20.1367ZM168.219 13.5059C167.708 13.5059 167.28 13.6927 166.934 14.0664C166.587 14.4355 166.373 14.9551 166.291 15.625H169.996V15.5293C169.96 14.8867 169.786 14.39 169.477 14.0391C169.167 13.6836 168.747 13.5059 168.219 13.5059ZM178.145 13.6289H175.663V20H174.398V13.6289H171.965V12.6035H178.145V13.6289ZM181.897 20.1367C180.895 20.1367 180.079 19.8086 179.45 19.1523C178.821 18.4915 178.507 17.6097 178.507 16.5068V16.2744C178.507 15.5407 178.646 14.8867 178.924 14.3125C179.206 13.7337 179.598 13.2826 180.1 12.959C180.605 12.6309 181.152 12.4668 181.74 12.4668C182.702 12.4668 183.449 12.7835 183.982 13.417C184.516 14.0505 184.782 14.9574 184.782 16.1377V16.6641H179.771C179.79 17.3932 180.002 17.9834 180.407 18.4346C180.817 18.8812 181.337 19.1045 181.966 19.1045C182.412 19.1045 182.791 19.0133 183.101 18.8311C183.41 18.6488 183.682 18.4072 183.914 18.1064L184.687 18.708C184.067 19.6605 183.137 20.1367 181.897 20.1367ZM181.74 13.5059C181.23 13.5059 180.801 13.6927 180.455 14.0664C180.109 14.4355 179.895 14.9551 179.812 15.625H183.518V15.5293C183.481 14.8867 183.308 14.39 182.998 14.0391C182.688 13.6836 182.269 13.5059 181.74 13.5059ZM189.834 12.6035H191.105V18.9678H194.51V12.6035H195.774V18.9678H196.656L196.533 22.1943H195.398V20H189.834V12.6035ZM201.093 20.1367C200.09 20.1367 199.274 19.8086 198.646 19.1523C198.017 18.4915 197.702 17.6097 197.702 16.5068V16.2744C197.702 15.5407 197.841 14.8867 198.119 14.3125C198.402 13.7337 198.794 13.2826 199.295 12.959C199.801 12.6309 200.348 12.4668 200.936 12.4668C201.897 12.4668 202.645 12.7835 203.178 13.417C203.711 14.0505 203.978 14.9574 203.978 16.1377V16.6641H198.967C198.985 17.3932 199.197 17.9834 199.603 18.4346C200.013 18.8812 200.532 19.1045 201.161 19.1045C201.608 19.1045 201.986 19.0133 202.296 18.8311C202.606 18.6488 202.877 18.4072 203.109 18.1064L203.882 18.708C203.262 19.6605 202.332 20.1367 201.093 20.1367ZM200.936 13.5059C200.425 13.5059 199.997 13.6927 199.65 14.0664C199.304 14.4355 199.09 14.9551 199.008 15.625H202.713V15.5293C202.676 14.8867 202.503 14.39 202.193 14.0391C201.883 13.6836 201.464 13.5059 200.936 13.5059ZM211.49 20H210.226V16.8418H206.828V20H205.557V12.6035H206.828V15.8096H210.226V12.6035H211.49V20ZM215.947 18.1475L217.67 12.6035H219.023L216.05 21.1416C215.59 22.3721 214.858 22.9873 213.855 22.9873L213.616 22.9668L213.145 22.8779V21.8525L213.486 21.8799C213.915 21.8799 214.247 21.7933 214.484 21.6201C214.726 21.4469 214.924 21.1302 215.079 20.6699L215.359 19.918L212.721 12.6035H214.102L215.947 18.1475Z" fill="#1B1B1B"/>
<path d="M57.8047 136H56.4854V131.399H51.4678V136H50.1553V126.047H51.4678V130.326H56.4854V126.047H57.8047V136ZM64.5039 136C64.431 135.854 64.3717 135.594 64.3262 135.221C63.7383 135.831 63.0365 136.137 62.2207 136.137C61.4915 136.137 60.8923 135.932 60.4229 135.521C59.958 135.107 59.7256 134.583 59.7256 133.949C59.7256 133.179 60.0173 132.582 60.6006 132.158C61.1885 131.73 62.0133 131.516 63.0752 131.516H64.3057V130.935C64.3057 130.493 64.1735 130.142 63.9092 129.882C63.6449 129.618 63.2552 129.485 62.7402 129.485C62.2891 129.485 61.9108 129.599 61.6055 129.827C61.3001 130.055 61.1475 130.331 61.1475 130.654H59.876C59.876 130.285 60.0059 129.93 60.2656 129.588C60.5299 129.242 60.8854 128.968 61.332 128.768C61.7832 128.567 62.2777 128.467 62.8154 128.467C63.6676 128.467 64.3353 128.681 64.8184 129.109C65.3014 129.533 65.5521 130.119 65.5703 130.866V134.271C65.5703 134.95 65.6569 135.49 65.8301 135.891V136H64.5039ZM62.4053 135.036C62.8018 135.036 63.1777 134.934 63.5332 134.729C63.8887 134.523 64.1462 134.257 64.3057 133.929V132.411H63.3145C61.765 132.411 60.9902 132.865 60.9902 133.771C60.9902 134.168 61.1224 134.478 61.3867 134.701C61.651 134.924 61.9906 135.036 62.4053 135.036ZM68.9336 128.604V134.968H71.6406V128.604H72.9053V134.968H75.6055V128.604H76.877V136H67.6621V128.604H68.9336ZM83.4395 136C83.3665 135.854 83.3073 135.594 83.2617 135.221C82.6738 135.831 81.972 136.137 81.1562 136.137C80.4271 136.137 79.8278 135.932 79.3584 135.521C78.8936 135.107 78.6611 134.583 78.6611 133.949C78.6611 133.179 78.9528 132.582 79.5361 132.158C80.124 131.73 80.9489 131.516 82.0107 131.516H83.2412V130.935C83.2412 130.493 83.109 130.142 82.8447 129.882C82.5804 129.618 82.1908 129.485 81.6758 129.485C81.2246 129.485 80.8464 129.599 80.541 129.827C80.2357 130.055 80.083 130.331 80.083 130.654H78.8115C78.8115 130.285 78.9414 129.93 79.2012 129.588C79.4655 129.242 79.821 128.968 80.2676 128.768C80.7188 128.567 81.2132 128.467 81.751 128.467C82.6032 128.467 83.2708 128.681 83.7539 129.109C84.237 129.533 84.4876 130.119 84.5059 130.866V134.271C84.5059 134.95 84.5924 135.49 84.7656 135.891V136H83.4395ZM81.3408 135.036C81.7373 135.036 82.1133 134.934 82.4688 134.729C82.8242 134.523 83.0817 134.257 83.2412 133.929V132.411H82.25C80.7005 132.411 79.9258 132.865 79.9258 133.771C79.9258 134.168 80.0579 134.478 80.3223 134.701C80.5866 134.924 80.9261 135.036 81.3408 135.036ZM92.2646 132.849H91.3418V136H90.0703V128.604H91.3418V131.734H92.1689L94.6572 128.604H96.1885L93.2627 132.158L96.4346 136H94.8281L92.2646 132.849ZM97.0361 132.233C97.0361 131.509 97.1774 130.857 97.46 130.278C97.7471 129.7 98.1436 129.253 98.6494 128.938C99.1598 128.624 99.7409 128.467 100.393 128.467C101.4 128.467 102.213 128.815 102.833 129.513C103.457 130.21 103.77 131.137 103.77 132.295V132.384C103.77 133.104 103.631 133.751 103.353 134.325C103.079 134.895 102.685 135.339 102.17 135.658C101.66 135.977 101.072 136.137 100.406 136.137C99.4036 136.137 98.5902 135.788 97.9658 135.091C97.346 134.394 97.0361 133.471 97.0361 132.322V132.233ZM98.3076 132.384C98.3076 133.204 98.4967 133.863 98.875 134.359C99.2578 134.856 99.7682 135.104 100.406 135.104C101.049 135.104 101.559 134.854 101.938 134.353C102.316 133.847 102.505 133.14 102.505 132.233C102.505 131.422 102.311 130.766 101.924 130.265C101.541 129.759 101.031 129.506 100.393 129.506C99.7682 129.506 99.2646 129.754 98.8818 130.251C98.499 130.748 98.3076 131.459 98.3076 132.384ZM109.614 134.325L112.13 128.604H113.709V136H112.444V130.62L110.052 136H109.177L106.736 130.504V136H105.472V128.604H107.112L109.614 134.325ZM120.531 128.604H121.796V136H120.531V130.606L117.12 136H115.855V128.604H117.12V134.004L120.531 128.604ZM126.793 135.104C127.244 135.104 127.638 134.968 127.976 134.694C128.313 134.421 128.5 134.079 128.536 133.669H129.732C129.71 134.093 129.564 134.496 129.295 134.879C129.026 135.262 128.666 135.567 128.215 135.795C127.768 136.023 127.294 136.137 126.793 136.137C125.786 136.137 124.984 135.802 124.387 135.132C123.794 134.457 123.498 133.537 123.498 132.37V132.158C123.498 131.438 123.63 130.798 123.895 130.237C124.159 129.677 124.537 129.242 125.029 128.932C125.526 128.622 126.112 128.467 126.786 128.467C127.616 128.467 128.304 128.715 128.851 129.212C129.402 129.709 129.696 130.354 129.732 131.146H128.536C128.5 130.668 128.317 130.276 127.989 129.971C127.666 129.661 127.265 129.506 126.786 129.506C126.144 129.506 125.645 129.738 125.289 130.203C124.938 130.663 124.763 131.331 124.763 132.206V132.445C124.763 133.298 124.938 133.954 125.289 134.414C125.64 134.874 126.141 135.104 126.793 135.104ZM134.121 135.104C134.572 135.104 134.966 134.968 135.304 134.694C135.641 134.421 135.828 134.079 135.864 133.669H137.061C137.038 134.093 136.892 134.496 136.623 134.879C136.354 135.262 135.994 135.567 135.543 135.795C135.096 136.023 134.622 136.137 134.121 136.137C133.114 136.137 132.312 135.802 131.715 135.132C131.122 134.457 130.826 133.537 130.826 132.37V132.158C130.826 131.438 130.958 130.798 131.223 130.237C131.487 129.677 131.865 129.242 132.357 128.932C132.854 128.622 133.44 128.467 134.114 128.467C134.944 128.467 135.632 128.715 136.179 129.212C136.73 129.709 137.024 130.354 137.061 131.146H135.864C135.828 130.668 135.646 130.276 135.317 129.971C134.994 129.661 134.593 129.506 134.114 129.506C133.472 129.506 132.973 129.738 132.617 130.203C132.266 130.663 132.091 131.331 132.091 132.206V132.445C132.091 133.298 132.266 133.954 132.617 134.414C132.968 134.874 133.469 135.104 134.121 135.104ZM143.268 128.604H144.532V136H143.268V130.606L139.856 136H138.592V128.604H139.856V134.004L143.268 128.604ZM152.216 128.604V136H150.944V133.122H149.037L147.294 136H145.927L147.786 132.931C147.312 132.757 146.948 132.491 146.692 132.131C146.442 131.766 146.316 131.342 146.316 130.859C146.316 130.185 146.569 129.643 147.075 129.232C147.581 128.818 148.258 128.608 149.105 128.604H152.216ZM147.588 130.873C147.588 131.233 147.711 131.525 147.957 131.748C148.203 131.967 148.529 132.078 148.935 132.083H150.944V129.629H149.126C148.657 129.629 148.283 129.745 148.005 129.978C147.727 130.205 147.588 130.504 147.588 130.873ZM157.835 136V128.604H160.72C161.704 128.604 162.458 128.777 162.982 129.123C163.511 129.465 163.775 129.968 163.775 130.634C163.775 130.976 163.673 131.285 163.468 131.563C163.263 131.837 162.96 132.047 162.559 132.192C163.005 132.297 163.363 132.502 163.632 132.808C163.905 133.113 164.042 133.478 164.042 133.901C164.042 134.58 163.791 135.1 163.29 135.46C162.793 135.82 162.089 136 161.178 136H157.835ZM159.1 132.753V134.981H161.191C161.72 134.981 162.114 134.883 162.374 134.688C162.638 134.492 162.771 134.216 162.771 133.86C162.771 133.122 162.228 132.753 161.144 132.753H159.1ZM159.1 131.741H160.733C161.918 131.741 162.511 131.395 162.511 130.702C162.511 130.009 161.95 129.652 160.829 129.629H159.1V131.741ZM168.684 135.104C169.135 135.104 169.529 134.968 169.866 134.694C170.203 134.421 170.39 134.079 170.427 133.669H171.623C171.6 134.093 171.454 134.496 171.186 134.879C170.917 135.262 170.557 135.567 170.105 135.795C169.659 136.023 169.185 136.137 168.684 136.137C167.676 136.137 166.874 135.802 166.277 135.132C165.685 134.457 165.389 133.537 165.389 132.37V132.158C165.389 131.438 165.521 130.798 165.785 130.237C166.049 129.677 166.428 129.242 166.92 128.932C167.417 128.622 168.002 128.467 168.677 128.467C169.506 128.467 170.194 128.715 170.741 129.212C171.293 129.709 171.587 130.354 171.623 131.146H170.427C170.39 130.668 170.208 130.276 169.88 129.971C169.556 129.661 169.155 129.506 168.677 129.506C168.034 129.506 167.535 129.738 167.18 130.203C166.829 130.663 166.653 131.331 166.653 132.206V132.445C166.653 133.298 166.829 133.954 167.18 134.414C167.531 134.874 168.032 135.104 168.684 135.104ZM176.114 136.137C175.112 136.137 174.296 135.809 173.667 135.152C173.038 134.492 172.724 133.61 172.724 132.507V132.274C172.724 131.541 172.863 130.887 173.141 130.312C173.423 129.734 173.815 129.283 174.316 128.959C174.822 128.631 175.369 128.467 175.957 128.467C176.919 128.467 177.666 128.784 178.199 129.417C178.732 130.05 178.999 130.957 178.999 132.138V132.664H173.988C174.007 133.393 174.218 133.983 174.624 134.435C175.034 134.881 175.554 135.104 176.183 135.104C176.629 135.104 177.007 135.013 177.317 134.831C177.627 134.649 177.898 134.407 178.131 134.106L178.903 134.708C178.284 135.66 177.354 136.137 176.114 136.137ZM175.957 129.506C175.447 129.506 175.018 129.693 174.672 130.066C174.326 130.436 174.111 130.955 174.029 131.625H177.734V131.529C177.698 130.887 177.525 130.39 177.215 130.039C176.905 129.684 176.486 129.506 175.957 129.506ZM185.247 129.649H181.836V136H180.564V128.604H185.247V129.649ZM185.876 132.233C185.876 131.509 186.017 130.857 186.3 130.278C186.587 129.7 186.983 129.253 187.489 128.938C188 128.624 188.581 128.467 189.232 128.467C190.24 128.467 191.053 128.815 191.673 129.513C192.297 130.21 192.609 131.137 192.609 132.295V132.384C192.609 133.104 192.47 133.751 192.192 134.325C191.919 134.895 191.525 135.339 191.01 135.658C190.499 135.977 189.911 136.137 189.246 136.137C188.243 136.137 187.43 135.788 186.806 135.091C186.186 134.394 185.876 133.471 185.876 132.322V132.233ZM187.147 132.384C187.147 133.204 187.337 133.863 187.715 134.359C188.098 134.856 188.608 135.104 189.246 135.104C189.889 135.104 190.399 134.854 190.777 134.353C191.156 133.847 191.345 133.14 191.345 132.233C191.345 131.422 191.151 130.766 190.764 130.265C190.381 129.759 189.87 129.506 189.232 129.506C188.608 129.506 188.104 129.754 187.722 130.251C187.339 130.748 187.147 131.459 187.147 132.384ZM199.377 130.408H200.327C200.924 130.399 201.394 130.242 201.735 129.937C202.077 129.631 202.248 129.219 202.248 128.699C202.248 127.533 201.667 126.949 200.505 126.949C199.958 126.949 199.521 127.106 199.192 127.421C198.869 127.731 198.707 128.143 198.707 128.658H197.442C197.442 127.87 197.729 127.216 198.304 126.696C198.882 126.172 199.616 125.91 200.505 125.91C201.444 125.91 202.18 126.159 202.713 126.655C203.246 127.152 203.513 127.842 203.513 128.727C203.513 129.16 203.371 129.579 203.089 129.984C202.811 130.39 202.43 130.693 201.947 130.894C202.494 131.067 202.916 131.354 203.212 131.755C203.513 132.156 203.663 132.646 203.663 133.225C203.663 134.118 203.371 134.826 202.788 135.351C202.205 135.875 201.446 136.137 200.512 136.137C199.577 136.137 198.816 135.884 198.229 135.378C197.645 134.872 197.354 134.204 197.354 133.375H198.625C198.625 133.899 198.796 134.318 199.138 134.633C199.479 134.947 199.938 135.104 200.512 135.104C201.122 135.104 201.59 134.945 201.913 134.626C202.237 134.307 202.398 133.849 202.398 133.252C202.398 132.673 202.221 132.229 201.865 131.919C201.51 131.609 200.997 131.45 200.327 131.44H199.377V130.408ZM205.29 127.961C205.29 127.364 205.479 126.872 205.857 126.484C206.24 126.097 206.73 125.903 207.327 125.903C207.933 125.903 208.423 126.099 208.797 126.491C209.175 126.879 209.364 127.382 209.364 128.002V128.487C209.364 129.089 209.173 129.581 208.79 129.964C208.412 130.342 207.929 130.531 207.341 130.531C206.748 130.531 206.258 130.342 205.871 129.964C205.484 129.581 205.29 129.073 205.29 128.439V127.961ZM206.233 128.487C206.233 128.843 206.334 129.137 206.534 129.369C206.735 129.597 207.004 129.711 207.341 129.711C207.664 129.711 207.924 129.599 208.12 129.376C208.321 129.153 208.421 128.847 208.421 128.46V127.961C208.421 127.605 208.323 127.312 208.127 127.079C207.931 126.847 207.664 126.73 207.327 126.73C206.99 126.73 206.723 126.847 206.527 127.079C206.331 127.312 206.233 127.615 206.233 127.988V128.487ZM210.137 133.56C210.137 132.963 210.326 132.473 210.704 132.09C211.087 131.702 211.577 131.509 212.174 131.509C212.771 131.509 213.261 131.7 213.644 132.083C214.026 132.466 214.218 132.974 214.218 133.607V134.093C214.218 134.69 214.026 135.182 213.644 135.569C213.265 135.952 212.78 136.144 212.188 136.144C211.595 136.144 211.105 135.954 210.718 135.576C210.33 135.193 210.137 134.685 210.137 134.052V133.56ZM211.08 134.093C211.08 134.453 211.18 134.749 211.381 134.981C211.581 135.209 211.85 135.323 212.188 135.323C212.516 135.323 212.778 135.212 212.974 134.988C213.17 134.76 213.268 134.453 213.268 134.065V133.56C213.268 133.2 213.167 132.906 212.967 132.678C212.771 132.45 212.507 132.336 212.174 132.336C211.85 132.336 211.586 132.45 211.381 132.678C211.18 132.901 211.08 133.204 211.08 133.587V134.093ZM207.628 135.248L206.91 134.797L211.771 127.018L212.488 127.469L207.628 135.248Z" fill="#1B1B1B"/>
<circle cx="16" cy="16" r="16" fill="#61A199"/>
<path d="M12.6668 13.6667C12.4016 13.6667 12.1473 13.5613 11.9597 13.3738C11.7722 13.1862 11.6668 12.9319 11.6668 12.6667C11.6668 12.4014 11.7722 12.1471 11.9597 11.9596C12.1473 11.772 12.4016 11.6667 12.6668 11.6667C12.932 11.6667 13.1864 11.772 13.3739 11.9596C13.5615 12.1471 13.6668 12.4014 13.6668 12.6667C13.6668 12.9319 13.5615 13.1862 13.3739 13.3738C13.1864 13.5613 12.932 13.6667 12.6668 13.6667ZM23.2735 16.72L17.2735 10.72C17.0335 10.48 16.7002 10.3333 16.3335 10.3333H11.6668C10.9268 10.3333 10.3335 10.9267 10.3335 11.6667V16.3333C10.3335 16.7 10.4802 17.0333 10.7268 17.2733L16.7202 23.2733C16.9668 23.5133 17.3002 23.6667 17.6668 23.6667C18.0335 23.6667 18.3668 23.5133 18.6068 23.2733L23.2735 18.6067C23.5202 18.3667 23.6668 18.0333 23.6668 17.6667C23.6668 17.2933 23.5135 16.96 23.2735 16.72Z" fill="white"/>
<circle cx="16" cy="74" r="16" fill="#61A199"/>
<path d="M12.25 76.25H13.75C13.75 77.06 14.7775 77.75 16 77.75C17.2225 77.75 18.25 77.06 18.25 76.25C18.25 75.425 17.47 75.125 15.82 74.7275C14.23 74.33 12.25 73.835 12.25 71.75C12.25 70.4075 13.3525 69.2675 14.875 68.885V67.25H17.125V68.885C18.6475 69.2675 19.75 70.4075 19.75 71.75H18.25C18.25 70.94 17.2225 70.25 16 70.25C14.7775 70.25 13.75 70.94 13.75 71.75C13.75 72.575 14.53 72.875 16.18 73.2725C17.77 73.67 19.75 74.165 19.75 76.25C19.75 77.5925 18.6475 78.7325 17.125 79.115V80.75H14.875V79.115C13.3525 78.7325 12.25 77.5925 12.25 76.25Z" fill="white"/>
<circle cx="16" cy="132" r="16" fill="#61A199"/>
<path d="M20.3335 126.333L10.3335 136.333L11.6668 137.667L21.6668 127.667L20.3335 126.333ZM12.6668 126.667C12.1364 126.667 11.6277 126.877 11.2526 127.252C10.8775 127.628 10.6668 128.136 10.6668 128.667C10.6668 129.197 10.8775 129.706 11.2526 130.081C11.6277 130.456 12.1364 130.667 12.6668 130.667C13.1973 130.667 13.706 130.456 14.081 130.081C14.4561 129.706 14.6668 129.197 14.6668 128.667C14.6668 128.136 14.4561 127.628 14.081 127.252C13.706 126.877 13.1973 126.667 12.6668 126.667ZM19.3335 133.333C18.8031 133.333 18.2944 133.544 17.9193 133.919C17.5442 134.294 17.3335 134.803 17.3335 135.333C17.3335 135.864 17.5442 136.372 17.9193 136.748C18.2944 137.123 18.8031 137.333 19.3335 137.333C19.8639 137.333 20.3726 137.123 20.7477 136.748C21.1228 136.372 21.3335 135.864 21.3335 135.333C21.3335 134.803 21.1228 134.294 20.7477 133.919C20.3726 133.544 19.8639 133.333 19.3335 133.333Z" fill="white"/>
<path d="M50.1553 194V184.047H53.4092C54.4893 184.047 55.3005 184.27 55.8428 184.717C56.3896 185.163 56.6631 185.824 56.6631 186.699C56.6631 187.164 56.5309 187.576 56.2666 187.937C56.0023 188.292 55.6423 188.568 55.1865 188.764C55.7243 188.914 56.1481 189.201 56.458 189.625C56.7725 190.044 56.9297 190.546 56.9297 191.129C56.9297 192.022 56.6403 192.724 56.0615 193.234C55.4827 193.745 54.6647 194 53.6074 194H50.1553ZM51.4678 189.345V192.927H53.6348C54.2454 192.927 54.7262 192.77 55.0771 192.455C55.4326 192.136 55.6104 191.699 55.6104 191.143C55.6104 189.944 54.9587 189.345 53.6553 189.345H51.4678ZM51.4678 188.292H53.4502C54.0244 188.292 54.4824 188.148 54.8242 187.861C55.1706 187.574 55.3438 187.185 55.3438 186.692C55.3438 186.146 55.1842 185.749 54.8652 185.503C54.5462 185.252 54.0609 185.127 53.4092 185.127H51.4678V188.292ZM60.0605 189.153H61.9814C62.82 189.162 63.4831 189.381 63.9707 189.81C64.4583 190.238 64.7021 190.819 64.7021 191.553C64.7021 192.291 64.4515 192.883 63.9502 193.33C63.4489 193.777 62.7744 194 61.9268 194H58.7959V186.604H60.0605V189.153ZM67.3408 194H66.0693V186.604H67.3408V194ZM60.0605 190.186V192.968H61.9404C62.4144 192.968 62.7812 192.847 63.041 192.605C63.3008 192.359 63.4307 192.024 63.4307 191.601C63.4307 191.19 63.3031 190.855 63.0479 190.596C62.7972 190.331 62.444 190.195 61.9883 190.186H60.0605ZM75.5986 194H74.334V187.649H70.9297V194H69.6582V186.604H75.5986V194ZM83.6924 186.604V194H82.4209V187.649H79.9053L79.7549 190.418C79.6729 191.689 79.4587 192.599 79.1123 193.146C78.7705 193.692 78.2259 193.977 77.4785 194H76.9727V192.886L77.335 192.858C77.7451 192.813 78.0391 192.576 78.2168 192.147C78.3945 191.719 78.5085 190.926 78.5586 189.769L78.6953 186.604H83.6924ZM90.2891 194C90.2161 193.854 90.1569 193.594 90.1113 193.221C89.5234 193.831 88.8216 194.137 88.0059 194.137C87.2767 194.137 86.6774 193.932 86.208 193.521C85.7432 193.107 85.5107 192.583 85.5107 191.949C85.5107 191.179 85.8024 190.582 86.3857 190.158C86.9736 189.73 87.7985 189.516 88.8604 189.516H90.0908V188.935C90.0908 188.493 89.9587 188.142 89.6943 187.882C89.43 187.618 89.0404 187.485 88.5254 187.485C88.0742 187.485 87.696 187.599 87.3906 187.827C87.0853 188.055 86.9326 188.331 86.9326 188.654H85.6611C85.6611 188.285 85.791 187.93 86.0508 187.588C86.3151 187.242 86.6706 186.968 87.1172 186.768C87.5684 186.567 88.0628 186.467 88.6006 186.467C89.4528 186.467 90.1204 186.681 90.6035 187.109C91.0866 187.533 91.3372 188.119 91.3555 188.866V192.271C91.3555 192.95 91.4421 193.49 91.6152 193.891V194H90.2891ZM88.1904 193.036C88.5869 193.036 88.9629 192.934 89.3184 192.729C89.6738 192.523 89.9313 192.257 90.0908 191.929V190.411H89.0996C87.5501 190.411 86.7754 190.865 86.7754 191.771C86.7754 192.168 86.9076 192.478 87.1719 192.701C87.4362 192.924 87.7757 193.036 88.1904 193.036ZM98.7246 187.629H96.2432V194H94.9785V187.629H92.5449V186.604H98.7246V187.629ZM101.336 189.153H103.257C104.095 189.162 104.758 189.381 105.246 189.81C105.734 190.238 105.978 190.819 105.978 191.553C105.978 192.291 105.727 192.883 105.226 193.33C104.724 193.777 104.05 194 103.202 194H100.071V186.604H101.336V189.153ZM108.616 194H107.345V186.604H108.616V194ZM101.336 190.186V192.968H103.216C103.69 192.968 104.057 192.847 104.316 192.605C104.576 192.359 104.706 192.024 104.706 191.601C104.706 191.19 104.578 190.855 104.323 190.596C104.073 190.331 103.719 190.195 103.264 190.186H101.336ZM116.601 190.849H115.678V194H114.406V186.604H115.678V189.734H116.505L118.993 186.604H120.524L117.599 190.158L120.771 194H119.164L116.601 190.849ZM126.424 194C126.351 193.854 126.292 193.594 126.246 193.221C125.658 193.831 124.956 194.137 124.141 194.137C123.411 194.137 122.812 193.932 122.343 193.521C121.878 193.107 121.646 192.583 121.646 191.949C121.646 191.179 121.937 190.582 122.521 190.158C123.108 189.73 123.933 189.516 124.995 189.516H126.226V188.935C126.226 188.493 126.093 188.142 125.829 187.882C125.565 187.618 125.175 187.485 124.66 187.485C124.209 187.485 123.831 187.599 123.525 187.827C123.22 188.055 123.067 188.331 123.067 188.654H121.796C121.796 188.285 121.926 187.93 122.186 187.588C122.45 187.242 122.805 186.968 123.252 186.768C123.703 186.567 124.198 186.467 124.735 186.467C125.588 186.467 126.255 186.681 126.738 187.109C127.221 187.533 127.472 188.119 127.49 188.866V192.271C127.49 192.95 127.577 193.49 127.75 193.891V194H126.424ZM124.325 193.036C124.722 193.036 125.098 192.934 125.453 192.729C125.809 192.523 126.066 192.257 126.226 191.929V190.411H125.234C123.685 190.411 122.91 190.865 122.91 191.771C122.91 192.168 123.042 192.478 123.307 192.701C123.571 192.924 123.91 193.036 124.325 193.036ZM135.372 190.787H134.483V194H133.219V190.787H132.33L130.259 194H128.659L131.305 190.172L128.912 186.604H130.443L132.351 189.666H133.219V186.604H134.483V189.666H135.345L137.266 186.604H138.797L136.397 190.179L139.043 194H137.443L135.372 190.787ZM140.13 192.968L140.567 192.428C141.06 191.79 141.34 190.833 141.408 189.557L141.524 186.604H146.289V192.968H147.239V196.174H145.975V194H140.813V196.174H139.549L139.556 192.968H140.13ZM141.627 192.968H145.024V187.772H142.748L142.673 189.536C142.595 191.008 142.247 192.152 141.627 192.968ZM151.061 192.147L152.783 186.604H154.137L151.163 195.142C150.703 196.372 149.971 196.987 148.969 196.987L148.729 196.967L148.258 196.878V195.853L148.6 195.88C149.028 195.88 149.361 195.793 149.598 195.62C149.839 195.447 150.037 195.13 150.192 194.67L150.473 193.918L147.834 186.604H149.215L151.061 192.147ZM156.652 189.741H158.43C158.525 188.757 158.874 187.966 159.476 187.369C160.082 186.768 160.845 186.467 161.766 186.467C162.732 186.467 163.522 186.793 164.138 187.444C164.753 188.096 165.086 188.944 165.136 189.987L165.143 190.384C165.143 191.104 165.001 191.753 164.719 192.332C164.436 192.911 164.04 193.357 163.529 193.672C163.019 193.982 162.436 194.137 161.779 194.137C160.827 194.137 160.048 193.827 159.441 193.207C158.835 192.583 158.496 191.774 158.423 190.78H156.652V194H155.388V186.604H156.652V189.741ZM159.674 190.384C159.674 191.204 159.863 191.863 160.241 192.359C160.624 192.856 161.137 193.104 161.779 193.104C162.422 193.104 162.93 192.852 163.304 192.346C163.682 191.84 163.871 191.136 163.871 190.233C163.871 189.427 163.68 188.771 163.297 188.265C162.914 187.759 162.404 187.506 161.766 187.506C161.137 187.506 160.631 187.754 160.248 188.251C159.865 188.748 159.674 189.459 159.674 190.384ZM176.217 194H174.952V190.842H171.555V194H170.283V186.604H171.555V189.81H174.952V186.604H176.217V194ZM181.323 194.137C180.321 194.137 179.505 193.809 178.876 193.152C178.247 192.492 177.933 191.61 177.933 190.507V190.274C177.933 189.541 178.072 188.887 178.35 188.312C178.632 187.734 179.024 187.283 179.525 186.959C180.031 186.631 180.578 186.467 181.166 186.467C182.128 186.467 182.875 186.784 183.408 187.417C183.941 188.05 184.208 188.957 184.208 190.138V190.664H179.197C179.215 191.393 179.427 191.983 179.833 192.435C180.243 192.881 180.763 193.104 181.392 193.104C181.838 193.104 182.216 193.013 182.526 192.831C182.836 192.649 183.107 192.407 183.34 192.106L184.112 192.708C183.493 193.66 182.563 194.137 181.323 194.137ZM181.166 187.506C180.656 187.506 180.227 187.693 179.881 188.066C179.535 188.436 179.32 188.955 179.238 189.625H182.943V189.529C182.907 188.887 182.734 188.39 182.424 188.039C182.114 187.684 181.695 187.506 181.166 187.506ZM185.616 192.968L186.054 192.428C186.546 191.79 186.826 190.833 186.895 189.557L187.011 186.604H191.775V192.968H192.726V196.174H191.461V194H186.3V196.174H185.035L185.042 192.968H185.616ZM187.113 192.968H190.511V187.772H188.234L188.159 189.536C188.082 191.008 187.733 192.152 187.113 192.968ZM197.196 194.137C196.194 194.137 195.378 193.809 194.749 193.152C194.12 192.492 193.806 191.61 193.806 190.507V190.274C193.806 189.541 193.945 188.887 194.223 188.312C194.505 187.734 194.897 187.283 195.398 186.959C195.904 186.631 196.451 186.467 197.039 186.467C198.001 186.467 198.748 186.784 199.281 187.417C199.814 188.05 200.081 188.957 200.081 190.138V190.664H195.07C195.089 191.393 195.3 191.983 195.706 192.435C196.116 192.881 196.636 193.104 197.265 193.104C197.711 193.104 198.09 193.013 198.399 192.831C198.709 192.649 198.98 192.407 199.213 192.106L199.985 192.708C199.366 193.66 198.436 194.137 197.196 194.137ZM197.039 187.506C196.529 187.506 196.1 187.693 195.754 188.066C195.408 188.436 195.193 188.955 195.111 189.625H198.816V189.529C198.78 188.887 198.607 188.39 198.297 188.039C197.987 187.684 197.568 187.506 197.039 187.506ZM207.614 186.604V194H206.343V187.649H203.827L203.677 190.418C203.595 191.689 203.381 192.599 203.034 193.146C202.692 193.692 202.148 193.977 201.4 194H200.895V192.886L201.257 192.858C201.667 192.813 201.961 192.576 202.139 192.147C202.316 191.719 202.43 190.926 202.48 189.769L202.617 186.604H207.614ZM211.025 189.741H212.803C212.898 188.757 213.247 187.966 213.849 187.369C214.455 186.768 215.218 186.467 216.139 186.467C217.105 186.467 217.896 186.793 218.511 187.444C219.126 188.096 219.459 188.944 219.509 189.987L219.516 190.384C219.516 191.104 219.374 191.753 219.092 192.332C218.809 192.911 218.413 193.357 217.902 193.672C217.392 193.982 216.809 194.137 216.152 194.137C215.2 194.137 214.421 193.827 213.814 193.207C213.208 192.583 212.869 191.774 212.796 190.78H211.025V194H209.761V186.604H211.025V189.741ZM214.047 190.384C214.047 191.204 214.236 191.863 214.614 192.359C214.997 192.856 215.51 193.104 216.152 193.104C216.795 193.104 217.303 192.852 217.677 192.346C218.055 191.84 218.244 191.136 218.244 190.233C218.244 189.427 218.053 188.771 217.67 188.265C217.287 187.759 216.777 187.506 216.139 187.506C215.51 187.506 215.004 187.754 214.621 188.251C214.238 188.748 214.047 189.459 214.047 190.384Z" fill="#1B1B1B"/>
<circle cx="16" cy="190" r="16" fill="#61A199"/>
<path d="M10.75 184.5H24.25V193.5H10.75V184.5ZM17.5 186.75C18.0967 186.75 18.669 186.987 19.091 187.409C19.5129 187.831 19.75 188.403 19.75 189C19.75 189.597 19.5129 190.169 19.091 190.591C18.669 191.013 18.0967 191.25 17.5 191.25C16.9033 191.25 16.331 191.013 15.909 190.591C15.4871 190.169 15.25 189.597 15.25 189C15.25 188.403 15.4871 187.831 15.909 187.409C16.331 186.987 16.9033 186.75 17.5 186.75ZM13.75 186C13.75 186.398 13.592 186.779 13.3107 187.061C13.0294 187.342 12.6478 187.5 12.25 187.5V190.5C12.6478 190.5 13.0294 190.658 13.3107 190.939C13.592 191.221 13.75 191.602 13.75 192H21.25C21.25 191.602 21.408 191.221 21.6893 190.939C21.9706 190.658 22.3522 190.5 22.75 190.5V187.5C22.3522 187.5 21.9706 187.342 21.6893 187.061C21.408 186.779 21.25 186.398 21.25 186H13.75ZM7.75 187.5H9.25V195H21.25V196.5H7.75V187.5Z" fill="white"/>
<rect x="15.25" y="35.25" width="0.5" height="19.5" stroke="#9D9AAC" stroke-width="0.5" stroke-dasharray="6 6"/>
<rect x="15.25" y="93.25" width="0.5" height="19.5" stroke="#9D9AAC" stroke-width="0.5" stroke-dasharray="6 6"/>
<rect x="15.25" y="151.25" width="0.5" height="19.5" stroke="#9D9AAC" stroke-width="0.5" stroke-dasharray="6 6"/>
</svg>
