<svg width="306" height="148" viewBox="0 0 306 148" fill="none" xmlns="http://www.w3.org/2000/svg">
<path d="M55.2617 70.7197C55.2617 70.1911 55.068 69.7718 54.6807 69.4619C54.2979 69.1475 53.7578 68.9902 53.0605 68.9902C52.4772 68.9902 51.9873 69.152 51.5908 69.4756C51.1989 69.7946 51.0029 70.1911 51.0029 70.665H49.6904C49.6904 70.1364 49.834 69.6624 50.1211 69.2432C50.4128 68.8239 50.8184 68.498 51.3379 68.2656C51.8574 68.0286 52.4316 67.9102 53.0605 67.9102C54.1725 67.9102 55.0361 68.1608 55.6514 68.6621C56.2666 69.1589 56.5742 69.8516 56.5742 70.7402C56.5742 71.2005 56.4329 71.6198 56.1504 71.998C55.8678 72.3763 55.4736 72.6748 54.9678 72.8936C56.139 73.2855 56.7246 74.0625 56.7246 75.2246C56.7246 76.1178 56.3919 76.8265 55.7266 77.3506C55.0612 77.8747 54.1725 78.1367 53.0605 78.1367C52.3997 78.1367 51.7982 78.0205 51.2559 77.7881C50.7181 77.5511 50.2988 77.2161 49.998 76.7832C49.6973 76.3503 49.5469 75.8353 49.5469 75.2383H50.8594C50.8594 75.7624 51.0667 76.1999 51.4814 76.5508C51.8962 76.8971 52.4225 77.0703 53.0605 77.0703C53.776 77.0703 54.3457 76.904 54.7695 76.5713C55.1979 76.2386 55.4121 75.7988 55.4121 75.252C55.4121 74.0853 54.6898 73.4906 53.2451 73.4678H52.0146V72.3877H53.2383C53.9036 72.374 54.4072 72.2236 54.749 71.9365C55.0908 71.6494 55.2617 71.2438 55.2617 70.7197ZM62.8359 78C62.763 77.8542 62.7038 77.5944 62.6582 77.2207C62.0703 77.8314 61.3685 78.1367 60.5527 78.1367C59.8236 78.1367 59.2243 77.9316 58.7549 77.5215C58.29 77.1068 58.0576 76.5827 58.0576 75.9492C58.0576 75.179 58.3493 74.582 58.9326 74.1582C59.5205 73.7298 60.3454 73.5156 61.4072 73.5156H62.6377V72.9346C62.6377 72.4925 62.5055 72.1416 62.2412 71.8818C61.9769 71.6175 61.5872 71.4854 61.0723 71.4854C60.6211 71.4854 60.2428 71.5993 59.9375 71.8271C59.6322 72.055 59.4795 72.3307 59.4795 72.6543H58.208C58.208 72.2852 58.3379 71.9297 58.5977 71.5879C58.862 71.2415 59.2174 70.9681 59.6641 70.7676C60.1152 70.5671 60.6097 70.4668 61.1475 70.4668C61.9997 70.4668 62.6673 70.681 63.1504 71.1094C63.6335 71.5332 63.8841 72.1188 63.9023 72.8662V76.2705C63.9023 76.9495 63.9889 77.4896 64.1621 77.8906V78H62.8359ZM60.7373 77.0361C61.1338 77.0361 61.5098 76.9336 61.8652 76.7285C62.2207 76.5234 62.4782 76.2568 62.6377 75.9287V74.4111H61.6465C60.097 74.4111 59.3223 74.8646 59.3223 75.7715C59.3223 76.168 59.4544 76.4779 59.7188 76.7012C59.9831 76.9245 60.3226 77.0361 60.7373 77.0361ZM69.1318 71.0273C70.0615 71.0273 70.8044 71.3395 71.3604 71.9639C71.9209 72.5837 72.2012 73.4017 72.2012 74.418V74.5342C72.2012 75.2314 72.0667 75.8558 71.7979 76.4072C71.529 76.9541 71.1416 77.3802 70.6357 77.6855C70.1344 77.9863 69.5557 78.1367 68.8994 78.1367C67.9059 78.1367 67.1061 77.8063 66.5 77.1455C65.8939 76.4801 65.5908 75.5892 65.5908 74.4727V73.8574C65.5908 72.3034 65.8779 71.0684 66.4521 70.1523C67.0309 69.2363 67.8831 68.6781 69.0088 68.4775C69.6468 68.3636 70.0775 68.2246 70.3008 68.0605C70.5241 67.8965 70.6357 67.6709 70.6357 67.3838H71.6748C71.6748 67.9535 71.5449 68.3978 71.2852 68.7168C71.0299 69.0358 70.6198 69.2614 70.0547 69.3936L69.1113 69.6055C68.3594 69.7832 67.7943 70.084 67.416 70.5078C67.0423 70.9271 66.7985 71.4876 66.6846 72.1895C67.3545 71.4147 68.1702 71.0273 69.1318 71.0273ZM68.8857 72.0664C68.266 72.0664 67.7738 72.276 67.4092 72.6953C67.0446 73.11 66.8623 73.6865 66.8623 74.4248V74.5342C66.8623 75.3271 67.0446 75.9561 67.4092 76.4209C67.7783 76.8812 68.2751 77.1113 68.8994 77.1113C69.5283 77.1113 70.0251 76.8789 70.3896 76.4141C70.7542 75.9492 70.9365 75.2702 70.9365 74.377C70.9365 73.6797 70.752 73.1214 70.3828 72.7021C70.0182 72.2783 69.5192 72.0664 68.8857 72.0664ZM79.748 74.3838C79.748 75.5094 79.4906 76.4163 78.9756 77.1045C78.4606 77.7926 77.7633 78.1367 76.8838 78.1367C75.986 78.1367 75.2796 77.8519 74.7646 77.2822V80.8438H73.5V70.6035H74.6553L74.7168 71.4238C75.2318 70.7858 75.9473 70.4668 76.8633 70.4668C77.752 70.4668 78.4538 70.8018 78.9688 71.4717C79.4883 72.1416 79.748 73.0736 79.748 74.2676V74.3838ZM78.4834 74.2402C78.4834 73.4062 78.3057 72.7477 77.9502 72.2646C77.5947 71.7816 77.1071 71.54 76.4873 71.54C75.7217 71.54 75.1475 71.8796 74.7646 72.5586V76.0928C75.1429 76.7673 75.7217 77.1045 76.501 77.1045C77.1071 77.1045 77.5879 76.8652 77.9434 76.3867C78.3034 75.9036 78.4834 75.1882 78.4834 74.2402ZM81.0264 74.2334C81.0264 73.5088 81.1676 72.8571 81.4502 72.2783C81.7373 71.6995 82.1338 71.2529 82.6396 70.9385C83.1501 70.624 83.7311 70.4668 84.3828 70.4668C85.39 70.4668 86.2035 70.8154 86.8232 71.5127C87.4476 72.21 87.7598 73.1374 87.7598 74.2949V74.3838C87.7598 75.1038 87.6208 75.751 87.3428 76.3252C87.0693 76.8949 86.6751 77.3392 86.1602 77.6582C85.6497 77.9772 85.0618 78.1367 84.3965 78.1367C83.3939 78.1367 82.5804 77.7881 81.9561 77.0908C81.3363 76.3936 81.0264 75.4707 81.0264 74.3223V74.2334ZM82.2979 74.3838C82.2979 75.2041 82.487 75.8626 82.8652 76.3594C83.248 76.8561 83.7585 77.1045 84.3965 77.1045C85.0391 77.1045 85.5495 76.8538 85.9277 76.3525C86.306 75.8467 86.4951 75.1403 86.4951 74.2334C86.4951 73.4222 86.3014 72.766 85.9141 72.2646C85.5312 71.7588 85.0208 71.5059 84.3828 71.5059C83.7585 71.5059 83.2549 71.7542 82.8721 72.251C82.4893 72.7477 82.2979 73.4587 82.2979 74.3838ZM95.3887 78H94.124V74.8418H90.7266V78H89.4551V70.6035H90.7266V73.8096H94.124V70.6035H95.3887V78ZM102.211 70.6035H103.476V78H102.211V72.6064L98.7998 78H97.5352V70.6035H98.7998V76.0039L102.211 70.6035ZM111.754 74.3838C111.754 75.5094 111.496 76.4163 110.981 77.1045C110.466 77.7926 109.769 78.1367 108.89 78.1367C107.992 78.1367 107.285 77.8519 106.771 77.2822V80.8438H105.506V70.6035H106.661L106.723 71.4238C107.238 70.7858 107.953 70.4668 108.869 70.4668C109.758 70.4668 110.46 70.8018 110.975 71.4717C111.494 72.1416 111.754 73.0736 111.754 74.2676V74.3838ZM110.489 74.2402C110.489 73.4062 110.312 72.7477 109.956 72.2646C109.601 71.7816 109.113 71.54 108.493 71.54C107.728 71.54 107.153 71.8796 106.771 72.5586V76.0928C107.149 76.7673 107.728 77.1045 108.507 77.1045C109.113 77.1045 109.594 76.8652 109.949 76.3867C110.309 75.9036 110.489 75.1882 110.489 74.2402ZM115.705 76.1475L117.428 70.6035H118.781L115.808 79.1416C115.347 80.3721 114.616 80.9873 113.613 80.9873L113.374 80.9668L112.902 80.8779V79.8525L113.244 79.8799C113.673 79.8799 114.005 79.7933 114.242 79.6201C114.484 79.4469 114.682 79.1302 114.837 78.6699L115.117 77.918L112.479 70.6035H113.859L115.705 76.1475ZM124.701 70.6035H125.966V78H124.701V72.6064L121.29 78H120.025V70.6035H121.29V76.0039L124.701 70.6035ZM125.043 67.9102C125.043 68.4616 124.854 68.9059 124.476 69.2432C124.102 69.5758 123.61 69.7422 122.999 69.7422C122.388 69.7422 121.894 69.5736 121.516 69.2363C121.137 68.8991 120.948 68.457 120.948 67.9102H121.98C121.98 68.2292 122.067 68.4798 122.24 68.6621C122.413 68.8398 122.666 68.9287 122.999 68.9287C123.318 68.9287 123.566 68.8398 123.744 68.6621C123.926 68.4844 124.018 68.2337 124.018 67.9102H125.043ZM133.492 71.6289H131.011V78H129.746V71.6289H127.312V70.6035H133.492V71.6289ZM137.245 78.1367C136.243 78.1367 135.427 77.8086 134.798 77.1523C134.169 76.4915 133.854 75.6097 133.854 74.5068V74.2744C133.854 73.5407 133.993 72.8867 134.271 72.3125C134.554 71.7337 134.946 71.2826 135.447 70.959C135.953 70.6309 136.5 70.4668 137.088 70.4668C138.049 70.4668 138.797 70.7835 139.33 71.417C139.863 72.0505 140.13 72.9574 140.13 74.1377V74.6641H135.119C135.137 75.3932 135.349 75.9834 135.755 76.4346C136.165 76.8812 136.685 77.1045 137.313 77.1045C137.76 77.1045 138.138 77.0133 138.448 76.8311C138.758 76.6488 139.029 76.4072 139.262 76.1064L140.034 76.708C139.414 77.6605 138.485 78.1367 137.245 78.1367ZM137.088 71.5059C136.577 71.5059 136.149 71.6927 135.803 72.0664C135.456 72.4355 135.242 72.9551 135.16 73.625H138.865V73.5293C138.829 72.8867 138.656 72.39 138.346 72.0391C138.036 71.6836 137.617 71.5059 137.088 71.5059ZM145.011 76.9678L145.448 76.4277C145.94 75.7897 146.221 74.8327 146.289 73.5566L146.405 70.6035H151.17V76.9678H152.12V80.1738H150.855V78H145.694V80.1738H144.43L144.437 76.9678H145.011ZM146.508 76.9678H149.905V71.7725H147.629L147.554 73.5361C147.476 75.0081 147.128 76.152 146.508 76.9678ZM158.088 78C158.015 77.8542 157.956 77.5944 157.91 77.2207C157.322 77.8314 156.62 78.1367 155.805 78.1367C155.076 78.1367 154.476 77.9316 154.007 77.5215C153.542 77.1068 153.31 76.5827 153.31 75.9492C153.31 75.179 153.601 74.582 154.185 74.1582C154.772 73.7298 155.597 73.5156 156.659 73.5156H157.89V72.9346C157.89 72.4925 157.757 72.1416 157.493 71.8818C157.229 71.6175 156.839 71.4854 156.324 71.4854C155.873 71.4854 155.495 71.5993 155.189 71.8271C154.884 72.055 154.731 72.3307 154.731 72.6543H153.46C153.46 72.2852 153.59 71.9297 153.85 71.5879C154.114 71.2415 154.469 70.9681 154.916 70.7676C155.367 70.5671 155.862 70.4668 156.399 70.4668C157.252 70.4668 157.919 70.681 158.402 71.1094C158.885 71.5332 159.136 72.1188 159.154 72.8662V76.2705C159.154 76.9495 159.241 77.4896 159.414 77.8906V78H158.088ZM155.989 77.0361C156.386 77.0361 156.762 76.9336 157.117 76.7285C157.473 76.5234 157.73 76.2568 157.89 75.9287V74.4111H156.898C155.349 74.4111 154.574 74.8646 154.574 75.7715C154.574 76.168 154.706 76.4779 154.971 76.7012C155.235 76.9245 155.575 77.0361 155.989 77.0361ZM166.523 71.6289H164.042V78H162.777V71.6289H160.344V70.6035H166.523V71.6289ZM170.256 76.1475L171.979 70.6035H173.332L170.358 79.1416C169.898 80.3721 169.167 80.9873 168.164 80.9873L167.925 80.9668L167.453 80.8779V79.8525L167.795 79.8799C168.223 79.8799 168.556 79.7933 168.793 79.6201C169.035 79.4469 169.233 79.1302 169.388 78.6699L169.668 77.918L167.029 70.6035H168.41L170.256 76.1475ZM182.725 70.6035H183.989V78H182.725V72.6064L179.313 78H178.049V70.6035H179.313V76.0039L182.725 70.6035ZM189.608 78V70.6035H192.493C193.478 70.6035 194.232 70.7767 194.756 71.123C195.285 71.4648 195.549 71.9684 195.549 72.6338C195.549 72.9756 195.446 73.2855 195.241 73.5635C195.036 73.8369 194.733 74.0465 194.332 74.1924C194.779 74.2972 195.136 74.5023 195.405 74.8076C195.679 75.113 195.815 75.4775 195.815 75.9014C195.815 76.5804 195.565 77.0999 195.063 77.46C194.567 77.82 193.863 78 192.951 78H189.608ZM190.873 74.7529V76.9814H192.965C193.493 76.9814 193.888 76.8835 194.147 76.6875C194.412 76.4915 194.544 76.2158 194.544 75.8604C194.544 75.1221 194.002 74.7529 192.917 74.7529H190.873ZM190.873 73.7412H192.507C193.692 73.7412 194.284 73.3949 194.284 72.7021C194.284 72.0094 193.724 71.6517 192.603 71.6289H190.873V73.7412ZM203.738 74.3838C203.738 75.5094 203.481 76.4163 202.966 77.1045C202.451 77.7926 201.754 78.1367 200.874 78.1367C199.976 78.1367 199.27 77.8519 198.755 77.2822V80.8438H197.49V70.6035H198.646L198.707 71.4238C199.222 70.7858 199.938 70.4668 200.854 70.4668C201.742 70.4668 202.444 70.8018 202.959 71.4717C203.479 72.1416 203.738 73.0736 203.738 74.2676V74.3838ZM202.474 74.2402C202.474 73.4062 202.296 72.7477 201.94 72.2646C201.585 71.7816 201.097 71.54 200.478 71.54C199.712 71.54 199.138 71.8796 198.755 72.5586V76.0928C199.133 76.7673 199.712 77.1045 200.491 77.1045C201.097 77.1045 201.578 76.8652 201.934 76.3867C202.294 75.9036 202.474 75.1882 202.474 74.2402ZM208.421 78.1367C207.418 78.1367 206.603 77.8086 205.974 77.1523C205.345 76.4915 205.03 75.6097 205.03 74.5068V74.2744C205.03 73.5407 205.169 72.8867 205.447 72.3125C205.73 71.7337 206.122 71.2826 206.623 70.959C207.129 70.6309 207.676 70.4668 208.264 70.4668C209.225 70.4668 209.973 70.7835 210.506 71.417C211.039 72.0505 211.306 72.9574 211.306 74.1377V74.6641H206.295C206.313 75.3932 206.525 75.9834 206.931 76.4346C207.341 76.8812 207.86 77.1045 208.489 77.1045C208.936 77.1045 209.314 77.0133 209.624 76.8311C209.934 76.6488 210.205 76.4072 210.438 76.1064L211.21 76.708C210.59 77.6605 209.66 78.1367 208.421 78.1367ZM208.264 71.5059C207.753 71.5059 207.325 71.6927 206.979 72.0664C206.632 72.4355 206.418 72.9551 206.336 73.625H210.041V73.5293C210.005 72.8867 209.831 72.39 209.521 72.0391C209.212 71.6836 208.792 71.5059 208.264 71.5059ZM217.034 76.3252L219.55 70.6035H221.129V78H219.864V72.6201L217.472 78H216.597L214.156 72.5039V78H212.892V70.6035H214.532L217.034 76.3252ZM228.819 70.6035V78H227.548V75.1221H225.641L223.897 78H222.53L224.39 74.9307C223.916 74.7575 223.551 74.4909 223.296 74.1309C223.045 73.7663 222.92 73.3424 222.92 72.8594C222.92 72.1849 223.173 71.6426 223.679 71.2324C224.185 70.8177 224.861 70.6081 225.709 70.6035H228.819ZM224.191 72.873C224.191 73.2331 224.314 73.5247 224.561 73.748C224.807 73.9668 225.132 74.0785 225.538 74.083H227.548V71.6289H225.729C225.26 71.6289 224.886 71.7451 224.608 71.9775C224.33 72.2054 224.191 72.5039 224.191 72.873Z" fill="#1B1B1B"/>
<path d="M50.1553 20V10.0469H53.4092C54.4893 10.0469 55.3005 10.2702 55.8428 10.7168C56.3896 11.1634 56.6631 11.8242 56.6631 12.6992C56.6631 13.1641 56.5309 13.5765 56.2666 13.9365C56.0023 14.292 55.6423 14.5677 55.1865 14.7637C55.7243 14.9141 56.1481 15.2012 56.458 15.625C56.7725 16.0443 56.9297 16.5456 56.9297 17.1289C56.9297 18.0221 56.6403 18.724 56.0615 19.2344C55.4827 19.7448 54.6647 20 53.6074 20H50.1553ZM51.4678 15.3447V18.9268H53.6348C54.2454 18.9268 54.7262 18.7695 55.0771 18.4551C55.4326 18.1361 55.6104 17.6986 55.6104 17.1426C55.6104 15.944 54.9587 15.3447 53.6553 15.3447H51.4678ZM51.4678 14.292H53.4502C54.0244 14.292 54.4824 14.1484 54.8242 13.8613C55.1706 13.5742 55.3438 13.1846 55.3438 12.6924C55.3438 12.1455 55.1842 11.749 54.8652 11.5029C54.5462 11.2523 54.0609 11.127 53.4092 11.127H51.4678V14.292ZM60.0605 15.1533H61.9814C62.82 15.1624 63.4831 15.3812 63.9707 15.8096C64.4583 16.238 64.7021 16.819 64.7021 17.5527C64.7021 18.291 64.4515 18.8835 63.9502 19.3301C63.4489 19.7767 62.7744 20 61.9268 20H58.7959V12.6035H60.0605V15.1533ZM67.3408 20H66.0693V12.6035H67.3408V20ZM60.0605 16.1855V18.9678H61.9404C62.4144 18.9678 62.7812 18.847 63.041 18.6055C63.3008 18.3594 63.4307 18.0244 63.4307 17.6006C63.4307 17.1904 63.3031 16.8555 63.0479 16.5957C62.7972 16.3314 62.444 16.1947 61.9883 16.1855H60.0605ZM72.7959 13.0273C73.7256 13.0273 74.4684 13.3395 75.0244 13.9639C75.585 14.5837 75.8652 15.4017 75.8652 16.418V16.5342C75.8652 17.2314 75.7308 17.8558 75.4619 18.4072C75.193 18.9541 74.8057 19.3802 74.2998 19.6855C73.7985 19.9863 73.2197 20.1367 72.5635 20.1367C71.57 20.1367 70.7702 19.8063 70.1641 19.1455C69.5579 18.4801 69.2549 17.5892 69.2549 16.4727V15.8574C69.2549 14.3034 69.542 13.0684 70.1162 12.1523C70.695 11.2363 71.5472 10.6781 72.6729 10.4775C73.3109 10.3636 73.7415 10.2246 73.9648 10.0605C74.1882 9.89648 74.2998 9.6709 74.2998 9.38379H75.3389C75.3389 9.95345 75.209 10.3978 74.9492 10.7168C74.694 11.0358 74.2839 11.2614 73.7188 11.3936L72.7754 11.6055C72.0234 11.7832 71.4583 12.084 71.0801 12.5078C70.7064 12.9271 70.4626 13.4876 70.3486 14.1895C71.0186 13.4147 71.8343 13.0273 72.7959 13.0273ZM72.5498 14.0664C71.93 14.0664 71.4378 14.276 71.0732 14.6953C70.7087 15.11 70.5264 15.6865 70.5264 16.4248V16.5342C70.5264 17.3271 70.7087 17.9561 71.0732 18.4209C71.4424 18.8812 71.9391 19.1113 72.5635 19.1113C73.1924 19.1113 73.6891 18.8789 74.0537 18.4141C74.4183 17.9492 74.6006 17.2702 74.6006 16.377C74.6006 15.6797 74.416 15.1214 74.0469 14.7021C73.6823 14.2783 73.1833 14.0664 72.5498 14.0664ZM80.3564 20.1367C79.3538 20.1367 78.5381 19.8086 77.9092 19.1523C77.2803 18.4915 76.9658 17.6097 76.9658 16.5068V16.2744C76.9658 15.5407 77.1048 14.8867 77.3828 14.3125C77.6654 13.7337 78.0573 13.2826 78.5586 12.959C79.0645 12.6309 79.6113 12.4668 80.1992 12.4668C81.1608 12.4668 81.9082 12.7835 82.4414 13.417C82.9746 14.0505 83.2412 14.9574 83.2412 16.1377V16.6641H78.2305C78.2487 17.3932 78.4606 17.9834 78.8662 18.4346C79.2764 18.8812 79.7959 19.1045 80.4248 19.1045C80.8714 19.1045 81.2497 19.0133 81.5596 18.8311C81.8695 18.6488 82.1406 18.4072 82.373 18.1064L83.1455 18.708C82.5257 19.6605 81.596 20.1367 80.3564 20.1367ZM80.1992 13.5059C79.6888 13.5059 79.2604 13.6927 78.9141 14.0664C78.5677 14.4355 78.3535 14.9551 78.2715 15.625H81.9766V15.5293C81.9401 14.8867 81.7669 14.39 81.457 14.0391C81.1471 13.6836 80.7279 13.5059 80.1992 13.5059ZM90.959 16.3838C90.959 17.5094 90.7015 18.4163 90.1865 19.1045C89.6715 19.7926 88.9743 20.1367 88.0947 20.1367C87.1969 20.1367 86.4906 19.8519 85.9756 19.2822V22.8438H84.7109V12.6035H85.8662L85.9277 13.4238C86.4427 12.7858 87.1582 12.4668 88.0742 12.4668C88.9629 12.4668 89.6647 12.8018 90.1797 13.4717C90.6992 14.1416 90.959 15.0736 90.959 16.2676V16.3838ZM89.6943 16.2402C89.6943 15.4062 89.5166 14.7477 89.1611 14.2646C88.8057 13.7816 88.318 13.54 87.6982 13.54C86.9326 13.54 86.3584 13.8796 85.9756 14.5586V18.0928C86.3538 18.7673 86.9326 19.1045 87.7119 19.1045C88.318 19.1045 88.7988 18.8652 89.1543 18.3867C89.5143 17.9036 89.6943 17.1882 89.6943 16.2402ZM97.3574 12.6035H98.6221V20H97.3574V14.6064L93.9463 20H92.6816V12.6035H93.9463V18.0039L97.3574 12.6035ZM106.148 13.6289H103.667V20H102.402V13.6289H99.9688V12.6035H106.148V13.6289ZM109.901 20.1367C108.899 20.1367 108.083 19.8086 107.454 19.1523C106.825 18.4915 106.511 17.6097 106.511 16.5068V16.2744C106.511 15.5407 106.65 14.8867 106.928 14.3125C107.21 13.7337 107.602 13.2826 108.104 12.959C108.609 12.6309 109.156 12.4668 109.744 12.4668C110.706 12.4668 111.453 12.7835 111.986 13.417C112.52 14.0505 112.786 14.9574 112.786 16.1377V16.6641H107.775C107.794 17.3932 108.006 17.9834 108.411 18.4346C108.821 18.8812 109.341 19.1045 109.97 19.1045C110.416 19.1045 110.795 19.0133 111.104 18.8311C111.414 18.6488 111.686 18.4072 111.918 18.1064L112.69 18.708C112.071 19.6605 111.141 20.1367 109.901 20.1367ZM109.744 13.5059C109.234 13.5059 108.805 13.6927 108.459 14.0664C108.113 14.4355 107.898 14.9551 107.816 15.625H111.521V15.5293C111.485 14.8867 111.312 14.39 111.002 14.0391C110.692 13.6836 110.273 13.5059 109.744 13.5059ZM122.295 20C122.222 19.8542 122.163 19.5944 122.117 19.2207C121.529 19.8314 120.827 20.1367 120.012 20.1367C119.283 20.1367 118.683 19.9316 118.214 19.5215C117.749 19.1068 117.517 18.5827 117.517 17.9492C117.517 17.179 117.808 16.582 118.392 16.1582C118.979 15.7298 119.804 15.5156 120.866 15.5156H122.097V14.9346C122.097 14.4925 121.965 14.1416 121.7 13.8818C121.436 13.6175 121.046 13.4854 120.531 13.4854C120.08 13.4854 119.702 13.5993 119.396 13.8271C119.091 14.055 118.938 14.3307 118.938 14.6543H117.667C117.667 14.2852 117.797 13.9297 118.057 13.5879C118.321 13.2415 118.676 12.9681 119.123 12.7676C119.574 12.5671 120.069 12.4668 120.606 12.4668C121.459 12.4668 122.126 12.681 122.609 13.1094C123.092 13.5332 123.343 14.1188 123.361 14.8662V18.2705C123.361 18.9495 123.448 19.4896 123.621 19.8906V20H122.295ZM120.196 19.0361C120.593 19.0361 120.969 18.9336 121.324 18.7285C121.68 18.5234 121.937 18.2568 122.097 17.9287V16.4111H121.105C119.556 16.4111 118.781 16.8646 118.781 17.7715C118.781 18.168 118.913 18.4779 119.178 18.7012C119.442 18.9245 119.782 19.0361 120.196 19.0361ZM125.46 20V12.6035H128.345C129.329 12.6035 130.083 12.7767 130.607 13.123C131.136 13.4648 131.4 13.9684 131.4 14.6338C131.4 14.9756 131.298 15.2855 131.093 15.5635C130.888 15.8369 130.585 16.0465 130.184 16.1924C130.63 16.2972 130.988 16.5023 131.257 16.8076C131.53 17.113 131.667 17.4775 131.667 17.9014C131.667 18.5804 131.416 19.0999 130.915 19.46C130.418 19.82 129.714 20 128.803 20H125.46ZM126.725 16.7529V18.9814H128.816C129.345 18.9814 129.739 18.8835 129.999 18.6875C130.263 18.4915 130.396 18.2158 130.396 17.8604C130.396 17.1221 129.853 16.7529 128.769 16.7529H126.725ZM126.725 15.7412H128.358C129.543 15.7412 130.136 15.3949 130.136 14.7021C130.136 14.0094 129.575 13.6517 128.454 13.6289H126.725V15.7412ZM138.756 13.6289H136.274V20H135.01V13.6289H132.576V12.6035H138.756V13.6289ZM139.364 16.2334C139.364 15.5088 139.506 14.8571 139.788 14.2783C140.075 13.6995 140.472 13.2529 140.978 12.9385C141.488 12.624 142.069 12.4668 142.721 12.4668C143.728 12.4668 144.541 12.8154 145.161 13.5127C145.785 14.21 146.098 15.1374 146.098 16.2949V16.3838C146.098 17.1038 145.959 17.751 145.681 18.3252C145.407 18.8949 145.013 19.3392 144.498 19.6582C143.988 19.9772 143.4 20.1367 142.734 20.1367C141.732 20.1367 140.918 19.7881 140.294 19.0908C139.674 18.3936 139.364 17.4707 139.364 16.3223V16.2334ZM140.636 16.3838C140.636 17.2041 140.825 17.8626 141.203 18.3594C141.586 18.8561 142.096 19.1045 142.734 19.1045C143.377 19.1045 143.887 18.8538 144.266 18.3525C144.644 17.8467 144.833 17.1403 144.833 16.2334C144.833 15.4222 144.639 14.766 144.252 14.2646C143.869 13.7588 143.359 13.5059 142.721 13.5059C142.096 13.5059 141.593 13.7542 141.21 14.251C140.827 14.7477 140.636 15.4587 140.636 16.3838ZM151.942 18.3252L154.458 12.6035H156.037V20H154.772V14.6201L152.38 20H151.505L149.064 14.5039V20H147.8V12.6035H149.44L151.942 18.3252ZM157.739 16.2334C157.739 15.5088 157.881 14.8571 158.163 14.2783C158.45 13.6995 158.847 13.2529 159.353 12.9385C159.863 12.624 160.444 12.4668 161.096 12.4668C162.103 12.4668 162.916 12.8154 163.536 13.5127C164.16 14.21 164.473 15.1374 164.473 16.2949V16.3838C164.473 17.1038 164.334 17.751 164.056 18.3252C163.782 18.8949 163.388 19.3392 162.873 19.6582C162.363 19.9772 161.775 20.1367 161.109 20.1367C160.107 20.1367 159.293 19.7881 158.669 19.0908C158.049 18.3936 157.739 17.4707 157.739 16.3223V16.2334ZM159.011 16.3838C159.011 17.2041 159.2 17.8626 159.578 18.3594C159.961 18.8561 160.471 19.1045 161.109 19.1045C161.752 19.1045 162.262 18.8538 162.641 18.3525C163.019 17.8467 163.208 17.1403 163.208 16.2334C163.208 15.4222 163.014 14.766 162.627 14.2646C162.244 13.7588 161.734 13.5059 161.096 13.5059C160.471 13.5059 159.968 13.7542 159.585 14.251C159.202 14.7477 159.011 15.4587 159.011 16.3838ZM169.306 13.0273C170.235 13.0273 170.978 13.3395 171.534 13.9639C172.095 14.5837 172.375 15.4017 172.375 16.418V16.5342C172.375 17.2314 172.241 17.8558 171.972 18.4072C171.703 18.9541 171.315 19.3802 170.81 19.6855C170.308 19.9863 169.729 20.1367 169.073 20.1367C168.08 20.1367 167.28 19.8063 166.674 19.1455C166.068 18.4801 165.765 17.5892 165.765 16.4727V15.8574C165.765 14.3034 166.052 13.0684 166.626 12.1523C167.205 11.2363 168.057 10.6781 169.183 10.4775C169.821 10.3636 170.251 10.2246 170.475 10.0605C170.698 9.89648 170.81 9.6709 170.81 9.38379H171.849C171.849 9.95345 171.719 10.3978 171.459 10.7168C171.204 11.0358 170.794 11.2614 170.229 11.3936L169.285 11.6055C168.533 11.7832 167.968 12.084 167.59 12.5078C167.216 12.9271 166.972 13.4876 166.858 14.1895C167.528 13.4147 168.344 13.0273 169.306 13.0273ZM169.06 14.0664C168.44 14.0664 167.948 14.276 167.583 14.6953C167.218 15.11 167.036 15.6865 167.036 16.4248V16.5342C167.036 17.3271 167.218 17.9561 167.583 18.4209C167.952 18.8812 168.449 19.1113 169.073 19.1113C169.702 19.1113 170.199 18.8789 170.563 18.4141C170.928 17.9492 171.11 17.2702 171.11 16.377C171.11 15.6797 170.926 15.1214 170.557 14.7021C170.192 14.2783 169.693 14.0664 169.06 14.0664ZM178.459 12.6035H179.724V20H178.459V14.6064L175.048 20H173.783V12.6035H175.048V18.0039L178.459 12.6035ZM187.817 12.6035V20H186.546V13.6494H184.03L183.88 16.418C183.798 17.6895 183.584 18.5986 183.237 19.1455C182.896 19.6924 182.351 19.9772 181.604 20H181.098V18.8857L181.46 18.8584C181.87 18.8128 182.164 18.5758 182.342 18.1475C182.52 17.7191 182.633 16.9261 182.684 15.7686L182.82 12.6035H187.817ZM191.229 15.1533H193.149C193.988 15.1624 194.651 15.3812 195.139 15.8096C195.626 16.238 195.87 16.819 195.87 17.5527C195.87 18.291 195.619 18.8835 195.118 19.3301C194.617 19.7767 193.942 20 193.095 20H189.964V12.6035H191.229V15.1533ZM191.229 16.1855V18.9678H193.108C193.582 18.9678 193.949 18.847 194.209 18.6055C194.469 18.3594 194.599 18.0244 194.599 17.6006C194.599 17.1904 194.471 16.8555 194.216 16.5957C193.965 16.3314 193.612 16.1947 193.156 16.1855H191.229Z" fill="#1B1B1B"/>
<path d="M57.7568 136H56.4375V127.127H51.5293V136H50.2168V126.047H57.7568V136ZM59.6162 132.233C59.6162 131.509 59.7575 130.857 60.04 130.278C60.3271 129.7 60.7236 129.253 61.2295 128.938C61.7399 128.624 62.321 128.467 62.9727 128.467C63.9798 128.467 64.7933 128.815 65.4131 129.513C66.0374 130.21 66.3496 131.137 66.3496 132.295V132.384C66.3496 133.104 66.2106 133.751 65.9326 134.325C65.6592 134.895 65.265 135.339 64.75 135.658C64.2396 135.977 63.6517 136.137 62.9863 136.137C61.9837 136.137 61.1702 135.788 60.5459 135.091C59.9261 134.394 59.6162 133.471 59.6162 132.322V132.233ZM60.8877 132.384C60.8877 133.204 61.0768 133.863 61.4551 134.359C61.8379 134.856 62.3483 135.104 62.9863 135.104C63.6289 135.104 64.1393 134.854 64.5176 134.353C64.8958 133.847 65.085 133.14 65.085 132.233C65.085 131.422 64.8913 130.766 64.5039 130.265C64.1211 129.759 63.6107 129.506 62.9727 129.506C62.3483 129.506 61.8447 129.754 61.4619 130.251C61.0791 130.748 60.8877 131.459 60.8877 132.384ZM73.8896 128.604V136H72.6182V129.649H70.1025L69.9521 132.418C69.8701 133.689 69.6559 134.599 69.3096 135.146C68.9678 135.692 68.4232 135.977 67.6758 136H67.1699V134.886L67.5322 134.858C67.9424 134.813 68.2363 134.576 68.4141 134.147C68.5918 133.719 68.7057 132.926 68.7559 131.769L68.8926 128.604H73.8896ZM78.3398 134.147L80.0625 128.604H81.416L78.4424 137.142C77.9821 138.372 77.2507 138.987 76.248 138.987L76.0088 138.967L75.5371 138.878V137.853L75.8789 137.88C76.3073 137.88 76.64 137.793 76.877 137.62C77.1185 137.447 77.3167 137.13 77.4717 136.67L77.752 135.918L75.1133 128.604H76.4941L78.3398 134.147ZM88.1357 136H86.8643V133.32C86.3083 133.466 85.7386 133.539 85.1553 133.539C84.2301 133.539 83.5238 133.302 83.0361 132.828C82.5531 132.354 82.307 131.68 82.2979 130.805V128.597H83.5625V130.846C83.5853 131.949 84.1162 132.5 85.1553 132.5C85.7386 132.5 86.3083 132.427 86.8643 132.281V128.604H88.1357V136ZM94.9512 128.604H96.2158V136H94.9512V130.606L91.54 136H90.2754V128.604H91.54V134.004L94.9512 128.604ZM103.742 129.629H101.261V136H99.9961V129.629H97.5625V128.604H103.742V129.629ZM107.495 136.137C106.493 136.137 105.677 135.809 105.048 135.152C104.419 134.492 104.104 133.61 104.104 132.507V132.274C104.104 131.541 104.243 130.887 104.521 130.312C104.804 129.734 105.196 129.283 105.697 128.959C106.203 128.631 106.75 128.467 107.338 128.467C108.299 128.467 109.047 128.784 109.58 129.417C110.113 130.05 110.38 130.957 110.38 132.138V132.664H105.369C105.387 133.393 105.599 133.983 106.005 134.435C106.415 134.881 106.935 135.104 107.563 135.104C108.01 135.104 108.388 135.013 108.698 134.831C109.008 134.649 109.279 134.407 109.512 134.106L110.284 134.708C109.664 135.66 108.735 136.137 107.495 136.137ZM107.338 129.506C106.827 129.506 106.399 129.693 106.053 130.066C105.706 130.436 105.492 130.955 105.41 131.625H109.115V131.529C109.079 130.887 108.906 130.39 108.596 130.039C108.286 129.684 107.867 129.506 107.338 129.506ZM119.889 136C119.816 135.854 119.757 135.594 119.711 135.221C119.123 135.831 118.421 136.137 117.605 136.137C116.876 136.137 116.277 135.932 115.808 135.521C115.343 135.107 115.11 134.583 115.11 133.949C115.11 133.179 115.402 132.582 115.985 132.158C116.573 131.73 117.398 131.516 118.46 131.516H119.69V130.935C119.69 130.493 119.558 130.142 119.294 129.882C119.03 129.618 118.64 129.485 118.125 129.485C117.674 129.485 117.296 129.599 116.99 129.827C116.685 130.055 116.532 130.331 116.532 130.654H115.261C115.261 130.285 115.391 129.93 115.65 129.588C115.915 129.242 116.27 128.968 116.717 128.768C117.168 128.567 117.662 128.467 118.2 128.467C119.052 128.467 119.72 128.681 120.203 129.109C120.686 129.533 120.937 130.119 120.955 130.866V134.271C120.955 134.95 121.042 135.49 121.215 135.891V136H119.889ZM117.79 135.036C118.187 135.036 118.562 134.934 118.918 134.729C119.273 134.523 119.531 134.257 119.69 133.929V132.411H118.699C117.15 132.411 116.375 132.865 116.375 133.771C116.375 134.168 116.507 134.478 116.771 134.701C117.036 134.924 117.375 135.036 117.79 135.036ZM123.054 136V128.604H125.938C126.923 128.604 127.677 128.777 128.201 129.123C128.73 129.465 128.994 129.968 128.994 130.634C128.994 130.976 128.892 131.285 128.687 131.563C128.481 131.837 128.178 132.047 127.777 132.192C128.224 132.297 128.582 132.502 128.851 132.808C129.124 133.113 129.261 133.478 129.261 133.901C129.261 134.58 129.01 135.1 128.509 135.46C128.012 135.82 127.308 136 126.396 136H123.054ZM124.318 132.753V134.981H126.41C126.939 134.981 127.333 134.883 127.593 134.688C127.857 134.492 127.989 134.216 127.989 133.86C127.989 133.122 127.447 132.753 126.362 132.753H124.318ZM124.318 131.741H125.952C127.137 131.741 127.729 131.395 127.729 130.702C127.729 130.009 127.169 129.652 126.048 129.629H124.318V131.741ZM136.35 129.629H133.868V136H132.604V129.629H130.17V128.604H136.35V129.629ZM136.958 132.233C136.958 131.509 137.099 130.857 137.382 130.278C137.669 129.7 138.065 129.253 138.571 128.938C139.082 128.624 139.663 128.467 140.314 128.467C141.322 128.467 142.135 128.815 142.755 129.513C143.379 130.21 143.691 131.137 143.691 132.295V132.384C143.691 133.104 143.552 133.751 143.274 134.325C143.001 134.895 142.607 135.339 142.092 135.658C141.581 135.977 140.993 136.137 140.328 136.137C139.326 136.137 138.512 135.788 137.888 135.091C137.268 134.394 136.958 133.471 136.958 132.322V132.233ZM138.229 132.384C138.229 133.204 138.419 133.863 138.797 134.359C139.18 134.856 139.69 135.104 140.328 135.104C140.971 135.104 141.481 134.854 141.859 134.353C142.238 133.847 142.427 133.14 142.427 132.233C142.427 131.422 142.233 130.766 141.846 130.265C141.463 129.759 140.952 129.506 140.314 129.506C139.69 129.506 139.187 129.754 138.804 130.251C138.421 130.748 138.229 131.459 138.229 132.384ZM149.536 134.325L152.052 128.604H153.631V136H152.366V130.62L149.974 136H149.099L146.658 130.504V136H145.394V128.604H147.034L149.536 134.325ZM155.333 132.233C155.333 131.509 155.474 130.857 155.757 130.278C156.044 129.7 156.44 129.253 156.946 128.938C157.457 128.624 158.038 128.467 158.689 128.467C159.697 128.467 160.51 128.815 161.13 129.513C161.754 130.21 162.066 131.137 162.066 132.295V132.384C162.066 133.104 161.927 133.751 161.649 134.325C161.376 134.895 160.982 135.339 160.467 135.658C159.956 135.977 159.368 136.137 158.703 136.137C157.701 136.137 156.887 135.788 156.263 135.091C155.643 134.394 155.333 133.471 155.333 132.322V132.233ZM156.604 132.384C156.604 133.204 156.794 133.863 157.172 134.359C157.555 134.856 158.065 135.104 158.703 135.104C159.346 135.104 159.856 134.854 160.234 134.353C160.613 133.847 160.802 133.14 160.802 132.233C160.802 131.422 160.608 130.766 160.221 130.265C159.838 129.759 159.327 129.506 158.689 129.506C158.065 129.506 157.562 129.754 157.179 130.251C156.796 130.748 156.604 131.459 156.604 132.384ZM166.899 129.027C167.829 129.027 168.572 129.34 169.128 129.964C169.688 130.584 169.969 131.402 169.969 132.418V132.534C169.969 133.231 169.834 133.856 169.565 134.407C169.297 134.954 168.909 135.38 168.403 135.686C167.902 135.986 167.323 136.137 166.667 136.137C165.674 136.137 164.874 135.806 164.268 135.146C163.661 134.48 163.358 133.589 163.358 132.473V131.857C163.358 130.303 163.646 129.068 164.22 128.152C164.799 127.236 165.651 126.678 166.776 126.478C167.414 126.364 167.845 126.225 168.068 126.061C168.292 125.896 168.403 125.671 168.403 125.384H169.442C169.442 125.953 169.312 126.398 169.053 126.717C168.798 127.036 168.387 127.261 167.822 127.394L166.879 127.605C166.127 127.783 165.562 128.084 165.184 128.508C164.81 128.927 164.566 129.488 164.452 130.189C165.122 129.415 165.938 129.027 166.899 129.027ZM166.653 130.066C166.034 130.066 165.541 130.276 165.177 130.695C164.812 131.11 164.63 131.687 164.63 132.425V132.534C164.63 133.327 164.812 133.956 165.177 134.421C165.546 134.881 166.043 135.111 166.667 135.111C167.296 135.111 167.793 134.879 168.157 134.414C168.522 133.949 168.704 133.27 168.704 132.377C168.704 131.68 168.52 131.121 168.15 130.702C167.786 130.278 167.287 130.066 166.653 130.066ZM176.053 128.604H177.317V136H176.053V130.606L172.642 136H171.377V128.604H172.642V134.004L176.053 128.604ZM185.411 128.604V136H184.14V129.649H181.624L181.474 132.418C181.392 133.689 181.177 134.599 180.831 135.146C180.489 135.692 179.945 135.977 179.197 136H178.691V134.886L179.054 134.858C179.464 134.813 179.758 134.576 179.936 134.147C180.113 133.719 180.227 132.926 180.277 131.769L180.414 128.604H185.411ZM188.822 131.153H190.743C191.582 131.162 192.245 131.381 192.732 131.81C193.22 132.238 193.464 132.819 193.464 133.553C193.464 134.291 193.213 134.883 192.712 135.33C192.211 135.777 191.536 136 190.688 136H187.558V128.604H188.822V131.153ZM188.822 132.186V134.968H190.702C191.176 134.968 191.543 134.847 191.803 134.605C192.062 134.359 192.192 134.024 192.192 133.601C192.192 133.19 192.065 132.855 191.81 132.596C191.559 132.331 191.206 132.195 190.75 132.186H188.822Z" fill="#1B1B1B"/>
<circle cx="16" cy="16" r="16" fill="#61A199"/>
<path d="M18.3368 22.9744H15.0868V12.6282L11.8945 13.5609V11.0994L18.0388 8.97437H18.3368V22.9744Z" fill="white"/>
<circle cx="16" cy="74" r="16" fill="#61A199"/>
<path d="M21.2482 80.9219H11.6179V78.8366L16.0539 74.1731C17.1471 72.9282 17.6937 71.9393 17.6937 71.2062C17.6937 70.6122 17.5641 70.1604 17.3051 69.8508C17.046 69.5411 16.67 69.3863 16.1771 69.3863C15.6905 69.3863 15.2956 69.5949 14.9923 70.0119C14.6889 70.4227 14.5373 70.9377 14.5373 71.5569H11.3335C11.3335 70.7102 11.5452 69.9298 11.9686 69.2157C12.3919 68.4953 12.9796 67.9329 13.7316 67.5285C14.4836 67.1241 15.324 66.9219 16.2529 66.9219C17.7442 66.9219 18.8912 67.2663 19.6937 67.9551C20.5025 68.6438 20.907 69.6328 20.907 70.9219C20.907 71.4653 20.8059 71.9961 20.6036 72.5143C20.4014 73.0261 20.0855 73.5664 19.6558 74.1351C19.2324 74.6975 18.5468 75.4527 17.5989 76.4005L15.8169 78.4574H21.2482V80.9219Z" fill="white"/>
<circle cx="16" cy="132" r="16" fill="#61A199"/>
<path d="M14.0755 130.608H15.5624C16.7408 130.608 17.33 130.031 17.33 128.878C17.33 128.429 17.1897 128.064 16.9091 127.784C16.6286 127.497 16.2327 127.353 15.7214 127.353C15.3037 127.353 14.939 127.475 14.6272 127.718C14.3217 127.961 14.169 128.264 14.169 128.625H11.0173C11.0173 127.908 11.2169 127.269 11.6159 126.708C12.0149 126.147 12.5667 125.711 13.2712 125.399C13.9819 125.081 14.7613 124.922 15.6092 124.922C17.1242 124.922 18.315 125.268 19.1817 125.96C20.0483 126.652 20.4816 127.603 20.4816 128.812C20.4816 129.398 20.3008 129.953 19.9392 130.477C19.5838 130.994 19.0632 131.415 18.3774 131.74C19.1006 132.001 19.668 132.4 20.0795 132.937C20.491 133.467 20.6967 134.124 20.6967 134.91C20.6967 136.126 20.2291 137.098 19.2939 137.828C18.3587 138.557 17.1305 138.922 15.6092 138.922C14.7176 138.922 13.8884 138.754 13.1216 138.417C12.3609 138.074 11.7842 137.603 11.3914 137.005C10.9986 136.4 10.8022 135.714 10.8022 134.947H13.9726C13.9726 135.365 14.1409 135.727 14.4776 136.032C14.8143 136.338 15.2289 136.49 15.7214 136.49C16.2763 136.49 16.719 136.338 17.0494 136.032C17.3798 135.72 17.5451 135.324 17.5451 134.844C17.5451 134.159 17.3736 133.672 17.0307 133.385C16.6878 133.099 16.214 132.955 15.6092 132.955H14.0755V130.608Z" fill="white"/>
<rect x="15.25" y="35.25" width="0.5" height="19.5" stroke="#9D9AAC" stroke-width="0.5" stroke-dasharray="6 6"/>
<rect x="15.25" y="93.25" width="0.5" height="19.5" stroke="#9D9AAC" stroke-width="0.5" stroke-dasharray="6 6"/>
</svg>
