<?xml version="1.0" encoding="utf-8"?>
<!-- Generator: Adobe Illustrator 23.0.3, SVG Export Plug-In . SVG Version: 6.00 Build 0)  -->
<svg version="1.1" id="Слой_1" xmlns="http://www.w3.org/2000/svg" xmlns:xlink="http://www.w3.org/1999/xlink" x="0px" y="0px"
	 viewBox="0 0 834 204" style="enable-background:new 0 0 834 204;" xml:space="preserve">
<style type="text/css">
	.st0{fill:#1B1B1B;}
	.st1{fill:#61A199;}
	.st2{fill:#FFFFFF;}
	.st3{fill:none;stroke:#9D9AAC;stroke-dasharray:6,6;}
</style>
<path class="st0" d="M15.4,160v-17.1h5.6c1.9,0,3.2,0.4,4.2,1.1c0.9,0.8,1.4,1.9,1.4,3.4c0,0.8-0.2,1.5-0.7,2.1
	c-0.5,0.6-1.1,1.1-1.9,1.4c0.9,0.3,1.6,0.8,2.2,1.5c0.5,0.7,0.8,1.6,0.8,2.6c0,1.5-0.5,2.7-1.5,3.6c-1,0.9-2.4,1.3-4.2,1.3H15.4z
	 M17.6,152v6.1h3.7c1,0,1.9-0.3,2.5-0.8c0.6-0.5,0.9-1.3,0.9-2.2c0-2.1-1.1-3.1-3.4-3.1H17.6z M17.6,150.2H21c1,0,1.8-0.2,2.4-0.7
	c0.6-0.5,0.9-1.2,0.9-2c0-0.9-0.3-1.6-0.8-2c-0.5-0.4-1.4-0.6-2.5-0.6h-3.3V150.2z M32.3,151.7h3.3c1.4,0,2.6,0.4,3.4,1.1
	c0.8,0.7,1.3,1.7,1.3,3c0,1.3-0.4,2.3-1.3,3c-0.9,0.8-2,1.1-3.5,1.1h-5.4v-12.7h2.2V151.7z M44.8,160h-2.2v-12.7h2.2V160z
	 M32.3,153.5v4.8h3.2c0.8,0,1.4-0.2,1.9-0.6c0.4-0.4,0.7-1,0.7-1.7c0-0.7-0.2-1.3-0.7-1.7c-0.4-0.5-1-0.7-1.8-0.7H32.3z M54.2,148
	c1.6,0,2.9,0.5,3.8,1.6c1,1.1,1.4,2.5,1.4,4.2v0.2c0,1.2-0.2,2.3-0.7,3.2c-0.5,0.9-1.1,1.7-2,2.2c-0.9,0.5-1.9,0.8-3,0.8
	c-1.7,0-3.1-0.6-4.1-1.7c-1-1.1-1.6-2.7-1.6-4.6v-1.1c0-2.7,0.5-4.8,1.5-6.4c1-1.6,2.5-2.5,4.4-2.9c1.1-0.2,1.8-0.4,2.2-0.7
	c0.4-0.3,0.6-0.7,0.6-1.2h1.8c0,1-0.2,1.7-0.7,2.3c-0.4,0.5-1.1,0.9-2.1,1.2l-1.6,0.4c-1.3,0.3-2.3,0.8-2.9,1.5
	c-0.6,0.7-1.1,1.7-1.3,2.9C51.1,148.7,52.5,148,54.2,148z M53.8,149.8c-1.1,0-1.9,0.4-2.5,1.1c-0.6,0.7-0.9,1.7-0.9,3v0.2
	c0,1.4,0.3,2.4,0.9,3.2c0.6,0.8,1.5,1.2,2.6,1.2c1.1,0,1.9-0.4,2.6-1.2c0.6-0.8,0.9-2,0.9-3.5c0-1.2-0.3-2.2-0.9-2.9
	C55.7,150.2,54.8,149.8,53.8,149.8z M67.1,160.2c-1.7,0-3.1-0.6-4.2-1.7c-1.1-1.1-1.6-2.6-1.6-4.5v-0.4c0-1.3,0.2-2.4,0.7-3.4
	c0.5-1,1.2-1.8,2-2.3c0.9-0.6,1.8-0.8,2.8-0.8c1.6,0,2.9,0.5,3.8,1.6c0.9,1.1,1.4,2.6,1.4,4.7v0.9h-8.6c0,1.2,0.4,2.3,1.1,3
	c0.7,0.8,1.6,1.1,2.7,1.1c0.8,0,1.4-0.2,1.9-0.5c0.5-0.3,1-0.7,1.4-1.2l1.3,1C70.9,159.4,69.3,160.2,67.1,160.2z M66.9,148.9
	c-0.9,0-1.6,0.3-2.2,1c-0.6,0.6-1,1.5-1.1,2.7h6.4v-0.2c-0.1-1.1-0.4-2-0.9-2.6C68.5,149.2,67.8,148.9,66.9,148.9z M85.3,153.8
	c0,1.9-0.4,3.5-1.3,4.7c-0.9,1.2-2.1,1.8-3.6,1.8c-1.5,0-2.8-0.5-3.6-1.5v6.1h-2.2v-17.6h2l0.1,1.4c0.9-1.1,2.1-1.6,3.7-1.6
	c1.5,0,2.7,0.6,3.6,1.7c0.9,1.1,1.3,2.7,1.3,4.8V153.8z M83.1,153.6c0-1.4-0.3-2.6-0.9-3.4c-0.6-0.8-1.4-1.2-2.5-1.2
	c-1.3,0-2.3,0.6-3,1.7v6.1c0.6,1.2,1.6,1.7,3,1.7c1,0,1.9-0.4,2.5-1.2C82.8,156.4,83.1,155.2,83.1,153.6z M96.3,147.3h2.2V160h-2.2
	v-9.2l-5.8,9.2h-2.2v-12.7h2.2v9.3L96.3,147.3z M111.4,149.1h-4.3V160h-2.2v-10.9h-4.2v-1.8h10.6V149.1z M117.8,160.2
	c-1.7,0-3.1-0.6-4.2-1.7c-1.1-1.1-1.6-2.6-1.6-4.5v-0.4c0-1.3,0.2-2.4,0.7-3.4c0.5-1,1.2-1.8,2-2.3c0.9-0.6,1.8-0.8,2.8-0.8
	c1.6,0,2.9,0.5,3.8,1.6s1.4,2.6,1.4,4.7v0.9h-8.6c0,1.2,0.4,2.3,1.1,3c0.7,0.8,1.6,1.1,2.7,1.1c0.8,0,1.4-0.2,1.9-0.5
	c0.5-0.3,1-0.7,1.4-1.2l1.3,1C121.5,159.4,119.9,160.2,117.8,160.2z M117.5,148.9c-0.9,0-1.6,0.3-2.2,1c-0.6,0.6-1,1.5-1.1,2.7h6.4
	v-0.2c-0.1-1.1-0.4-2-0.9-2.6C119.1,149.2,118.4,148.9,117.5,148.9z M9.6,195c-0.1-0.2-0.2-0.7-0.3-1.3c-1,1-2.2,1.6-3.6,1.6
	c-1.2,0-2.3-0.4-3.1-1.1c-0.8-0.7-1.2-1.6-1.2-2.7c0-1.3,0.5-2.3,1.5-3.1c1-0.7,2.4-1.1,4.2-1.1h2.1v-1c0-0.8-0.2-1.4-0.7-1.8
	c-0.5-0.5-1.1-0.7-2-0.7c-0.8,0-1.4,0.2-1.9,0.6s-0.8,0.9-0.8,1.4H1.7c0-0.6,0.2-1.2,0.7-1.8c0.5-0.6,1.1-1.1,1.8-1.4
	c0.8-0.3,1.6-0.5,2.5-0.5c1.5,0,2.6,0.4,3.4,1.1c0.8,0.7,1.3,1.7,1.3,3v5.8c0,1.2,0.1,2.1,0.4,2.8v0.2H9.6z M6,193.3
	c0.7,0,1.3-0.2,1.9-0.5c0.6-0.4,1.1-0.8,1.3-1.4v-2.6H7.6c-2.7,0-4,0.8-4,2.3c0,0.7,0.2,1.2,0.7,1.6C4.7,193.2,5.3,193.3,6,193.3z
	 M15.1,195v-12.7H20c1.7,0,3,0.3,3.9,0.9c0.9,0.6,1.4,1.4,1.4,2.6c0,0.6-0.2,1.1-0.5,1.6c-0.4,0.5-0.9,0.8-1.6,1.1
	c0.8,0.2,1.4,0.5,1.8,1.1c0.5,0.5,0.7,1.1,0.7,1.9c0,1.2-0.4,2.1-1.3,2.7c-0.9,0.6-2.1,0.9-3.6,0.9H15.1z M17.2,189.4v3.8h3.6
	c0.9,0,1.6-0.2,2-0.5c0.5-0.3,0.7-0.8,0.7-1.4c0-1.3-0.9-1.9-2.8-1.9H17.2z M17.2,187.7H20c2,0,3-0.6,3-1.8c0-1.2-1-1.8-2.9-1.8h-3
	V187.7z M37.9,184.1h-4.3V195h-2.2v-10.9h-4.2v-1.8h10.6V184.1z M38.9,188.5c0-1.2,0.2-2.4,0.7-3.4c0.5-1,1.2-1.8,2-2.3
	c0.9-0.5,1.9-0.8,3-0.8c1.7,0,3.1,0.6,4.2,1.8c1.1,1.2,1.6,2.8,1.6,4.8v0.2c0,1.2-0.2,2.3-0.7,3.3c-0.5,1-1.1,1.7-2,2.3
	c-0.9,0.5-1.9,0.8-3,0.8c-1.7,0-3.1-0.6-4.2-1.8c-1.1-1.2-1.6-2.8-1.6-4.7V188.5z M41.1,188.8c0,1.4,0.3,2.5,1,3.4
	c0.7,0.9,1.5,1.3,2.6,1.3c1.1,0,2-0.4,2.6-1.3c0.6-0.9,1-2.1,1-3.6c0-1.4-0.3-2.5-1-3.4c-0.7-0.9-1.5-1.3-2.6-1.3
	c-1.1,0-1.9,0.4-2.6,1.3C41.4,186,41.1,187.2,41.1,188.8z M60.5,192.1l4.3-9.8h2.7V195h-2.2v-9.2l-4.1,9.2h-1.5l-4.2-9.4v9.4h-2.2
	v-12.7h2.8L60.5,192.1z M70.4,188.5c0-1.2,0.2-2.4,0.7-3.4c0.5-1,1.2-1.8,2-2.3c0.9-0.5,1.9-0.8,3-0.8c1.7,0,3.1,0.6,4.2,1.8
	c1.1,1.2,1.6,2.8,1.6,4.8v0.2c0,1.2-0.2,2.3-0.7,3.3c-0.5,1-1.1,1.7-2,2.3c-0.9,0.5-1.9,0.8-3,0.8c-1.7,0-3.1-0.6-4.2-1.8
	c-1.1-1.2-1.6-2.8-1.6-4.7V188.5z M72.6,188.8c0,1.4,0.3,2.5,1,3.4c0.7,0.9,1.5,1.3,2.6,1.3c1.1,0,2-0.4,2.6-1.3
	c0.6-0.9,1-2.1,1-3.6c0-1.4-0.3-2.5-1-3.4c-0.7-0.9-1.5-1.3-2.6-1.3c-1.1,0-1.9,0.4-2.6,1.3C72.9,186,72.6,187.2,72.6,188.8z
	 M90.2,183c1.6,0,2.9,0.5,3.8,1.6c1,1.1,1.4,2.5,1.4,4.2v0.2c0,1.2-0.2,2.3-0.7,3.2c-0.5,0.9-1.1,1.7-2,2.2c-0.9,0.5-1.9,0.8-3,0.8
	c-1.7,0-3.1-0.6-4.1-1.7c-1-1.1-1.6-2.7-1.6-4.6v-1.1c0-2.7,0.5-4.8,1.5-6.4c1-1.6,2.5-2.5,4.4-2.9c1.1-0.2,1.8-0.4,2.2-0.7
	s0.6-0.7,0.6-1.2h1.8c0,1-0.2,1.7-0.7,2.3c-0.4,0.5-1.1,0.9-2.1,1.2l-1.6,0.4c-1.3,0.3-2.3,0.8-2.9,1.5c-0.6,0.7-1.1,1.7-1.3,2.9
	C87.2,183.7,88.6,183,90.2,183z M89.8,184.8c-1.1,0-1.9,0.4-2.5,1.1c-0.6,0.7-0.9,1.7-0.9,3v0.2c0,1.4,0.3,2.4,0.9,3.2
	c0.6,0.8,1.5,1.2,2.6,1.2c1.1,0,1.9-0.4,2.6-1.2c0.6-0.8,0.9-2,0.9-3.5c0-1.2-0.3-2.2-0.9-2.9C91.7,185.2,90.9,184.8,89.8,184.8z
	 M105.9,182.3h2.2V195h-2.2v-9.2l-5.8,9.2h-2.2v-12.7h2.2v9.3L105.9,182.3z M122,182.3V195h-2.2v-10.9h-4.3l-0.3,4.7
	c-0.1,2.2-0.5,3.7-1.1,4.7c-0.6,0.9-1.5,1.4-2.8,1.5h-0.9v-1.9l0.6,0c0.7-0.1,1.2-0.5,1.5-1.2c0.3-0.7,0.5-2.1,0.6-4.1l0.2-5.4H122z
	 M127.8,186.7h3.3c1.4,0,2.6,0.4,3.4,1.1c0.8,0.7,1.3,1.7,1.3,3c0,1.3-0.4,2.3-1.3,3c-0.9,0.8-2,1.1-3.5,1.1h-5.4v-12.7h2.2V186.7z
	 M127.8,188.5v4.8h3.2c0.8,0,1.4-0.2,1.9-0.6c0.4-0.4,0.7-1,0.7-1.7c0-0.7-0.2-1.3-0.7-1.7c-0.4-0.5-1-0.7-1.8-0.7H127.8z"/>
<path class="st0" d="M348.2,147.5c0-0.9-0.3-1.6-1-2.2c-0.7-0.5-1.6-0.8-2.8-0.8c-1,0-1.8,0.3-2.5,0.8c-0.7,0.5-1,1.2-1,2h-2.2
	c0-0.9,0.2-1.7,0.7-2.4c0.5-0.7,1.2-1.3,2.1-1.7c0.9-0.4,1.9-0.6,3-0.6c1.9,0,3.4,0.4,4.4,1.3c1.1,0.9,1.6,2,1.6,3.6
	c0,0.8-0.2,1.5-0.7,2.2c-0.5,0.6-1.2,1.2-2,1.5c2,0.7,3,2,3,4c0,1.5-0.6,2.7-1.7,3.6c-1.1,0.9-2.7,1.3-4.6,1.3
	c-1.1,0-2.2-0.2-3.1-0.6c-0.9-0.4-1.6-1-2.2-1.7c-0.5-0.7-0.8-1.6-0.8-2.6h2.2c0,0.9,0.4,1.6,1.1,2.2c0.7,0.6,1.6,0.9,2.7,0.9
	c1.2,0,2.2-0.3,2.9-0.9c0.7-0.6,1.1-1.3,1.1-2.3c0-2-1.2-3-3.7-3.1h-2.1v-1.9h2.1c1.1,0,2-0.3,2.6-0.8
	C347.9,149.1,348.2,148.4,348.2,147.5z M361.2,160c-0.1-0.2-0.2-0.7-0.3-1.3c-1,1-2.2,1.6-3.6,1.6c-1.2,0-2.3-0.4-3.1-1.1
	c-0.8-0.7-1.2-1.6-1.2-2.7c0-1.3,0.5-2.3,1.5-3.1c1-0.7,2.4-1.1,4.2-1.1h2.1v-1c0-0.8-0.2-1.4-0.7-1.8c-0.5-0.5-1.1-0.7-2-0.7
	c-0.8,0-1.4,0.2-1.9,0.6c-0.5,0.4-0.8,0.9-0.8,1.4h-2.2c0-0.6,0.2-1.2,0.7-1.8c0.5-0.6,1.1-1.1,1.8-1.4c0.8-0.3,1.6-0.5,2.5-0.5
	c1.5,0,2.6,0.4,3.4,1.1c0.8,0.7,1.3,1.7,1.3,3v5.8c0,1.2,0.1,2.1,0.4,2.8v0.2H361.2z M357.6,158.3c0.7,0,1.3-0.2,1.9-0.5
	c0.6-0.4,1.1-0.8,1.3-1.4v-2.6h-1.7c-2.7,0-4,0.8-4,2.3c0,0.7,0.2,1.2,0.7,1.6C356.3,158.2,356.9,158.3,357.6,158.3z M372,148
	c1.6,0,2.9,0.5,3.8,1.6c1,1.1,1.4,2.5,1.4,4.2v0.2c0,1.2-0.2,2.3-0.7,3.2c-0.5,0.9-1.1,1.7-2,2.2c-0.9,0.5-1.9,0.8-3,0.8
	c-1.7,0-3.1-0.6-4.1-1.7c-1-1.1-1.6-2.7-1.6-4.6v-1.1c0-2.7,0.5-4.8,1.5-6.4c1-1.6,2.5-2.5,4.4-2.9c1.1-0.2,1.8-0.4,2.2-0.7
	s0.6-0.7,0.6-1.2h1.8c0,1-0.2,1.7-0.7,2.3c-0.4,0.5-1.1,0.9-2.1,1.2l-1.6,0.4c-1.3,0.3-2.3,0.8-2.9,1.5c-0.6,0.7-1.1,1.7-1.3,2.9
	C368.9,148.7,370.3,148,372,148z M371.5,149.8c-1.1,0-1.9,0.4-2.5,1.1c-0.6,0.7-0.9,1.7-0.9,3v0.2c0,1.4,0.3,2.4,0.9,3.2
	c0.6,0.8,1.5,1.2,2.6,1.2c1.1,0,1.9-0.4,2.6-1.2c0.6-0.8,0.9-2,0.9-3.5c0-1.2-0.3-2.2-0.9-2.9C373.5,150.2,372.6,149.8,371.5,149.8z
	 M390.2,153.8c0,1.9-0.4,3.5-1.3,4.7c-0.9,1.2-2.1,1.8-3.6,1.8c-1.5,0-2.8-0.5-3.6-1.5v6.1h-2.2v-17.6h2l0.1,1.4
	c0.9-1.1,2.1-1.6,3.7-1.6c1.5,0,2.7,0.6,3.6,1.7c0.9,1.1,1.3,2.7,1.3,4.8V153.8z M388,153.6c0-1.4-0.3-2.6-0.9-3.4
	c-0.6-0.8-1.4-1.2-2.5-1.2c-1.3,0-2.3,0.6-3,1.7v6.1c0.6,1.2,1.6,1.7,3,1.7c1,0,1.9-0.4,2.5-1.2C387.7,156.4,388,155.2,388,153.6z
	 M392.4,153.5c0-1.2,0.2-2.4,0.7-3.4c0.5-1,1.2-1.8,2-2.3c0.9-0.5,1.9-0.8,3-0.8c1.7,0,3.1,0.6,4.2,1.8c1.1,1.2,1.6,2.8,1.6,4.8v0.2
	c0,1.2-0.2,2.3-0.7,3.3c-0.5,1-1.1,1.7-2,2.3c-0.9,0.5-1.9,0.8-3,0.8c-1.7,0-3.1-0.6-4.2-1.8c-1.1-1.2-1.6-2.8-1.6-4.7V153.5z
	 M394.5,153.8c0,1.4,0.3,2.5,1,3.4c0.7,0.9,1.5,1.3,2.6,1.3c1.1,0,2-0.4,2.6-1.3c0.6-0.9,1-2.1,1-3.6c0-1.4-0.3-2.5-1-3.4
	c-0.7-0.9-1.5-1.3-2.6-1.3c-1.1,0-1.9,0.4-2.6,1.3C394.9,151,394.5,152.2,394.5,153.8z M417,160h-2.2v-5.4H409v5.4h-2.2v-12.7h2.2
	v5.5h5.8v-5.5h2.2V160z M428.7,147.3h2.2V160h-2.2v-9.2l-5.8,9.2h-2.2v-12.7h2.2v9.3L428.7,147.3z M445,153.8c0,1.9-0.4,3.5-1.3,4.7
	c-0.9,1.2-2.1,1.8-3.6,1.8c-1.5,0-2.8-0.5-3.6-1.5v6.1h-2.2v-17.6h2l0.1,1.4c0.9-1.1,2.1-1.6,3.7-1.6c1.5,0,2.7,0.6,3.6,1.7
	c0.9,1.1,1.3,2.7,1.3,4.8V153.8z M442.9,153.6c0-1.4-0.3-2.6-0.9-3.4c-0.6-0.8-1.4-1.2-2.5-1.2c-1.3,0-2.3,0.6-3,1.7v6.1
	c0.6,1.2,1.6,1.7,3,1.7c1,0,1.9-0.4,2.5-1.2C442.6,156.4,442.9,155.2,442.9,153.6z M451.8,156.8l3-9.5h2.3L452,162
	c-0.8,2.1-2,3.2-3.8,3.2l-0.4,0l-0.8-0.2v-1.8l0.6,0c0.7,0,1.3-0.1,1.7-0.4c0.4-0.3,0.8-0.8,1-1.6l0.5-1.3l-4.5-12.5h2.4
	L451.8,156.8z M467.2,147.3h2.2V160h-2.2v-9.2l-5.8,9.2h-2.2v-12.7h2.2v9.3L467.2,147.3z M467.8,142.7c0,0.9-0.3,1.7-1,2.3
	c-0.6,0.6-1.5,0.9-2.5,0.9s-1.9-0.3-2.5-0.9c-0.6-0.6-1-1.3-1-2.3h1.8c0,0.5,0.1,1,0.4,1.3c0.3,0.3,0.7,0.5,1.3,0.5
	c0.5,0,1-0.2,1.3-0.5c0.3-0.3,0.5-0.7,0.5-1.3H467.8z M482.3,149.1H478V160h-2.2v-10.9h-4.2v-1.8h10.6V149.1z M488.7,160.2
	c-1.7,0-3.1-0.6-4.2-1.7c-1.1-1.1-1.6-2.6-1.6-4.5v-0.4c0-1.3,0.2-2.4,0.7-3.4c0.5-1,1.2-1.8,2-2.3c0.9-0.6,1.8-0.8,2.8-0.8
	c1.6,0,2.9,0.5,3.8,1.6s1.4,2.6,1.4,4.7v0.9h-8.6c0,1.2,0.4,2.3,1.1,3c0.7,0.8,1.6,1.1,2.7,1.1c0.8,0,1.4-0.2,1.9-0.5
	c0.5-0.3,1-0.7,1.4-1.2l1.3,1C492.4,159.4,490.9,160.2,488.7,160.2z M488.5,148.9c-0.9,0-1.6,0.3-2.2,1c-0.6,0.6-1,1.5-1.1,2.7h6.4
	v-0.2c-0.1-1.1-0.4-2-0.9-2.6C490.1,149.2,489.4,148.9,488.5,148.9z M344,193.2l0.8-0.9c0.8-1.1,1.3-2.7,1.4-4.9l0.2-5.1h8.2v10.9
	h1.6v5.5H354V195h-8.8v3.7H343l0-5.5H344z M346.6,193.2h5.8v-8.9h-3.9l-0.1,3C348.2,189.9,347.6,191.8,346.6,193.2z M366.4,195
	c-0.1-0.2-0.2-0.7-0.3-1.3c-1,1-2.2,1.6-3.6,1.6c-1.2,0-2.3-0.4-3.1-1.1c-0.8-0.7-1.2-1.6-1.2-2.7c0-1.3,0.5-2.3,1.5-3.1
	c1-0.7,2.4-1.1,4.2-1.1h2.1v-1c0-0.8-0.2-1.4-0.7-1.8c-0.5-0.5-1.1-0.7-2-0.7c-0.8,0-1.4,0.2-1.9,0.6s-0.8,0.9-0.8,1.4h-2.2
	c0-0.6,0.2-1.2,0.7-1.8c0.5-0.6,1.1-1.1,1.8-1.4c0.8-0.3,1.6-0.5,2.5-0.5c1.5,0,2.6,0.4,3.4,1.1c0.8,0.7,1.3,1.7,1.3,3v5.8
	c0,1.2,0.1,2.1,0.4,2.8v0.2H366.4z M362.8,193.3c0.7,0,1.3-0.2,1.9-0.5c0.6-0.4,1.1-0.8,1.3-1.4v-2.6h-1.7c-2.7,0-4,0.8-4,2.3
	c0,0.7,0.2,1.2,0.7,1.6C361.5,193.2,362.1,193.3,362.8,193.3z M380.9,184.1h-4.3V195h-2.2v-10.9h-4.2v-1.8h10.6V184.1z M387.3,191.8
	l3-9.5h2.3l-5.1,14.6c-0.8,2.1-2,3.2-3.8,3.2l-0.4,0l-0.8-0.2v-1.8l0.6,0c0.7,0,1.3-0.1,1.7-0.4c0.4-0.3,0.8-0.8,1-1.6l0.5-1.3
	l-4.5-12.5h2.4L387.3,191.8z M408.7,182.3h2.2V195h-2.2v-9.2l-5.8,9.2h-2.2v-12.7h2.2v9.3L408.7,182.3z M420.5,195v-12.7h4.9
	c1.7,0,3,0.3,3.9,0.9c0.9,0.6,1.4,1.4,1.4,2.6c0,0.6-0.2,1.1-0.5,1.6c-0.4,0.5-0.9,0.8-1.6,1.1c0.8,0.2,1.4,0.5,1.8,1.1
	c0.5,0.5,0.7,1.1,0.7,1.9c0,1.2-0.4,2.1-1.3,2.7c-0.9,0.6-2.1,0.9-3.6,0.9H420.5z M422.6,189.4v3.8h3.6c0.9,0,1.6-0.2,2-0.5
	c0.5-0.3,0.7-0.8,0.7-1.4c0-1.3-0.9-1.9-2.8-1.9H422.6z M422.6,187.7h2.8c2,0,3-0.6,3-1.8c0-1.2-1-1.8-2.9-1.8h-3V187.7z
	 M444.7,188.8c0,1.9-0.4,3.5-1.3,4.7c-0.9,1.2-2.1,1.8-3.6,1.8c-1.5,0-2.8-0.5-3.6-1.5v6.1H434v-17.6h2l0.1,1.4
	c0.9-1.1,2.1-1.6,3.7-1.6c1.5,0,2.7,0.6,3.6,1.7c0.9,1.1,1.3,2.7,1.3,4.8V188.8z M442.5,188.6c0-1.4-0.3-2.6-0.9-3.4
	c-0.6-0.8-1.4-1.2-2.5-1.2c-1.3,0-2.3,0.6-3,1.7v6.1c0.6,1.2,1.6,1.7,3,1.7c1,0,1.9-0.4,2.5-1.2
	C442.2,191.4,442.5,190.2,442.5,188.6z M452.7,195.2c-1.7,0-3.1-0.6-4.2-1.7c-1.1-1.1-1.6-2.6-1.6-4.5v-0.4c0-1.3,0.2-2.4,0.7-3.4
	c0.5-1,1.2-1.8,2-2.3c0.9-0.6,1.8-0.8,2.8-0.8c1.6,0,2.9,0.5,3.8,1.6s1.4,2.6,1.4,4.7v0.9h-8.6c0,1.2,0.4,2.3,1.1,3
	c0.7,0.8,1.6,1.1,2.7,1.1c0.8,0,1.4-0.2,1.9-0.5c0.5-0.3,1-0.7,1.4-1.2l1.3,1C456.4,194.4,454.8,195.2,452.7,195.2z M452.4,183.9
	c-0.9,0-1.6,0.3-2.2,1c-0.6,0.6-1,1.5-1.1,2.7h6.4v-0.2c-0.1-1.1-0.4-2-0.9-2.6C454.1,184.2,453.4,183.9,452.4,183.9z M467.5,192.1
	l4.3-9.8h2.7V195h-2.2v-9.2l-4.1,9.2h-1.5l-4.2-9.4v9.4h-2.2v-12.7h2.8L467.5,192.1z M487.7,182.3V195h-2.2v-4.9h-3.3l-3,4.9h-2.3
	l3.2-5.3c-0.8-0.3-1.4-0.8-1.9-1.4c-0.4-0.6-0.6-1.4-0.6-2.2c0-1.2,0.4-2.1,1.3-2.8c0.9-0.7,2-1.1,3.5-1.1H487.7z M479.8,186.2
	c0,0.6,0.2,1.1,0.6,1.5c0.4,0.4,1,0.6,1.7,0.6h3.4v-4.2h-3.1c-0.8,0-1.4,0.2-1.9,0.6C480,185.1,479.8,185.6,479.8,186.2z"/>
<path class="st0" d="M727.5,160h-2.3v-15.2h-8.4V160h-2.2v-17.1h12.9V160z M730.6,153.5c0-1.2,0.2-2.4,0.7-3.4c0.5-1,1.2-1.8,2-2.3
	c0.9-0.5,1.9-0.8,3-0.8c1.7,0,3.1,0.6,4.2,1.8c1.1,1.2,1.6,2.8,1.6,4.8v0.2c0,1.2-0.2,2.3-0.7,3.3c-0.5,1-1.1,1.7-2,2.3
	c-0.9,0.5-1.9,0.8-3,0.8c-1.7,0-3.1-0.6-4.2-1.8c-1.1-1.2-1.6-2.8-1.6-4.7V153.5z M732.8,153.8c0,1.4,0.3,2.5,1,3.4
	c0.7,0.9,1.5,1.3,2.6,1.3c1.1,0,2-0.4,2.6-1.3c0.6-0.9,1-2.1,1-3.6c0-1.4-0.3-2.5-1-3.4c-0.7-0.9-1.5-1.3-2.6-1.3
	c-1.1,0-1.9,0.4-2.6,1.3C733.2,151,732.8,152.2,732.8,153.8z M755.1,147.3V160h-2.2v-10.9h-4.3l-0.3,4.7c-0.1,2.2-0.5,3.7-1.1,4.7
	c-0.6,0.9-1.5,1.4-2.8,1.5h-0.9v-1.9l0.6,0c0.7-0.1,1.2-0.5,1.5-1.2c0.3-0.7,0.5-2.1,0.6-4.1l0.2-5.4H755.1z M762.7,156.8l3-9.5h2.3
	l-5.1,14.6c-0.8,2.1-2,3.2-3.8,3.2l-0.4,0l-0.8-0.2v-1.8l0.6,0c0.7,0,1.3-0.1,1.7-0.4c0.4-0.3,0.8-0.8,1-1.6l0.5-1.3l-4.5-12.5h2.4
	L762.7,156.8z M779.5,160h-2.2v-4.6c-1,0.2-1.9,0.4-2.9,0.4c-1.6,0-2.8-0.4-3.6-1.2c-0.8-0.8-1.2-2-1.3-3.5v-3.8h2.2v3.9
	c0,1.9,0.9,2.8,2.7,2.8c1,0,2-0.1,2.9-0.4v-6.3h2.2V160z M791.2,147.3h2.2V160h-2.2v-9.2l-5.8,9.2h-2.2v-12.7h2.2v9.3L791.2,147.3z
	 M806.3,149.1H802V160h-2.2v-10.9h-4.2v-1.8h10.6V149.1z M812.7,160.2c-1.7,0-3.1-0.6-4.2-1.7c-1.1-1.1-1.6-2.6-1.6-4.5v-0.4
	c0-1.3,0.2-2.4,0.7-3.4c0.5-1,1.2-1.8,2-2.3c0.9-0.6,1.8-0.8,2.8-0.8c1.6,0,2.9,0.5,3.8,1.6s1.4,2.6,1.4,4.7v0.9h-8.6
	c0,1.2,0.4,2.3,1.1,3c0.7,0.8,1.6,1.1,2.7,1.1c0.8,0,1.4-0.2,1.9-0.5c0.5-0.3,1-0.7,1.4-1.2l1.3,1
	C816.4,159.4,814.9,160.2,812.7,160.2z M812.5,148.9c-0.9,0-1.6,0.3-2.2,1c-0.6,0.6-1,1.5-1.1,2.7h6.4v-0.2c-0.1-1.1-0.4-2-0.9-2.6
	C814.1,149.2,813.4,148.9,812.5,148.9z M706.6,195c-0.1-0.2-0.2-0.7-0.3-1.3c-1,1-2.2,1.6-3.6,1.6c-1.2,0-2.3-0.4-3.1-1.1
	c-0.8-0.7-1.2-1.6-1.2-2.7c0-1.3,0.5-2.3,1.5-3.1c1-0.7,2.4-1.1,4.2-1.1h2.1v-1c0-0.8-0.2-1.4-0.7-1.8c-0.5-0.5-1.1-0.7-2-0.7
	c-0.8,0-1.4,0.2-1.9,0.6c-0.5,0.4-0.8,0.9-0.8,1.4h-2.2c0-0.6,0.2-1.2,0.7-1.8c0.5-0.6,1.1-1.1,1.8-1.4c0.8-0.3,1.6-0.5,2.5-0.5
	c1.5,0,2.6,0.4,3.4,1.1c0.8,0.7,1.3,1.7,1.3,3v5.8c0,1.2,0.1,2.1,0.4,2.8v0.2H706.6z M703,193.3c0.7,0,1.3-0.2,1.9-0.5
	c0.6-0.4,1-0.8,1.3-1.4v-2.6h-1.7c-2.7,0-4,0.8-4,2.3c0,0.7,0.2,1.2,0.7,1.6C701.7,193.2,702.3,193.3,703,193.3z M712.1,195v-12.7
	h4.9c1.7,0,3,0.3,3.9,0.9c0.9,0.6,1.4,1.4,1.4,2.6c0,0.6-0.2,1.1-0.5,1.6c-0.4,0.5-0.9,0.8-1.6,1.1c0.8,0.2,1.4,0.5,1.8,1.1
	c0.5,0.5,0.7,1.1,0.7,1.9c0,1.2-0.4,2.1-1.3,2.7c-0.9,0.6-2.1,0.9-3.6,0.9H712.1z M714.2,189.4v3.8h3.6c0.9,0,1.6-0.2,2-0.5
	c0.5-0.3,0.7-0.8,0.7-1.4c0-1.3-0.9-1.9-2.8-1.9H714.2z M714.2,187.7h2.8c2,0,3-0.6,3-1.8c0-1.2-1-1.8-2.9-1.8h-3V187.7z
	 M734.9,184.1h-4.3V195h-2.2v-10.9h-4.2v-1.8h10.6V184.1z M735.9,188.5c0-1.2,0.2-2.4,0.7-3.4c0.5-1,1.2-1.8,2-2.3
	c0.9-0.5,1.9-0.8,3-0.8c1.7,0,3.1,0.6,4.2,1.8c1.1,1.2,1.6,2.8,1.6,4.8v0.2c0,1.2-0.2,2.3-0.7,3.3c-0.5,1-1.1,1.7-2,2.3
	c-0.9,0.5-1.9,0.8-3,0.8c-1.7,0-3.1-0.6-4.2-1.8c-1.1-1.2-1.6-2.8-1.6-4.7V188.5z M738.1,188.8c0,1.4,0.3,2.5,1,3.4
	c0.7,0.9,1.5,1.3,2.6,1.3c1.1,0,2-0.4,2.6-1.3c0.6-0.9,1-2.1,1-3.6c0-1.4-0.3-2.5-1-3.4c-0.7-0.9-1.5-1.3-2.6-1.3
	c-1.1,0-1.9,0.4-2.6,1.3C738.4,186,738.1,187.2,738.1,188.8z M757.5,192.1l4.3-9.8h2.7V195h-2.2v-9.2l-4.1,9.2h-1.5l-4.2-9.4v9.4
	h-2.2v-12.7h2.8L757.5,192.1z M767.4,188.5c0-1.2,0.2-2.4,0.7-3.4c0.5-1,1.2-1.8,2-2.3c0.9-0.5,1.9-0.8,3-0.8c1.7,0,3.1,0.6,4.2,1.8
	c1.1,1.2,1.6,2.8,1.6,4.8v0.2c0,1.2-0.2,2.3-0.7,3.3c-0.5,1-1.1,1.7-2,2.3c-0.9,0.5-1.9,0.8-3,0.8c-1.7,0-3.1-0.6-4.2-1.8
	c-1.1-1.2-1.6-2.8-1.6-4.7V188.5z M769.6,188.8c0,1.4,0.3,2.5,1,3.4c0.7,0.9,1.5,1.3,2.6,1.3c1.1,0,2-0.4,2.6-1.3
	c0.6-0.9,1-2.1,1-3.6c0-1.4-0.3-2.5-1-3.4c-0.7-0.9-1.5-1.3-2.6-1.3c-1.1,0-1.9,0.4-2.6,1.3C769.9,186,769.6,187.2,769.6,188.8z
	 M787.2,183c1.6,0,2.9,0.5,3.8,1.6c1,1.1,1.4,2.5,1.4,4.2v0.2c0,1.2-0.2,2.3-0.7,3.2c-0.5,0.9-1.1,1.7-2,2.2c-0.9,0.5-1.9,0.8-3,0.8
	c-1.7,0-3.1-0.6-4.1-1.7c-1-1.1-1.6-2.7-1.6-4.6v-1.1c0-2.7,0.5-4.8,1.5-6.4c1-1.6,2.5-2.5,4.4-2.9c1.1-0.2,1.8-0.4,2.2-0.7
	c0.4-0.3,0.6-0.7,0.6-1.2h1.8c0,1-0.2,1.7-0.7,2.3c-0.4,0.5-1.1,0.9-2.1,1.2l-1.6,0.4c-1.3,0.3-2.3,0.8-2.9,1.5
	c-0.6,0.7-1.1,1.7-1.3,2.9C784.2,183.7,785.6,183,787.2,183z M786.8,184.8c-1.1,0-1.9,0.4-2.5,1.1c-0.6,0.7-0.9,1.7-0.9,3v0.2
	c0,1.4,0.3,2.4,0.9,3.2c0.6,0.8,1.5,1.2,2.6,1.2c1.1,0,1.9-0.4,2.6-1.2c0.6-0.8,0.9-2,0.9-3.5c0-1.2-0.3-2.2-0.9-2.9
	C788.7,185.2,787.9,184.8,786.8,184.8z M802.9,182.3h2.2V195h-2.2v-9.2l-5.8,9.2h-2.2v-12.7h2.2v9.3L802.9,182.3z M819,182.3V195
	h-2.2v-10.9h-4.3l-0.3,4.7c-0.1,2.2-0.5,3.7-1.1,4.7c-0.6,0.9-1.5,1.4-2.8,1.5h-0.9v-1.9l0.6,0c0.7-0.1,1.2-0.5,1.5-1.2
	c0.3-0.7,0.5-2.1,0.6-4.1l0.2-5.4H819z M824.8,186.7h3.3c1.4,0,2.6,0.4,3.4,1.1c0.8,0.7,1.3,1.7,1.3,3c0,1.3-0.4,2.3-1.3,3
	c-0.9,0.8-2,1.1-3.5,1.1h-5.4v-12.7h2.2V186.7z M824.8,188.5v4.8h3.2c0.8,0,1.4-0.2,1.9-0.6c0.4-0.4,0.7-1,0.7-1.7
	c0-0.7-0.2-1.3-0.7-1.7c-0.4-0.5-1-0.7-1.8-0.7H824.8z"/>
<circle class="st1" cx="68" cy="54" r="54"/>
<circle class="st1" cx="766" cy="54" r="54"/>
<circle class="st1" cx="417" cy="54" r="54"/>
<path class="st2" d="M73.7,71h-7.9V45.8L58,48.1v-6l15-5.2h0.7V71z"/>
<path class="st2" d="M429,71h-23.8v-5.2l11-11.5c2.7-3.1,4.1-5.5,4.1-7.3c0-1.5-0.3-2.6-1-3.4s-1.6-1.1-2.8-1.1
	c-1.2,0-2.2,0.5-2.9,1.5c-0.8,1-1.1,2.3-1.1,3.8h-7.9c0-2.1,0.5-4,1.6-5.8c1-1.8,2.5-3.2,4.4-4.2s3.9-1.5,6.2-1.5
	c3.7,0,6.5,0.9,8.5,2.6c2,1.7,3,4.1,3,7.3c0,1.3-0.2,2.7-0.8,3.9c-0.5,1.3-1.3,2.6-2.3,4c-1,1.4-2.7,3.3-5.1,5.6l-4.4,5.1H429V71z"
	/>
<path class="st2" d="M761.4,50.6h3.7c3,0,4.4-1.4,4.4-4.3c0-1.1-0.4-2-1.1-2.7c-0.7-0.7-1.7-1.1-3-1.1c-1,0-2,0.3-2.7,0.9
	c-0.8,0.6-1.1,1.4-1.1,2.3h-7.9c0-1.8,0.5-3.4,1.5-4.8c1-1.4,2.4-2.5,4.1-3.3c1.8-0.8,3.7-1.2,5.9-1.2c3.8,0,6.8,0.9,9,2.6
	c2.2,1.7,3.3,4.1,3.3,7.1c0,1.5-0.5,2.9-1.4,4.2c-0.9,1.3-2.2,2.4-3.9,3.2c1.8,0.7,3.2,1.7,4.3,3c1,1.3,1.5,3,1.5,4.9
	c0,3-1.2,5.5-3.5,7.3c-2.3,1.8-5.4,2.7-9.2,2.7c-2.2,0-4.3-0.4-6.2-1.3c-1.9-0.9-3.4-2-4.3-3.5c-1-1.5-1.5-3.2-1.5-5.2h7.9
	c0,1,0.4,2,1.3,2.7c0.8,0.8,1.9,1.1,3.1,1.1c1.4,0,2.5-0.4,3.3-1.1c0.8-0.8,1.2-1.8,1.2-3c0-1.7-0.4-2.9-1.3-3.7
	c-0.9-0.7-2-1.1-3.6-1.1h-3.8V50.6z"/>
<line class="st3" x1="127" y1="54" x2="358" y2="54"/>
<line class="st3" x1="476" y1="54" x2="707" y2="54"/>
</svg>
