<?xml version="1.0" encoding="utf-8"?>
<!-- Generator: Adobe Illustrator 23.0.3, SVG Export Plug-In . SVG Version: 6.00 Build 0)  -->
<svg version="1.1" id="Слой_1" xmlns="http://www.w3.org/2000/svg" xmlns:xlink="http://www.w3.org/1999/xlink" x="0px" y="0px"
	 viewBox="0 0 108 108" style="enable-background:new 0 0 108 108;" xml:space="preserve">
<style type="text/css">
	.st0{fill:#61A199;}
	.st1{fill:#FFFFFF;}
</style>
<circle class="st0" cx="54" cy="54" r="54"/>
<path class="st1" d="M69.4,76.3H39.1v-6.6l14-14.7c3.4-3.9,5.2-7,5.2-9.3c0-1.9-0.4-3.3-1.2-4.3c-0.8-1-2-1.5-3.6-1.5
	c-1.5,0-2.8,0.7-3.7,2c-1,1.3-1.4,2.9-1.4,4.9H38.2c0-2.7,0.7-5.1,2-7.4c1.3-2.3,3.2-4,5.5-5.3c2.4-1.3,5-1.9,7.9-1.9
	c4.7,0,8.3,1.1,10.8,3.3c2.5,2.2,3.8,5.3,3.8,9.3c0,1.7-0.3,3.4-1,5c-0.6,1.6-1.6,3.3-3,5.1c-1.3,1.8-3.5,4.1-6.5,7.1l-5.6,6.5h17.1
	V76.3z"/>
</svg>
