<?xml version="1.0" encoding="utf-8"?>
<!-- Generator: Adobe Illustrator 23.0.3, SVG Export Plug-In . SVG Version: 6.00 Build 0)  -->
<svg version="1.1" id="Слой_1" xmlns="http://www.w3.org/2000/svg" xmlns:xlink="http://www.w3.org/1999/xlink" x="0px" y="0px"
	 viewBox="0 0 108 108" style="enable-background:new 0 0 108 108;" xml:space="preserve">
<style type="text/css">
	.st0{fill:#61A199;}
	.st1{fill:#FFFFFF;}
</style>
<circle class="st0" cx="54" cy="54" r="54"/>
<path class="st1" d="M48.5,50.1h4.7c3.7,0,5.6-1.8,5.6-5.4c0-1.4-0.4-2.6-1.3-3.4c-0.9-0.9-2.1-1.4-3.7-1.4c-1.3,0-2.5,0.4-3.4,1.1
	c-1,0.8-1.4,1.7-1.4,2.9h-9.9c0-2.3,0.6-4.3,1.9-6c1.3-1.8,3-3.1,5.2-4.1c2.2-1,4.7-1.5,7.4-1.5c4.8,0,8.5,1.1,11.2,3.3
	c2.7,2.2,4.1,5.2,4.1,9c0,1.8-0.6,3.6-1.7,5.2c-1.1,1.6-2.8,3-4.9,4c2.3,0.8,4.1,2.1,5.4,3.8c1.3,1.7,1.9,3.7,1.9,6.2
	c0,3.8-1.5,6.9-4.4,9.2c-2.9,2.3-6.8,3.4-11.6,3.4c-2.8,0-5.4-0.5-7.8-1.6c-2.4-1.1-4.2-2.6-5.4-4.4c-1.2-1.9-1.9-4.1-1.9-6.5h10
	c0,1.3,0.5,2.5,1.6,3.4c1.1,1,2.4,1.4,3.9,1.4c1.7,0,3.1-0.5,4.2-1.4c1-1,1.6-2.2,1.6-3.7c0-2.2-0.5-3.7-1.6-4.6
	c-1.1-0.9-2.6-1.4-4.5-1.4h-4.8V50.1z"/>
</svg>
