<svg width="967" height="204" viewBox="0 0 967 204" fill="none" xmlns="http://www.w3.org/2000/svg">
<path d="M45.0938 160V142.938H50.6719C52.5234 142.938 53.9141 143.32 54.8438 144.086C55.7812 144.852 56.25 145.984 56.25 147.484C56.25 148.281 56.0234 148.988 55.5703 149.605C55.1172 150.215 54.5 150.688 53.7188 151.023C54.6406 151.281 55.3672 151.773 55.8984 152.5C56.4375 153.219 56.707 154.078 56.707 155.078C56.707 156.609 56.2109 157.812 55.2188 158.688C54.2266 159.562 52.8242 160 51.0117 160H45.0938ZM47.3438 152.02V158.16H51.0586C52.1055 158.16 52.9297 157.891 53.5312 157.352C54.1406 156.805 54.4453 156.055 54.4453 155.102C54.4453 153.047 53.3281 152.02 51.0938 152.02H47.3438ZM47.3438 150.215H50.7422C51.7266 150.215 52.5117 149.969 53.0977 149.477C53.6914 148.984 53.9883 148.316 53.9883 147.473C53.9883 146.535 53.7148 145.855 53.168 145.434C52.6211 145.004 51.7891 144.789 50.6719 144.789H47.3438V150.215ZM62.0742 151.691H65.3672C66.8047 151.707 67.9414 152.082 68.7773 152.816C69.6133 153.551 70.0312 154.547 70.0312 155.805C70.0312 157.07 69.6016 158.086 68.7422 158.852C67.8828 159.617 66.7266 160 65.2734 160H59.9062V147.32H62.0742V151.691ZM74.5547 160H72.375V147.32H74.5547V160ZM62.0742 153.461V158.23H65.2969C66.1094 158.23 66.7383 158.023 67.1836 157.609C67.6289 157.188 67.8516 156.613 67.8516 155.887C67.8516 155.184 67.6328 154.609 67.1953 154.164C66.7656 153.711 66.1602 153.477 65.3789 153.461H62.0742ZM89.3789 158.465C90.1523 158.465 90.8281 158.23 91.4062 157.762C91.9844 157.293 92.3047 156.707 92.3672 156.004H94.418C94.3789 156.73 94.1289 157.422 93.668 158.078C93.207 158.734 92.5898 159.258 91.8164 159.648C91.0508 160.039 90.2383 160.234 89.3789 160.234C87.6523 160.234 86.2773 159.66 85.2539 158.512C84.2383 157.355 83.7305 155.777 83.7305 153.777V153.414C83.7305 152.18 83.957 151.082 84.4102 150.121C84.8633 149.16 85.5117 148.414 86.3555 147.883C87.207 147.352 88.2109 147.086 89.3672 147.086C90.7891 147.086 91.9688 147.512 92.9062 148.363C93.8516 149.215 94.3555 150.32 94.418 151.68H92.3672C92.3047 150.859 91.9922 150.188 91.4297 149.664C90.875 149.133 90.1875 148.867 89.3672 148.867C88.2656 148.867 87.4102 149.266 86.8008 150.062C86.1992 150.852 85.8984 151.996 85.8984 153.496V153.906C85.8984 155.367 86.1992 156.492 86.8008 157.281C87.4023 158.07 88.2617 158.465 89.3789 158.465ZM104.684 160C104.559 159.75 104.457 159.305 104.379 158.664C103.371 159.711 102.168 160.234 100.77 160.234C99.5195 160.234 98.4922 159.883 97.6875 159.18C96.8906 158.469 96.4922 157.57 96.4922 156.484C96.4922 155.164 96.9922 154.141 97.9922 153.414C99 152.68 100.414 152.312 102.234 152.312H104.344V151.316C104.344 150.559 104.117 149.957 103.664 149.512C103.211 149.059 102.543 148.832 101.66 148.832C100.887 148.832 100.238 149.027 99.7148 149.418C99.1914 149.809 98.9297 150.281 98.9297 150.836H96.75C96.75 150.203 96.9727 149.594 97.418 149.008C97.8711 148.414 98.4805 147.945 99.2461 147.602C100.02 147.258 100.867 147.086 101.789 147.086C103.25 147.086 104.395 147.453 105.223 148.188C106.051 148.914 106.48 149.918 106.512 151.199V157.035C106.512 158.199 106.66 159.125 106.957 159.812V160H104.684ZM101.086 158.348C101.766 158.348 102.41 158.172 103.02 157.82C103.629 157.469 104.07 157.012 104.344 156.449V153.848H102.645C99.9883 153.848 98.6602 154.625 98.6602 156.18C98.6602 156.859 98.8867 157.391 99.3398 157.773C99.793 158.156 100.375 158.348 101.086 158.348ZM117.211 157.129L121.523 147.32H124.23V160H122.062V150.777L117.961 160H116.461L112.277 150.578V160H110.109V147.32H112.922L117.211 157.129ZM135.926 147.32H138.094V160H135.926V150.754L130.078 160H127.91V147.32H130.078V156.578L135.926 147.32ZM5.78906 191.824L8.74219 182.32H11.0625L5.96484 196.957C5.17578 199.066 3.92188 200.121 2.20312 200.121L1.79297 200.086L0.984375 199.934V198.176L1.57031 198.223C2.30469 198.223 2.875 198.074 3.28125 197.777C3.69531 197.48 4.03516 196.938 4.30078 196.148L4.78125 194.859L0.257812 182.32H2.625L5.78906 191.824ZM16.957 189.598H15.375V195H13.1953V182.32H15.375V187.688H16.793L21.0586 182.32H23.6836L18.668 188.414L24.1055 195H21.3516L16.957 189.598ZM33.7969 195C33.6719 194.75 33.5703 194.305 33.4922 193.664C32.4844 194.711 31.2812 195.234 29.8828 195.234C28.6328 195.234 27.6055 194.883 26.8008 194.18C26.0039 193.469 25.6055 192.57 25.6055 191.484C25.6055 190.164 26.1055 189.141 27.1055 188.414C28.1133 187.68 29.5273 187.312 31.3477 187.312H33.457V186.316C33.457 185.559 33.2305 184.957 32.7773 184.512C32.3242 184.059 31.6562 183.832 30.7734 183.832C30 183.832 29.3516 184.027 28.8281 184.418C28.3047 184.809 28.043 185.281 28.043 185.836H25.8633C25.8633 185.203 26.0859 184.594 26.5312 184.008C26.9844 183.414 27.5938 182.945 28.3594 182.602C29.1328 182.258 29.9805 182.086 30.9023 182.086C32.3633 182.086 33.5078 182.453 34.3359 183.188C35.1641 183.914 35.5938 184.918 35.625 186.199V192.035C35.625 193.199 35.7734 194.125 36.0703 194.812V195H33.7969ZM30.1992 193.348C30.8789 193.348 31.5234 193.172 32.1328 192.82C32.7422 192.469 33.1836 192.012 33.457 191.449V188.848H31.7578C29.1016 188.848 27.7734 189.625 27.7734 191.18C27.7734 191.859 28 192.391 28.4531 192.773C28.9062 193.156 29.4883 193.348 30.1992 193.348ZM45.9961 185.789C45.9961 185.195 45.7695 184.727 45.3164 184.383C44.8633 184.031 44.2422 183.855 43.4531 183.855C42.6875 183.855 42.0469 184.055 41.5312 184.453C41.0234 184.852 40.7695 185.32 40.7695 185.859H38.6133C38.6133 184.758 39.0742 183.855 39.9961 183.152C40.918 182.449 42.0703 182.098 43.4531 182.098C44.9375 182.098 46.0938 182.418 46.9219 183.059C47.75 183.691 48.1641 184.598 48.1641 185.777C48.1641 186.348 47.9922 186.871 47.6484 187.348C47.3047 187.824 46.8164 188.203 46.1836 188.484C47.6602 188.984 48.3984 189.969 48.3984 191.438C48.3984 192.602 47.9492 193.523 47.0508 194.203C46.1523 194.883 44.9531 195.223 43.4531 195.223C41.9922 195.223 40.7852 194.867 39.832 194.156C38.8867 193.438 38.4141 192.469 38.4141 191.25H40.5703C40.5703 191.867 40.8438 192.398 41.3906 192.844C41.9453 193.281 42.6328 193.5 43.4531 193.5C44.2812 193.5 44.9492 193.309 45.457 192.926C45.9648 192.543 46.2188 192.047 46.2188 191.438C46.2188 190.727 46.0039 190.219 45.5742 189.914C45.1523 189.602 44.4922 189.445 43.5938 189.445H41.4258V187.617H43.7812C45.2578 187.578 45.9961 186.969 45.9961 185.789ZM53.5781 186.691H56.8711C58.3086 186.707 59.4453 187.082 60.2812 187.816C61.1172 188.551 61.5352 189.547 61.5352 190.805C61.5352 192.07 61.1055 193.086 60.2461 193.852C59.3867 194.617 58.2305 195 56.7773 195H51.4102V182.32H53.5781V186.691ZM66.0586 195H63.8789V182.32H66.0586V195ZM53.5781 188.461V193.23H56.8008C57.6133 193.23 58.2422 193.023 58.6875 192.609C59.1328 192.188 59.3555 191.613 59.3555 190.887C59.3555 190.184 59.1367 189.609 58.6992 189.164C58.2695 188.711 57.6641 188.477 56.8828 188.461H53.5781ZM70.043 195V182.32H74.9883C76.6758 182.32 77.9688 182.617 78.8672 183.211C79.7734 183.797 80.2266 184.66 80.2266 185.801C80.2266 186.387 80.0508 186.918 79.6992 187.395C79.3477 187.863 78.8281 188.223 78.1406 188.473C78.9062 188.652 79.5195 189.004 79.9805 189.527C80.4492 190.051 80.6836 190.676 80.6836 191.402C80.6836 192.566 80.2539 193.457 79.3945 194.074C78.543 194.691 77.3359 195 75.7734 195H70.043ZM72.2109 189.434V193.254H75.7969C76.7031 193.254 77.3789 193.086 77.8242 192.75C78.2773 192.414 78.5039 191.941 78.5039 191.332C78.5039 190.066 77.5742 189.434 75.7148 189.434H72.2109ZM72.2109 187.699H75.0117C77.043 187.699 78.0586 187.105 78.0586 185.918C78.0586 184.73 77.0977 184.117 75.1758 184.078H72.2109V187.699ZM91.3828 195C91.2578 194.75 91.1562 194.305 91.0781 193.664C90.0703 194.711 88.8672 195.234 87.4688 195.234C86.2188 195.234 85.1914 194.883 84.3867 194.18C83.5898 193.469 83.1914 192.57 83.1914 191.484C83.1914 190.164 83.6914 189.141 84.6914 188.414C85.6992 187.68 87.1133 187.312 88.9336 187.312H91.043V186.316C91.043 185.559 90.8164 184.957 90.3633 184.512C89.9102 184.059 89.2422 183.832 88.3594 183.832C87.5859 183.832 86.9375 184.027 86.4141 184.418C85.8906 184.809 85.6289 185.281 85.6289 185.836H83.4492C83.4492 185.203 83.6719 184.594 84.1172 184.008C84.5703 183.414 85.1797 182.945 85.9453 182.602C86.7188 182.258 87.5664 182.086 88.4883 182.086C89.9492 182.086 91.0938 182.453 91.9219 183.188C92.75 183.914 93.1797 184.918 93.2109 186.199V192.035C93.2109 193.199 93.3594 194.125 93.6562 194.812V195H91.3828ZM87.7852 193.348C88.4648 193.348 89.1094 193.172 89.7188 192.82C90.3281 192.469 90.7695 192.012 91.043 191.449V188.848H89.3438C86.6875 188.848 85.3594 189.625 85.3594 191.18C85.3594 191.859 85.5859 192.391 86.0391 192.773C86.4922 193.156 87.0742 193.348 87.7852 193.348ZM101.871 195.234C100.152 195.234 98.7539 194.672 97.6758 193.547C96.5977 192.414 96.0586 190.902 96.0586 189.012V188.613C96.0586 187.355 96.2969 186.234 96.7734 185.25C97.2578 184.258 97.9297 183.484 98.7891 182.93C99.6562 182.367 100.594 182.086 101.602 182.086C103.25 182.086 104.531 182.629 105.445 183.715C106.359 184.801 106.816 186.355 106.816 188.379V189.281H98.2266C98.2578 190.531 98.6211 191.543 99.3164 192.316C100.02 193.082 100.91 193.465 101.988 193.465C102.754 193.465 103.402 193.309 103.934 192.996C104.465 192.684 104.93 192.27 105.328 191.754L106.652 192.785C105.59 194.418 103.996 195.234 101.871 195.234ZM101.602 183.867C100.727 183.867 99.9922 184.188 99.3984 184.828C98.8047 185.461 98.4375 186.352 98.2969 187.5H104.648V187.336C104.586 186.234 104.289 185.383 103.758 184.781C103.227 184.172 102.508 183.867 101.602 183.867ZM118.617 184.078H114.363V195H112.195V184.078H108.023V182.32H118.617V184.078ZM125.051 195.234C123.332 195.234 121.934 194.672 120.855 193.547C119.777 192.414 119.238 190.902 119.238 189.012V188.613C119.238 187.355 119.477 186.234 119.953 185.25C120.438 184.258 121.109 183.484 121.969 182.93C122.836 182.367 123.773 182.086 124.781 182.086C126.43 182.086 127.711 182.629 128.625 183.715C129.539 184.801 129.996 186.355 129.996 188.379V189.281H121.406C121.438 190.531 121.801 191.543 122.496 192.316C123.199 193.082 124.09 193.465 125.168 193.465C125.934 193.465 126.582 193.309 127.113 192.996C127.645 192.684 128.109 192.27 128.508 191.754L129.832 192.785C128.77 194.418 127.176 195.234 125.051 195.234ZM124.781 183.867C123.906 183.867 123.172 184.188 122.578 184.828C121.984 185.461 121.617 186.352 121.477 187.5H127.828V187.336C127.766 186.234 127.469 185.383 126.938 184.781C126.406 184.172 125.688 183.867 124.781 183.867ZM138.656 182.32H140.836V193.23H146.672V182.32H148.84V193.23H150.352L150.141 198.762H148.195V195H138.656V182.32ZM157.957 195.234C156.238 195.234 154.84 194.672 153.762 193.547C152.684 192.414 152.145 190.902 152.145 189.012V188.613C152.145 187.355 152.383 186.234 152.859 185.25C153.344 184.258 154.016 183.484 154.875 182.93C155.742 182.367 156.68 182.086 157.688 182.086C159.336 182.086 160.617 182.629 161.531 183.715C162.445 184.801 162.902 186.355 162.902 188.379V189.281H154.312C154.344 190.531 154.707 191.543 155.402 192.316C156.105 193.082 156.996 193.465 158.074 193.465C158.84 193.465 159.488 193.309 160.02 192.996C160.551 192.684 161.016 192.27 161.414 191.754L162.738 192.785C161.676 194.418 160.082 195.234 157.957 195.234ZM157.688 183.867C156.812 183.867 156.078 184.188 155.484 184.828C154.891 185.461 154.523 186.352 154.383 187.5H160.734V187.336C160.672 186.234 160.375 185.383 159.844 184.781C159.312 184.172 158.594 183.867 157.688 183.867ZM175.781 195H173.613V189.586H167.789V195H165.609V182.32H167.789V187.816H173.613V182.32H175.781V195ZM183.422 191.824L186.375 182.32H188.695L183.598 196.957C182.809 199.066 181.555 200.121 179.836 200.121L179.426 200.086L178.617 199.934V198.176L179.203 198.223C179.938 198.223 180.508 198.074 180.914 197.777C181.328 197.48 181.668 196.938 181.934 196.148L182.414 194.859L177.891 182.32H180.258L183.422 191.824Z" fill="#1B1B1B"/>
<circle cx="94" cy="54" r="54" fill="#61A199"/>
<path d="M81 45C80.2044 45 79.4413 44.6839 78.8787 44.1213C78.3161 43.5587 78 42.7956 78 42C78 41.2044 78.3161 40.4413 78.8787 39.8787C79.4413 39.3161 80.2044 39 81 39C81.7956 39 82.5587 39.3161 83.1213 39.8787C83.6839 40.4413 84 41.2044 84 42C84 42.7956 83.6839 43.5587 83.1213 44.1213C82.5587 44.6839 81.7956 45 81 45ZM112.82 54.16L94.82 36.16C94.1 35.44 93.1 35 92 35H78C75.78 35 74 36.78 74 39V53C74 54.1 74.44 55.1 75.18 55.82L93.16 73.82C93.9 74.54 94.9 75 96 75C97.1 75 98.1 74.54 98.82 73.82L112.82 59.82C113.56 59.1 114 58.1 114 57C114 55.88 113.54 54.88 112.82 54.16Z" fill="white"/>
<path d="M154 54H293" stroke="#9D9AAC" stroke-dasharray="6 6"/>
<path d="M414 54H553" stroke="#9D9AAC" stroke-dasharray="6 6"/>
<path d="M674 54H813" stroke="#9D9AAC" stroke-dasharray="6 6"/>
<path d="M278.004 142.938L283.582 156.859L289.16 142.938H292.078V160H289.828V153.355L290.039 146.184L284.438 160H282.715L277.125 146.219L277.348 153.355V160H275.098V142.938H278.004ZM298.078 151.691H301.371C302.809 151.707 303.945 152.082 304.781 152.816C305.617 153.551 306.035 154.547 306.035 155.805C306.035 157.07 305.605 158.086 304.746 158.852C303.887 159.617 302.73 160 301.277 160H295.91V147.32H298.078V151.691ZM310.559 160H308.379V147.32H310.559V160ZM298.078 153.461V158.23H301.301C302.113 158.23 302.742 158.023 303.188 157.609C303.633 157.188 303.855 156.613 303.855 155.887C303.855 155.184 303.637 154.609 303.199 154.164C302.77 153.711 302.164 153.477 301.383 153.461H298.078ZM325.383 158.465C326.156 158.465 326.832 158.23 327.41 157.762C327.988 157.293 328.309 156.707 328.371 156.004H330.422C330.383 156.73 330.133 157.422 329.672 158.078C329.211 158.734 328.594 159.258 327.82 159.648C327.055 160.039 326.242 160.234 325.383 160.234C323.656 160.234 322.281 159.66 321.258 158.512C320.242 157.355 319.734 155.777 319.734 153.777V153.414C319.734 152.18 319.961 151.082 320.414 150.121C320.867 149.16 321.516 148.414 322.359 147.883C323.211 147.352 324.215 147.086 325.371 147.086C326.793 147.086 327.973 147.512 328.91 148.363C329.855 149.215 330.359 150.32 330.422 151.68H328.371C328.309 150.859 327.996 150.188 327.434 149.664C326.879 149.133 326.191 148.867 325.371 148.867C324.27 148.867 323.414 149.266 322.805 150.062C322.203 150.852 321.902 151.996 321.902 153.496V153.906C321.902 155.367 322.203 156.492 322.805 157.281C323.406 158.07 324.266 158.465 325.383 158.465ZM342.281 149.078H338.027V160H335.859V149.078H331.688V147.32H342.281V149.078ZM355.102 153.801C355.102 155.73 354.66 157.285 353.777 158.465C352.895 159.645 351.699 160.234 350.191 160.234C348.652 160.234 347.441 159.746 346.559 158.77V164.875H344.391V147.32H346.371L346.477 148.727C347.359 147.633 348.586 147.086 350.156 147.086C351.68 147.086 352.883 147.66 353.766 148.809C354.656 149.957 355.102 151.555 355.102 153.602V153.801ZM352.934 153.555C352.934 152.125 352.629 150.996 352.02 150.168C351.41 149.34 350.574 148.926 349.512 148.926C348.199 148.926 347.215 149.508 346.559 150.672V156.73C347.207 157.887 348.199 158.465 349.535 158.465C350.574 158.465 351.398 158.055 352.008 157.234C352.625 156.406 352.934 155.18 352.934 153.555ZM365.695 160C365.57 159.75 365.469 159.305 365.391 158.664C364.383 159.711 363.18 160.234 361.781 160.234C360.531 160.234 359.504 159.883 358.699 159.18C357.902 158.469 357.504 157.57 357.504 156.484C357.504 155.164 358.004 154.141 359.004 153.414C360.012 152.68 361.426 152.312 363.246 152.312H365.355V151.316C365.355 150.559 365.129 149.957 364.676 149.512C364.223 149.059 363.555 148.832 362.672 148.832C361.898 148.832 361.25 149.027 360.727 149.418C360.203 149.809 359.941 150.281 359.941 150.836H357.762C357.762 150.203 357.984 149.594 358.43 149.008C358.883 148.414 359.492 147.945 360.258 147.602C361.031 147.258 361.879 147.086 362.801 147.086C364.262 147.086 365.406 147.453 366.234 148.188C367.062 148.914 367.492 149.918 367.523 151.199V157.035C367.523 158.199 367.672 159.125 367.969 159.812V160H365.695ZM362.098 158.348C362.777 158.348 363.422 158.172 364.031 157.82C364.641 157.469 365.082 157.012 365.355 156.449V153.848H363.656C361 153.848 359.672 154.625 359.672 156.18C359.672 156.859 359.898 157.391 360.352 157.773C360.805 158.156 361.387 158.348 362.098 158.348ZM375.176 151.949L377.988 147.32H380.52L376.371 153.59L380.648 160H378.141L375.211 155.254L372.281 160H369.762L374.039 153.59L369.891 147.32H372.398L375.176 151.949ZM386.977 156.824L389.93 147.32H392.25L387.152 161.957C386.363 164.066 385.109 165.121 383.391 165.121L382.98 165.086L382.172 164.934V163.176L382.758 163.223C383.492 163.223 384.062 163.074 384.469 162.777C384.883 162.48 385.223 161.938 385.488 161.148L385.969 159.859L381.445 147.32H383.812L386.977 156.824ZM399.293 160.234C397.574 160.234 396.176 159.672 395.098 158.547C394.02 157.414 393.48 155.902 393.48 154.012V153.613C393.48 152.355 393.719 151.234 394.195 150.25C394.68 149.258 395.352 148.484 396.211 147.93C397.078 147.367 398.016 147.086 399.023 147.086C400.672 147.086 401.953 147.629 402.867 148.715C403.781 149.801 404.238 151.355 404.238 153.379V154.281H395.648C395.68 155.531 396.043 156.543 396.738 157.316C397.441 158.082 398.332 158.465 399.41 158.465C400.176 158.465 400.824 158.309 401.355 157.996C401.887 157.684 402.352 157.27 402.75 156.754L404.074 157.785C403.012 159.418 401.418 160.234 399.293 160.234ZM399.023 148.867C398.148 148.867 397.414 149.188 396.82 149.828C396.227 150.461 395.859 151.352 395.719 152.5H402.07V152.336C402.008 151.234 401.711 150.383 401.18 149.781C400.648 149.172 399.93 148.867 399.023 148.867ZM414.059 157.129L418.371 147.32H421.078V160H418.91V150.777L414.809 160H413.309L409.125 150.578V160H406.957V147.32H409.77L414.059 157.129ZM291.727 195C291.602 194.75 291.5 194.305 291.422 193.664C290.414 194.711 289.211 195.234 287.812 195.234C286.562 195.234 285.535 194.883 284.73 194.18C283.934 193.469 283.535 192.57 283.535 191.484C283.535 190.164 284.035 189.141 285.035 188.414C286.043 187.68 287.457 187.312 289.277 187.312H291.387V186.316C291.387 185.559 291.16 184.957 290.707 184.512C290.254 184.059 289.586 183.832 288.703 183.832C287.93 183.832 287.281 184.027 286.758 184.418C286.234 184.809 285.973 185.281 285.973 185.836H283.793C283.793 185.203 284.016 184.594 284.461 184.008C284.914 183.414 285.523 182.945 286.289 182.602C287.062 182.258 287.91 182.086 288.832 182.086C290.293 182.086 291.438 182.453 292.266 183.188C293.094 183.914 293.523 184.918 293.555 186.199V192.035C293.555 193.199 293.703 194.125 294 194.812V195H291.727ZM288.129 193.348C288.809 193.348 289.453 193.172 290.062 192.82C290.672 192.469 291.113 192.012 291.387 191.449V188.848H289.688C287.031 188.848 285.703 189.625 285.703 191.18C285.703 191.859 285.93 192.391 286.383 192.773C286.836 193.156 287.418 193.348 288.129 193.348ZM297.152 195V182.32H302.098C303.785 182.32 305.078 182.617 305.977 183.211C306.883 183.797 307.336 184.66 307.336 185.801C307.336 186.387 307.16 186.918 306.809 187.395C306.457 187.863 305.938 188.223 305.25 188.473C306.016 188.652 306.629 189.004 307.09 189.527C307.559 190.051 307.793 190.676 307.793 191.402C307.793 192.566 307.363 193.457 306.504 194.074C305.652 194.691 304.445 195 302.883 195H297.152ZM299.32 189.434V193.254H302.906C303.812 193.254 304.488 193.086 304.934 192.75C305.387 192.414 305.613 191.941 305.613 191.332C305.613 190.066 304.684 189.434 302.824 189.434H299.32ZM299.32 187.699H302.121C304.152 187.699 305.168 187.105 305.168 185.918C305.168 184.73 304.207 184.117 302.285 184.078H299.32V187.699ZM319.945 184.078H315.691V195H313.523V184.078H309.352V182.32H319.945V184.078ZM320.988 188.543C320.988 187.301 321.23 186.184 321.715 185.191C322.207 184.199 322.887 183.434 323.754 182.895C324.629 182.355 325.625 182.086 326.742 182.086C328.469 182.086 329.863 182.684 330.926 183.879C331.996 185.074 332.531 186.664 332.531 188.648V188.801C332.531 190.035 332.293 191.145 331.816 192.129C331.348 193.105 330.672 193.867 329.789 194.414C328.914 194.961 327.906 195.234 326.766 195.234C325.047 195.234 323.652 194.637 322.582 193.441C321.52 192.246 320.988 190.664 320.988 188.695V188.543ZM323.168 188.801C323.168 190.207 323.492 191.336 324.141 192.188C324.797 193.039 325.672 193.465 326.766 193.465C327.867 193.465 328.742 193.035 329.391 192.176C330.039 191.309 330.363 190.098 330.363 188.543C330.363 187.152 330.031 186.027 329.367 185.168C328.711 184.301 327.836 183.867 326.742 183.867C325.672 183.867 324.809 184.293 324.152 185.145C323.496 185.996 323.168 187.215 323.168 188.801ZM342.551 192.129L346.863 182.32H349.57V195H347.402V185.777L343.301 195H341.801L337.617 185.578V195H335.449V182.32H338.262L342.551 192.129ZM352.488 188.543C352.488 187.301 352.73 186.184 353.215 185.191C353.707 184.199 354.387 183.434 355.254 182.895C356.129 182.355 357.125 182.086 358.242 182.086C359.969 182.086 361.363 182.684 362.426 183.879C363.496 185.074 364.031 186.664 364.031 188.648V188.801C364.031 190.035 363.793 191.145 363.316 192.129C362.848 193.105 362.172 193.867 361.289 194.414C360.414 194.961 359.406 195.234 358.266 195.234C356.547 195.234 355.152 194.637 354.082 193.441C353.02 192.246 352.488 190.664 352.488 188.695V188.543ZM354.668 188.801C354.668 190.207 354.992 191.336 355.641 192.188C356.297 193.039 357.172 193.465 358.266 193.465C359.367 193.465 360.242 193.035 360.891 192.176C361.539 191.309 361.863 190.098 361.863 188.543C361.863 187.152 361.531 186.027 360.867 185.168C360.211 184.301 359.336 183.867 358.242 183.867C357.172 183.867 356.309 184.293 355.652 185.145C354.996 185.996 354.668 187.215 354.668 188.801ZM372.316 183.047C373.91 183.047 375.184 183.582 376.137 184.652C377.098 185.715 377.578 187.117 377.578 188.859V189.059C377.578 190.254 377.348 191.324 376.887 192.27C376.426 193.207 375.762 193.938 374.895 194.461C374.035 194.977 373.043 195.234 371.918 195.234C370.215 195.234 368.844 194.668 367.805 193.535C366.766 192.395 366.246 190.867 366.246 188.953V187.898C366.246 185.234 366.738 183.117 367.723 181.547C368.715 179.977 370.176 179.02 372.105 178.676C373.199 178.48 373.938 178.242 374.32 177.961C374.703 177.68 374.895 177.293 374.895 176.801H376.676C376.676 177.777 376.453 178.539 376.008 179.086C375.57 179.633 374.867 180.02 373.898 180.246L372.281 180.609C370.992 180.914 370.023 181.43 369.375 182.156C368.734 182.875 368.316 183.836 368.121 185.039C369.27 183.711 370.668 183.047 372.316 183.047ZM371.895 184.828C370.832 184.828 369.988 185.188 369.363 185.906C368.738 186.617 368.426 187.605 368.426 188.871V189.059C368.426 190.418 368.738 191.496 369.363 192.293C369.996 193.082 370.848 193.477 371.918 193.477C372.996 193.477 373.848 193.078 374.473 192.281C375.098 191.484 375.41 190.32 375.41 188.789C375.41 187.594 375.094 186.637 374.461 185.918C373.836 185.191 372.98 184.828 371.895 184.828ZM388.008 182.32H390.176V195H388.008V185.754L382.16 195H379.992V182.32H382.16V191.578L388.008 182.32ZM404.051 182.32V195H401.871V184.113H397.559L397.301 188.859C397.16 191.039 396.793 192.598 396.199 193.535C395.613 194.473 394.68 194.961 393.398 195H392.531V193.09L393.152 193.043C393.855 192.965 394.359 192.559 394.664 191.824C394.969 191.09 395.164 189.73 395.25 187.746L395.484 182.32H404.051ZM415.734 182.32H417.902V195H415.734V185.754L409.887 195H407.719V182.32H409.887V191.578L415.734 182.32Z" fill="#1B1B1B"/>
<circle cx="351" cy="54" r="54" fill="#61A199"/>
<path d="M341 60H345C345 62.16 347.74 64 351 64C354.26 64 357 62.16 357 60C357 57.8 354.92 57 350.52 55.94C346.28 54.88 341 53.56 341 48C341 44.42 343.94 41.38 348 40.36V36H354V40.36C358.06 41.38 361 44.42 361 48H357C357 45.84 354.26 44 351 44C347.74 44 345 45.84 345 48C345 50.2 347.08 51 351.48 52.06C355.72 53.12 361 54.44 361 60C361 63.58 358.06 66.62 354 67.64V72H348V67.64C343.94 66.62 341 63.58 341 60Z" fill="white"/>
<path d="M540.203 160H537.941V152.113H529.34V160H527.09V142.938H529.34V150.273H537.941V142.938H540.203V160ZM551.688 160C551.562 159.75 551.461 159.305 551.383 158.664C550.375 159.711 549.172 160.234 547.773 160.234C546.523 160.234 545.496 159.883 544.691 159.18C543.895 158.469 543.496 157.57 543.496 156.484C543.496 155.164 543.996 154.141 544.996 153.414C546.004 152.68 547.418 152.312 549.238 152.312H551.348V151.316C551.348 150.559 551.121 149.957 550.668 149.512C550.215 149.059 549.547 148.832 548.664 148.832C547.891 148.832 547.242 149.027 546.719 149.418C546.195 149.809 545.934 150.281 545.934 150.836H543.754C543.754 150.203 543.977 149.594 544.422 149.008C544.875 148.414 545.484 147.945 546.25 147.602C547.023 147.258 547.871 147.086 548.793 147.086C550.254 147.086 551.398 147.453 552.227 148.188C553.055 148.914 553.484 149.918 553.516 151.199V157.035C553.516 158.199 553.664 159.125 553.961 159.812V160H551.688ZM548.09 158.348C548.77 158.348 549.414 158.172 550.023 157.82C550.633 157.469 551.074 157.012 551.348 156.449V153.848H549.648C546.992 153.848 545.664 154.625 545.664 156.18C545.664 156.859 545.891 157.391 546.344 157.773C546.797 158.156 547.379 158.348 548.09 158.348ZM559.281 147.32V158.23H563.922V147.32H566.09V158.23H570.719V147.32H572.898V160H557.102V147.32H559.281ZM584.148 160C584.023 159.75 583.922 159.305 583.844 158.664C582.836 159.711 581.633 160.234 580.234 160.234C578.984 160.234 577.957 159.883 577.152 159.18C576.355 158.469 575.957 157.57 575.957 156.484C575.957 155.164 576.457 154.141 577.457 153.414C578.465 152.68 579.879 152.312 581.699 152.312H583.809V151.316C583.809 150.559 583.582 149.957 583.129 149.512C582.676 149.059 582.008 148.832 581.125 148.832C580.352 148.832 579.703 149.027 579.18 149.418C578.656 149.809 578.395 150.281 578.395 150.836H576.215C576.215 150.203 576.438 149.594 576.883 149.008C577.336 148.414 577.945 147.945 578.711 147.602C579.484 147.258 580.332 147.086 581.254 147.086C582.715 147.086 583.859 147.453 584.688 148.188C585.516 148.914 585.945 149.918 585.977 151.199V157.035C585.977 158.199 586.125 159.125 586.422 159.812V160H584.148ZM580.551 158.348C581.23 158.348 581.875 158.172 582.484 157.82C583.094 157.469 583.535 157.012 583.809 156.449V153.848H582.109C579.453 153.848 578.125 154.625 578.125 156.18C578.125 156.859 578.352 157.391 578.805 157.773C579.258 158.156 579.84 158.348 580.551 158.348ZM599.277 154.598H597.695V160H595.516V147.32H597.695V152.688H599.113L603.379 147.32H606.004L600.988 153.414L606.426 160H603.672L599.277 154.598ZM607.457 153.543C607.457 152.301 607.699 151.184 608.184 150.191C608.676 149.199 609.355 148.434 610.223 147.895C611.098 147.355 612.094 147.086 613.211 147.086C614.938 147.086 616.332 147.684 617.395 148.879C618.465 150.074 619 151.664 619 153.648V153.801C619 155.035 618.762 156.145 618.285 157.129C617.816 158.105 617.141 158.867 616.258 159.414C615.383 159.961 614.375 160.234 613.234 160.234C611.516 160.234 610.121 159.637 609.051 158.441C607.988 157.246 607.457 155.664 607.457 153.695V153.543ZM609.637 153.801C609.637 155.207 609.961 156.336 610.609 157.188C611.266 158.039 612.141 158.465 613.234 158.465C614.336 158.465 615.211 158.035 615.859 157.176C616.508 156.309 616.832 155.098 616.832 153.543C616.832 152.152 616.5 151.027 615.836 150.168C615.18 149.301 614.305 148.867 613.211 148.867C612.141 148.867 611.277 149.293 610.621 150.145C609.965 150.996 609.637 152.215 609.637 153.801ZM629.02 157.129L633.332 147.32H636.039V160H633.871V150.777L629.77 160H628.27L624.086 150.578V160H621.918V147.32H624.73L629.02 157.129ZM647.734 147.32H649.902V160H647.734V150.754L641.887 160H639.719V147.32H641.887V156.578L647.734 147.32ZM658.469 158.465C659.242 158.465 659.918 158.23 660.496 157.762C661.074 157.293 661.395 156.707 661.457 156.004H663.508C663.469 156.73 663.219 157.422 662.758 158.078C662.297 158.734 661.68 159.258 660.906 159.648C660.141 160.039 659.328 160.234 658.469 160.234C656.742 160.234 655.367 159.66 654.344 158.512C653.328 157.355 652.82 155.777 652.82 153.777V153.414C652.82 152.18 653.047 151.082 653.5 150.121C653.953 149.16 654.602 148.414 655.445 147.883C656.297 147.352 657.301 147.086 658.457 147.086C659.879 147.086 661.059 147.512 661.996 148.363C662.941 149.215 663.445 150.32 663.508 151.68H661.457C661.395 150.859 661.082 150.188 660.52 149.664C659.965 149.133 659.277 148.867 658.457 148.867C657.355 148.867 656.5 149.266 655.891 150.062C655.289 150.852 654.988 151.996 654.988 153.496V153.906C654.988 155.367 655.289 156.492 655.891 157.281C656.492 158.07 657.352 158.465 658.469 158.465ZM671.031 158.465C671.805 158.465 672.48 158.23 673.059 157.762C673.637 157.293 673.957 156.707 674.02 156.004H676.07C676.031 156.73 675.781 157.422 675.32 158.078C674.859 158.734 674.242 159.258 673.469 159.648C672.703 160.039 671.891 160.234 671.031 160.234C669.305 160.234 667.93 159.66 666.906 158.512C665.891 157.355 665.383 155.777 665.383 153.777V153.414C665.383 152.18 665.609 151.082 666.062 150.121C666.516 149.16 667.164 148.414 668.008 147.883C668.859 147.352 669.863 147.086 671.02 147.086C672.441 147.086 673.621 147.512 674.559 148.363C675.504 149.215 676.008 150.32 676.07 151.68H674.02C673.957 150.859 673.645 150.188 673.082 149.664C672.527 149.133 671.84 148.867 671.02 148.867C669.918 148.867 669.062 149.266 668.453 150.062C667.852 150.852 667.551 151.996 667.551 153.496V153.906C667.551 155.367 667.852 156.492 668.453 157.281C669.055 158.07 669.914 158.465 671.031 158.465ZM686.711 147.32H688.879V160H686.711V150.754L680.863 160H678.695V147.32H680.863V156.578L686.711 147.32ZM702.051 147.32V160H699.871V155.066H696.602L693.613 160H691.27L694.457 154.738C693.645 154.441 693.02 153.984 692.582 153.367C692.152 152.742 691.938 152.016 691.938 151.188C691.938 150.031 692.371 149.102 693.238 148.398C694.105 147.688 695.266 147.328 696.719 147.32H702.051ZM694.117 151.211C694.117 151.828 694.328 152.328 694.75 152.711C695.172 153.086 695.73 153.277 696.426 153.285H699.871V149.078H696.754C695.949 149.078 695.309 149.277 694.832 149.676C694.355 150.066 694.117 150.578 694.117 151.211ZM566.57 195V182.32H571.516C573.203 182.32 574.496 182.617 575.395 183.211C576.301 183.797 576.754 184.66 576.754 185.801C576.754 186.387 576.578 186.918 576.227 187.395C575.875 187.863 575.355 188.223 574.668 188.473C575.434 188.652 576.047 189.004 576.508 189.527C576.977 190.051 577.211 190.676 577.211 191.402C577.211 192.566 576.781 193.457 575.922 194.074C575.07 194.691 573.863 195 572.301 195H566.57ZM568.738 189.434V193.254H572.324C573.23 193.254 573.906 193.086 574.352 192.75C574.805 192.414 575.031 191.941 575.031 191.332C575.031 190.066 574.102 189.434 572.242 189.434H568.738ZM568.738 187.699H571.539C573.57 187.699 574.586 187.105 574.586 185.918C574.586 184.73 573.625 184.117 571.703 184.078H568.738V187.699ZM585.168 193.465C585.941 193.465 586.617 193.23 587.195 192.762C587.773 192.293 588.094 191.707 588.156 191.004H590.207C590.168 191.73 589.918 192.422 589.457 193.078C588.996 193.734 588.379 194.258 587.605 194.648C586.84 195.039 586.027 195.234 585.168 195.234C583.441 195.234 582.066 194.66 581.043 193.512C580.027 192.355 579.52 190.777 579.52 188.777V188.414C579.52 187.18 579.746 186.082 580.199 185.121C580.652 184.16 581.301 183.414 582.145 182.883C582.996 182.352 584 182.086 585.156 182.086C586.578 182.086 587.758 182.512 588.695 183.363C589.641 184.215 590.145 185.32 590.207 186.68H588.156C588.094 185.859 587.781 185.188 587.219 184.664C586.664 184.133 585.977 183.867 585.156 183.867C584.055 183.867 583.199 184.266 582.59 185.062C581.988 185.852 581.688 186.996 581.688 188.496V188.906C581.688 190.367 581.988 191.492 582.59 192.281C583.191 193.07 584.051 193.465 585.168 193.465ZM597.906 195.234C596.188 195.234 594.789 194.672 593.711 193.547C592.633 192.414 592.094 190.902 592.094 189.012V188.613C592.094 187.355 592.332 186.234 592.809 185.25C593.293 184.258 593.965 183.484 594.824 182.93C595.691 182.367 596.629 182.086 597.637 182.086C599.285 182.086 600.566 182.629 601.48 183.715C602.395 184.801 602.852 186.355 602.852 188.379V189.281H594.262C594.293 190.531 594.656 191.543 595.352 192.316C596.055 193.082 596.945 193.465 598.023 193.465C598.789 193.465 599.438 193.309 599.969 192.996C600.5 192.684 600.965 192.27 601.363 191.754L602.688 192.785C601.625 194.418 600.031 195.234 597.906 195.234ZM597.637 183.867C596.762 183.867 596.027 184.188 595.434 184.828C594.84 185.461 594.473 186.352 594.332 187.5H600.684V187.336C600.621 186.234 600.324 185.383 599.793 184.781C599.262 184.172 598.543 183.867 597.637 183.867ZM613.562 184.113H607.715V195H605.535V182.32H613.562V184.113ZM614.641 188.543C614.641 187.301 614.883 186.184 615.367 185.191C615.859 184.199 616.539 183.434 617.406 182.895C618.281 182.355 619.277 182.086 620.395 182.086C622.121 182.086 623.516 182.684 624.578 183.879C625.648 185.074 626.184 186.664 626.184 188.648V188.801C626.184 190.035 625.945 191.145 625.469 192.129C625 193.105 624.324 193.867 623.441 194.414C622.566 194.961 621.559 195.234 620.418 195.234C618.699 195.234 617.305 194.637 616.234 193.441C615.172 192.246 614.641 190.664 614.641 188.695V188.543ZM616.82 188.801C616.82 190.207 617.145 191.336 617.793 192.188C618.449 193.039 619.324 193.465 620.418 193.465C621.52 193.465 622.395 193.035 623.043 192.176C623.691 191.309 624.016 190.098 624.016 188.543C624.016 187.152 623.684 186.027 623.02 185.168C622.363 184.301 621.488 183.867 620.395 183.867C619.324 183.867 618.461 184.293 617.805 185.145C617.148 185.996 616.82 187.215 616.82 188.801ZM637.785 185.414H639.414C640.438 185.398 641.242 185.129 641.828 184.605C642.414 184.082 642.707 183.375 642.707 182.484C642.707 180.484 641.711 179.484 639.719 179.484C638.781 179.484 638.031 179.754 637.469 180.293C636.914 180.824 636.637 181.531 636.637 182.414H634.469C634.469 181.062 634.961 179.941 635.945 179.051C636.938 178.152 638.195 177.703 639.719 177.703C641.328 177.703 642.59 178.129 643.504 178.98C644.418 179.832 644.875 181.016 644.875 182.531C644.875 183.273 644.633 183.992 644.148 184.688C643.672 185.383 643.02 185.902 642.191 186.246C643.129 186.543 643.852 187.035 644.359 187.723C644.875 188.41 645.133 189.25 645.133 190.242C645.133 191.773 644.633 192.988 643.633 193.887C642.633 194.785 641.332 195.234 639.73 195.234C638.129 195.234 636.824 194.801 635.816 193.934C634.816 193.066 634.316 191.922 634.316 190.5H636.496C636.496 191.398 636.789 192.117 637.375 192.656C637.961 193.195 638.746 193.465 639.73 193.465C640.777 193.465 641.578 193.191 642.133 192.645C642.688 192.098 642.965 191.312 642.965 190.289C642.965 189.297 642.66 188.535 642.051 188.004C641.441 187.473 640.562 187.199 639.414 187.184H637.785V185.414ZM647.922 181.219C647.922 180.195 648.246 179.352 648.895 178.688C649.551 178.023 650.391 177.691 651.414 177.691C652.453 177.691 653.293 178.027 653.934 178.699C654.582 179.363 654.906 180.227 654.906 181.289V182.121C654.906 183.152 654.578 183.996 653.922 184.652C653.273 185.301 652.445 185.625 651.438 185.625C650.422 185.625 649.582 185.301 648.918 184.652C648.254 183.996 647.922 183.125 647.922 182.039V181.219ZM649.539 182.121C649.539 182.73 649.711 183.234 650.055 183.633C650.398 184.023 650.859 184.219 651.438 184.219C651.992 184.219 652.438 184.027 652.773 183.645C653.117 183.262 653.289 182.738 653.289 182.074V181.219C653.289 180.609 653.121 180.105 652.785 179.707C652.449 179.309 651.992 179.109 651.414 179.109C650.836 179.109 650.379 179.309 650.043 179.707C649.707 180.105 649.539 180.625 649.539 181.266V182.121ZM656.23 190.816C656.23 189.793 656.555 188.953 657.203 188.297C657.859 187.633 658.699 187.301 659.723 187.301C660.746 187.301 661.586 187.629 662.242 188.285C662.898 188.941 663.227 189.812 663.227 190.898V191.73C663.227 192.754 662.898 193.598 662.242 194.262C661.594 194.918 660.762 195.246 659.746 195.246C658.73 195.246 657.891 194.922 657.227 194.273C656.562 193.617 656.23 192.746 656.23 191.66V190.816ZM657.848 191.73C657.848 192.348 658.02 192.855 658.363 193.254C658.707 193.645 659.168 193.84 659.746 193.84C660.309 193.84 660.758 193.648 661.094 193.266C661.43 192.875 661.598 192.348 661.598 191.684V190.816C661.598 190.199 661.426 189.695 661.082 189.305C660.746 188.914 660.293 188.719 659.723 188.719C659.168 188.719 658.715 188.914 658.363 189.305C658.02 189.688 657.848 190.207 657.848 190.863V191.73ZM651.93 193.711L650.699 192.938L659.031 179.602L660.262 180.375L651.93 193.711Z" fill="#1B1B1B"/>
<circle cx="614" cy="54" r="54" fill="#61A199"/>
<path d="M627 37L597 67L601 71L631 41L627 37ZM604 38C602.409 38 600.883 38.6321 599.757 39.7574C598.632 40.8826 598 42.4087 598 44C598 45.5913 598.632 47.1174 599.757 48.2426C600.883 49.3679 602.409 50 604 50C605.591 50 607.117 49.3679 608.243 48.2426C609.368 47.1174 610 45.5913 610 44C610 42.4087 609.368 40.8826 608.243 39.7574C607.117 38.6321 605.591 38 604 38ZM624 58C622.409 58 620.883 58.6321 619.757 59.7574C618.632 60.8826 618 62.4087 618 64C618 65.5913 618.632 67.1174 619.757 68.2426C620.883 69.3679 622.409 70 624 70C625.591 70 627.117 69.3679 628.243 68.2426C629.368 67.1174 630 65.5913 630 64C630 62.4087 629.368 60.8826 628.243 59.7574C627.117 58.6321 625.591 58 624 58Z" fill="white"/>
<path d="M824.809 160V142.938H830.387C832.238 142.938 833.629 143.32 834.559 144.086C835.496 144.852 835.965 145.984 835.965 147.484C835.965 148.281 835.738 148.988 835.285 149.605C834.832 150.215 834.215 150.688 833.434 151.023C834.355 151.281 835.082 151.773 835.613 152.5C836.152 153.219 836.422 154.078 836.422 155.078C836.422 156.609 835.926 157.812 834.934 158.688C833.941 159.562 832.539 160 830.727 160H824.809ZM827.059 152.02V158.16H830.773C831.82 158.16 832.645 157.891 833.246 157.352C833.855 156.805 834.16 156.055 834.16 155.102C834.16 153.047 833.043 152.02 830.809 152.02H827.059ZM827.059 150.215H830.457C831.441 150.215 832.227 149.969 832.812 149.477C833.406 148.984 833.703 148.316 833.703 147.473C833.703 146.535 833.43 145.855 832.883 145.434C832.336 145.004 831.504 144.789 830.387 144.789H827.059V150.215ZM841.789 151.691H845.082C846.52 151.707 847.656 152.082 848.492 152.816C849.328 153.551 849.746 154.547 849.746 155.805C849.746 157.07 849.316 158.086 848.457 158.852C847.598 159.617 846.441 160 844.988 160H839.621V147.32H841.789V151.691ZM854.27 160H852.09V147.32H854.27V160ZM841.789 153.461V158.23H845.012C845.824 158.23 846.453 158.023 846.898 157.609C847.344 157.188 847.566 156.613 847.566 155.887C847.566 155.184 847.348 154.609 846.91 154.164C846.48 153.711 845.875 153.477 845.094 153.461H841.789ZM868.426 160H866.258V149.113H860.422V160H858.242V147.32H868.426V160ZM882.301 147.32V160H880.121V149.113H875.809L875.551 153.859C875.41 156.039 875.043 157.598 874.449 158.535C873.863 159.473 872.93 159.961 871.648 160H870.781V158.09L871.402 158.043C872.105 157.965 872.609 157.559 872.914 156.824C873.219 156.09 873.414 154.73 873.5 152.746L873.734 147.32H882.301ZM893.609 160C893.484 159.75 893.383 159.305 893.305 158.664C892.297 159.711 891.094 160.234 889.695 160.234C888.445 160.234 887.418 159.883 886.613 159.18C885.816 158.469 885.418 157.57 885.418 156.484C885.418 155.164 885.918 154.141 886.918 153.414C887.926 152.68 889.34 152.312 891.16 152.312H893.27V151.316C893.27 150.559 893.043 149.957 892.59 149.512C892.137 149.059 891.469 148.832 890.586 148.832C889.812 148.832 889.164 149.027 888.641 149.418C888.117 149.809 887.855 150.281 887.855 150.836H885.676C885.676 150.203 885.898 149.594 886.344 149.008C886.797 148.414 887.406 147.945 888.172 147.602C888.945 147.258 889.793 147.086 890.715 147.086C892.176 147.086 893.32 147.453 894.148 148.188C894.977 148.914 895.406 149.918 895.438 151.199V157.035C895.438 158.199 895.586 159.125 895.883 159.812V160H893.609ZM890.012 158.348C890.691 158.348 891.336 158.172 891.945 157.82C892.555 157.469 892.996 157.012 893.27 156.449V153.848H891.57C888.914 153.848 887.586 154.625 887.586 156.18C887.586 156.859 887.812 157.391 888.266 157.773C888.719 158.156 889.301 158.348 890.012 158.348ZM908.07 149.078H903.816V160H901.648V149.078H897.477V147.32H908.07V149.078ZM912.547 151.691H915.84C917.277 151.707 918.414 152.082 919.25 152.816C920.086 153.551 920.504 154.547 920.504 155.805C920.504 157.07 920.074 158.086 919.215 158.852C918.355 159.617 917.199 160 915.746 160H910.379V147.32H912.547V151.691ZM925.027 160H922.848V147.32H925.027V160ZM912.547 153.461V158.23H915.77C916.582 158.23 917.211 158.023 917.656 157.609C918.102 157.188 918.324 156.613 918.324 155.887C918.324 155.184 918.105 154.609 917.668 154.164C917.238 153.711 916.633 153.477 915.852 153.461H912.547ZM789.066 189.598H787.484V195H785.305V182.32H787.484V187.688H788.902L793.168 182.32H795.793L790.777 188.414L796.215 195H793.461L789.066 189.598ZM805.906 195C805.781 194.75 805.68 194.305 805.602 193.664C804.594 194.711 803.391 195.234 801.992 195.234C800.742 195.234 799.715 194.883 798.91 194.18C798.113 193.469 797.715 192.57 797.715 191.484C797.715 190.164 798.215 189.141 799.215 188.414C800.223 187.68 801.637 187.312 803.457 187.312H805.566V186.316C805.566 185.559 805.34 184.957 804.887 184.512C804.434 184.059 803.766 183.832 802.883 183.832C802.109 183.832 801.461 184.027 800.938 184.418C800.414 184.809 800.152 185.281 800.152 185.836H797.973C797.973 185.203 798.195 184.594 798.641 184.008C799.094 183.414 799.703 182.945 800.469 182.602C801.242 182.258 802.09 182.086 803.012 182.086C804.473 182.086 805.617 182.453 806.445 183.188C807.273 183.914 807.703 184.918 807.734 186.199V192.035C807.734 193.199 807.883 194.125 808.18 194.812V195H805.906ZM802.309 193.348C802.988 193.348 803.633 193.172 804.242 192.82C804.852 192.469 805.293 192.012 805.566 191.449V188.848H803.867C801.211 188.848 799.883 189.625 799.883 191.18C799.883 191.859 800.109 192.391 800.562 192.773C801.016 193.156 801.598 193.348 802.309 193.348ZM821.246 189.492H819.723V195H817.555V189.492H816.031L812.48 195H809.738L814.273 188.438L810.172 182.32H812.797L816.066 187.57H817.555V182.32H819.723V187.57H821.199L824.492 182.32H827.117L823.004 188.449L827.539 195H824.797L821.246 189.492ZM829.402 193.23L830.152 192.305C830.996 191.211 831.477 189.57 831.594 187.383L831.793 182.32H839.961V193.23H841.59V198.727H839.422V195H830.574V198.727H828.406L828.418 193.23H829.402ZM831.969 193.23H837.793V184.324H833.891L833.762 187.348C833.629 189.871 833.031 191.832 831.969 193.23ZM848.141 191.824L851.094 182.32H853.414L848.316 196.957C847.527 199.066 846.273 200.121 844.555 200.121L844.145 200.086L843.336 199.934V198.176L843.922 198.223C844.656 198.223 845.227 198.074 845.633 197.777C846.047 197.48 846.387 196.938 846.652 196.148L847.133 194.859L842.609 182.32H844.977L848.141 191.824ZM857.727 187.699H860.773C860.938 186.012 861.535 184.656 862.566 183.633C863.605 182.602 864.914 182.086 866.492 182.086C868.148 182.086 869.504 182.645 870.559 183.762C871.613 184.879 872.184 186.332 872.27 188.121L872.281 188.801C872.281 190.035 872.039 191.148 871.555 192.141C871.07 193.133 870.391 193.898 869.516 194.438C868.641 194.969 867.641 195.234 866.516 195.234C864.883 195.234 863.547 194.703 862.508 193.641C861.469 192.57 860.887 191.184 860.762 189.48H857.727V195H855.559V182.32H857.727V187.699ZM862.906 188.801C862.906 190.207 863.23 191.336 863.879 192.188C864.535 193.039 865.414 193.465 866.516 193.465C867.617 193.465 868.488 193.031 869.129 192.164C869.777 191.297 870.102 190.09 870.102 188.543C870.102 187.16 869.773 186.035 869.117 185.168C868.461 184.301 867.586 183.867 866.492 183.867C865.414 183.867 864.547 184.293 863.891 185.145C863.234 185.996 862.906 187.215 862.906 188.801ZM891.266 195H889.098V189.586H883.273V195H881.094V182.32H883.273V187.816H889.098V182.32H891.266V195ZM900.02 195.234C898.301 195.234 896.902 194.672 895.824 193.547C894.746 192.414 894.207 190.902 894.207 189.012V188.613C894.207 187.355 894.445 186.234 894.922 185.25C895.406 184.258 896.078 183.484 896.938 182.93C897.805 182.367 898.742 182.086 899.75 182.086C901.398 182.086 902.68 182.629 903.594 183.715C904.508 184.801 904.965 186.355 904.965 188.379V189.281H896.375C896.406 190.531 896.77 191.543 897.465 192.316C898.168 193.082 899.059 193.465 900.137 193.465C900.902 193.465 901.551 193.309 902.082 192.996C902.613 192.684 903.078 192.27 903.477 191.754L904.801 192.785C903.738 194.418 902.145 195.234 900.02 195.234ZM899.75 183.867C898.875 183.867 898.141 184.188 897.547 184.828C896.953 185.461 896.586 186.352 896.445 187.5H902.797V187.336C902.734 186.234 902.438 185.383 901.906 184.781C901.375 184.172 900.656 183.867 899.75 183.867ZM907.379 193.23L908.129 192.305C908.973 191.211 909.453 189.57 909.57 187.383L909.77 182.32H917.938V193.23H919.566V198.727H917.398V195H908.551V198.727H906.383L906.395 193.23H907.379ZM909.945 193.23H915.77V184.324H911.867L911.738 187.348C911.605 189.871 911.008 191.832 909.945 193.23ZM927.23 195.234C925.512 195.234 924.113 194.672 923.035 193.547C921.957 192.414 921.418 190.902 921.418 189.012V188.613C921.418 187.355 921.656 186.234 922.133 185.25C922.617 184.258 923.289 183.484 924.148 182.93C925.016 182.367 925.953 182.086 926.961 182.086C928.609 182.086 929.891 182.629 930.805 183.715C931.719 184.801 932.176 186.355 932.176 188.379V189.281H923.586C923.617 190.531 923.98 191.543 924.676 192.316C925.379 193.082 926.27 193.465 927.348 193.465C928.113 193.465 928.762 193.309 929.293 192.996C929.824 192.684 930.289 192.27 930.688 191.754L932.012 192.785C930.949 194.418 929.355 195.234 927.23 195.234ZM926.961 183.867C926.086 183.867 925.352 184.188 924.758 184.828C924.164 185.461 923.797 186.352 923.656 187.5H930.008V187.336C929.945 186.234 929.648 185.383 929.117 184.781C928.586 184.172 927.867 183.867 926.961 183.867ZM945.09 182.32V195H942.91V184.113H938.598L938.34 188.859C938.199 191.039 937.832 192.598 937.238 193.535C936.652 194.473 935.719 194.961 934.438 195H933.57V193.09L934.191 193.043C934.895 192.965 935.398 192.559 935.703 191.824C936.008 191.09 936.203 189.73 936.289 187.746L936.523 182.32H945.09ZM950.938 187.699H953.984C954.148 186.012 954.746 184.656 955.777 183.633C956.816 182.602 958.125 182.086 959.703 182.086C961.359 182.086 962.715 182.645 963.77 183.762C964.824 184.879 965.395 186.332 965.48 188.121L965.492 188.801C965.492 190.035 965.25 191.148 964.766 192.141C964.281 193.133 963.602 193.898 962.727 194.438C961.852 194.969 960.852 195.234 959.727 195.234C958.094 195.234 956.758 194.703 955.719 193.641C954.68 192.57 954.098 191.184 953.973 189.48H950.938V195H948.77V182.32H950.938V187.699ZM956.117 188.801C956.117 190.207 956.441 191.336 957.09 192.188C957.746 193.039 958.625 193.465 959.727 193.465C960.828 193.465 961.699 193.031 962.34 192.164C962.988 191.297 963.312 190.09 963.312 188.543C963.312 187.16 962.984 186.035 962.328 185.168C961.672 184.301 960.797 183.867 959.703 183.867C958.625 183.867 957.758 184.293 957.102 185.145C956.445 185.996 956.117 187.215 956.117 188.801Z" fill="#1B1B1B"/>
<circle cx="875" cy="54" r="54" fill="#61A199"/>
<path d="M861 41H897V65H861V41ZM879 47C880.591 47 882.117 47.6321 883.243 48.7574C884.368 49.8826 885 51.4087 885 53C885 54.5913 884.368 56.1174 883.243 57.2426C882.117 58.3679 880.591 59 879 59C877.409 59 875.883 58.3679 874.757 57.2426C873.632 56.1174 873 54.5913 873 53C873 51.4087 873.632 49.8826 874.757 48.7574C875.883 47.6321 877.409 47 879 47ZM869 45C869 46.0609 868.579 47.0783 867.828 47.8284C867.078 48.5786 866.061 49 865 49V57C866.061 57 867.078 57.4214 867.828 58.1716C868.579 58.9217 869 59.9391 869 61H889C889 59.9391 889.421 58.9217 890.172 58.1716C890.922 57.4214 891.939 57 893 57V49C891.939 49 890.922 48.5786 890.172 47.8284C889.421 47.0783 889 46.0609 889 45H869ZM853 49H857V69H889V73H853V49Z" fill="white"/>
</svg>
